<?xml version="1.0" encoding="utf-8"?>
<!-- Svg Vector Icons : http://www.onlinewebfonts.com/icon -->
<!DOCTYPE svg PUBLIC "-//W3C//DTD SVG 1.1//EN" "http://www.w3.org/Graphics/SVG/1.1/DTD/svg11.dtd">
<svg version="1.1" xmlns="http://www.w3.org/2000/svg" xmlns:xlink="http://www.w3.org/1999/xlink" x="0px" y="0px" viewBox="0 0 256 256" enable-background="new 0 0 256 256" xml:space="preserve">
<metadata> Svg Vector Icons : http://www.onlinewebfonts.com/icon </metadata>
<g> <path fill="#112e8c" d="M145.2,82.8c-2.2,0-4,1.8-4,4c0,2.2,1.8,4,4,4H202v24.3c0,2.2,1.8,4,4,4c2.2,0,4-1.8,4-4V69 c0-2.2-1.8-4-4-4h-10.7c-3.2-6.1-9-10.4-15.8-11.6v-8.4c0-2.2-1.8-4-3.9-4s-4,1.8-4,4v8.4c-6.8,1.2-12.6,5.5-15.8,11.6h-10.7 c-2.2,0-4,1.8-4,4c0,2.2,1.8,4,4,4h13.3c1.8,0,3.3-1.2,3.8-3c0-0.1,0.1-0.1,0.1-0.2c2.1-5.3,7.4-8.8,13.3-8.8 c6,0,11.3,3.7,13.4,9.1c0.2,0.5,0.5,1,0.9,1.4c0.7,0.9,1.8,1.4,3,1.4h9.1v9.8H145.2z"/> <path fill="#9cd7eb" d="M78.6,78.9h66.9v155.8H78.6V78.9z M177.4,128.1h57.3v106.7h-57.3V128.1z"/> <path fill="#5498d2" d="M72.1,77.6c0-2.2-1.8-4-4-4c-2.2,0-4,1.8-4,4v156.1c0,2.2,1.8,4,4,4c2.2,0,4-1.8,4-4V77.6z M195.2,150.1 c0-2.2-1.8-4-3.9-4s-4,1.8-4,4v13.4c0,2.2,1.8,4,4,4s3.9-1.8,3.9-4V150.1z M195.2,189.6c0-2.2-1.8-4-3.9-4s-4,1.8-4,4v13.4 c0,2.2,1.8,4,4,4s3.9-1.8,3.9-4V189.6z"/> <path fill="#5498d2" d="M143.7,72.8H68.4c-2.2,0-4,1.8-4,4s1.8,4,4,4h71.3v23.4H87.1c-2.2,0-4,1.8-4,4c0,2.2,1.8,4,4,4h52.6v23.7 H71.3c-2.2,0-4,1.8-4,4c0,2.2,1.8,4,4,4h68.4v23.7H71.3c-2.2,0-4,1.8-4,4c0,2.2,1.8,4,4,4h68.4v61.9c0,2.2,1.8,4,4,4s3.9-1.8,3.9-4 V76.7C147.6,74.6,145.8,72.8,143.7,72.8L143.7,72.8z"/> <path fill="#5498d2" d="M127.1,198.9H71.3c-2.2,0-4,1.8-4,4c0,2.2,1.8,4,4,4h55.8c2.2,0,4-1.8,4-4 C131,200.6,129.3,198.9,127.1,198.9z"/> <path fill="#112e8c" d="M207,146.2c-2.2,0-4,1.8-4,4v13.4c0,2.2,1.8,4,4,4s3.9-1.8,3.9-4v-13.4C211,147.9,209.2,146.2,207,146.2z  M207,185.7c-2.2,0-4,1.8-4,4v13.4c0,2.2,1.8,4,4,4s3.9-1.8,3.9-4v-13.4C211,187.5,209.2,185.7,207,185.7z"/> <path fill="#112e8c" d="M242,234.2h-8.6c0.2-0.5,0.3-0.9,0.3-1.4V130c0-2.2-1.8-4-4-4h-59.3c-2.2,0-4,1.8-4,4v104.2H52.4V97 c0-2.2-1.8-4-4-4s-4,1.8-4,4v137.3H32.9V87.8l52.2-38.9v24H93v-55c0-2.2-1.8-4-4-4c-2.2,0-4,1.8-4,4V39L26.5,82.6 c-1,0.7-1.6,1.9-1.6,3.2v148.5H14c-2.2,0-4,1.8-4,4c0,2.2,1.8,4,4,4H242c2.2,0,4-1.8,4-4C246,236,244.2,234.2,242,234.2L242,234.2z  M174.4,234.2V134h51.4v98.8c0,0.5,0.1,1,0.3,1.4H174.4L174.4,234.2z"/></g>
</svg>