<svg width="676" height="477" fill="none" xmlns="http://www.w3.org/2000/svg"><path stroke="#AAA" stroke-width=".5" d="M353.25 60v101M454.212 84.133l-57 91M521.149 136.201l-96 71M553.043 218.246l-116 20.227M549.109 308.741l-118.175-32.5M476.804 387.155l-65-82M389.903 426.273l-15.15-104.237M290.76 414.996l29.673-101.066M211.837 352.52l79.836-68.709M180.995 247.523l95-1.773M204.526 151.973l86.591 45.806M269.216 83.874l50 86"/><path d="M317.065 26h-1.432a.642.642 0 0 1-.405-.128 1.361 1.361 0 0 1-.3-.367l-2.708-3.855a1.309 1.309 0 0 0-.202-.247.762.762 0 0 0-.218-.165.782.782 0 0 0-.27-.09 1.653 1.653 0 0 0-.337-.03h-1.268V26h-1.597V15.23h1.597v4.657h1.088c.22 0 .407-.032.562-.097.16-.07.313-.207.458-.412l2.707-3.706c.08-.13.175-.235.285-.315a.676.676 0 0 1 .413-.127h1.35l-3.173 4.395c-.125.18-.267.33-.427.45-.16.115-.335.207-.525.277.27.07.497.188.682.353.19.16.373.383.548.668L317.065 26zm5.542-3.383c-.595.02-1.1.068-1.515.143-.415.07-.753.165-1.013.285-.26.12-.447.262-.562.427a.903.903 0 0 0-.173.54c0 .19.03.355.09.495.065.135.15.248.255.338.11.085.238.148.383.188.145.04.302.06.472.06a2.603 2.603 0 0 0 1.148-.256c.165-.084.322-.187.472-.307.15-.12.298-.258.443-.413v-1.5zm-4.29-3.172a4.372 4.372 0 0 1 1.38-.907c.5-.2 1.047-.3 1.642-.3.435 0 .82.072 1.155.217.335.14.618.338.848.593.23.255.402.56.517.915.12.354.18.747.18 1.177V26h-.652a.65.65 0 0 1-.33-.067.513.513 0 0 1-.18-.27l-.158-.668c-.195.18-.387.34-.577.48-.19.135-.39.252-.6.352a3.097 3.097 0 0 1-.66.218c-.235.05-.495.075-.78.075-.3 0-.583-.04-.848-.12a1.83 1.83 0 0 1-1.147-1.02 2.238 2.238 0 0 1-.165-.893c0-.3.08-.587.24-.862.165-.28.43-.53.795-.75.37-.22.85-.4 1.44-.54.595-.14 1.325-.22 2.19-.24v-.555c0-.575-.123-1.005-.368-1.29-.245-.285-.605-.428-1.08-.428-.32 0-.59.04-.81.12-.215.08-.402.17-.562.27-.155.095-.293.183-.413.263a.621.621 0 0 1-.36.12.43.43 0 0 1-.262-.082.714.714 0 0 1-.173-.195l-.262-.473zm9.593 4.68c.24.315.497.535.772.66.28.125.593.188.938.188.67 0 1.187-.24 1.552-.72.37-.486.555-1.19.555-2.116 0-.485-.042-.897-.127-1.237-.08-.345-.2-.625-.36-.84a1.368 1.368 0 0 0-.578-.48 1.858 1.858 0 0 0-.78-.157c-.425 0-.795.095-1.11.285-.31.19-.597.46-.862.81v3.607zm-.075-4.605c.16-.19.33-.363.51-.517.185-.16.382-.296.592-.405.21-.115.433-.203.668-.263.24-.065.495-.098.765-.098.435 0 .827.086 1.177.256.355.17.658.42.908.75s.442.737.577 1.222c.14.485.21 1.043.21 1.672 0 .566-.077 1.09-.232 1.575-.15.48-.368.898-.653 1.253-.28.355-.625.635-1.035.84-.405.2-.862.3-1.372.3-.455 0-.845-.075-1.17-.225a2.808 2.808 0 0 1-.87-.63v3.308h-1.463V18.38h.878c.205 0 .332.098.382.293l.128.847zm13.677-.03h-2.873V26h-1.47v-6.51h-2.872v-1.11h7.215v1.11zm5.706 3.128c-.595.02-1.1.067-1.515.142-.415.07-.752.165-1.012.285-.26.12-.448.262-.563.427a.902.902 0 0 0-.172.54c0 .19.03.355.09.495.065.135.15.248.255.338.11.085.237.148.382.188.145.04.303.06.473.06a2.603 2.603 0 0 0 1.147-.256c.165-.084.323-.187.473-.307.15-.12.297-.258.442-.413v-1.5zm-4.29-3.173a4.372 4.372 0 0 1 1.38-.907c.5-.2 1.048-.3 1.643-.3.435 0 .82.072 1.155.217.335.14.617.338.847.593.23.255.403.56.518.915.12.354.18.747.18 1.177V26h-.653a.65.65 0 0 1-.33-.067.513.513 0 0 1-.18-.27l-.157-.668c-.195.18-.388.34-.578.48-.19.135-.39.252-.6.352a3.097 3.097 0 0 1-.66.218c-.235.05-.495.075-.78.075-.3 0-.582-.04-.847-.12a1.83 1.83 0 0 1-1.148-1.02 2.238 2.238 0 0 1-.165-.893c0-.3.08-.587.24-.862.165-.28.43-.53.795-.75.37-.22.85-.4 1.44-.54.595-.14 1.325-.22 2.19-.24v-.555c0-.575-.122-1.005-.367-1.29-.245-.285-.605-.428-1.08-.428-.32 0-.59.04-.81.12-.215.08-.403.17-.563.27a12.88 12.88 0 0 0-.412.263.621.621 0 0 1-.36.12.433.433 0 0 1-.263-.082.71.71 0 0 1-.172-.195l-.263-.473zm17.37.045h-3.533V26h-1.462v-7.62h4.995v1.11zm4.591-1.23c.56 0 1.065.092 1.515.277.455.18.84.443 1.155.788.32.34.565.753.735 1.238.17.48.255 1.02.255 1.62 0 .6-.085 1.142-.255 1.627-.17.485-.415.898-.735 1.238-.315.34-.7.602-1.155.787-.45.18-.955.27-1.515.27-.565 0-1.075-.09-1.53-.27a3.273 3.273 0 0 1-1.155-.788 3.526 3.526 0 0 1-.743-1.237 4.897 4.897 0 0 1-.255-1.627c0-.6.085-1.14.255-1.62.175-.485.423-.898.743-1.238.32-.345.705-.607 1.155-.787a4.03 4.03 0 0 1 1.53-.278zm0 6.705c.72 0 1.257-.242 1.612-.727.355-.485.533-1.168.533-2.048 0-.88-.178-1.563-.533-2.048-.355-.49-.892-.735-1.612-.735-.73 0-1.275.245-1.635.735-.355.486-.533 1.168-.533 2.048 0 .88.178 1.563.533 2.047.36.486.905.728 1.635.728zm7.205-.84c.24.315.497.535.772.66.28.125.593.188.938.188.67 0 1.187-.24 1.552-.72.37-.486.555-1.19.555-2.116 0-.485-.042-.897-.127-1.237-.08-.345-.2-.625-.36-.84a1.368 1.368 0 0 0-.578-.48 1.858 1.858 0 0 0-.78-.157c-.425 0-.795.095-1.11.285-.31.19-.597.46-.862.81v3.607zm-.075-4.605c.16-.19.33-.363.51-.517.185-.16.382-.296.592-.405.21-.115.433-.203.668-.263.24-.065.495-.098.765-.098.435 0 .827.086 1.177.256.355.17.658.42.908.75s.442.737.577 1.222c.14.485.21 1.043.21 1.672 0 .566-.077 1.09-.232 1.575-.15.48-.368.898-.653 1.253-.28.355-.625.635-1.035.84-.405.2-.862.3-1.372.3-.455 0-.845-.075-1.17-.225a2.808 2.808 0 0 1-.87-.63v3.308h-1.463V18.38h.878c.205 0 .332.098.382.293l.128.847zm10.733-1.26c.56 0 1.065.092 1.515.277.455.18.84.443 1.155.788.32.34.565.753.735 1.238.17.48.255 1.02.255 1.62 0 .6-.085 1.142-.255 1.627-.17.485-.415.898-.735 1.238-.315.34-.7.602-1.155.787-.45.18-.955.27-1.515.27-.565 0-1.075-.09-1.53-.27a3.273 3.273 0 0 1-1.155-.788 3.526 3.526 0 0 1-.743-1.237 4.897 4.897 0 0 1-.255-1.627c0-.6.085-1.14.255-1.62.175-.485.423-.898.743-1.238.32-.345.705-.607 1.155-.787a4.03 4.03 0 0 1 1.53-.278zm0 6.705c.72 0 1.257-.242 1.612-.727.355-.485.533-1.168.533-2.048 0-.88-.178-1.563-.533-2.048-.355-.49-.892-.735-1.612-.735-.73 0-1.275.245-1.635.735-.355.486-.533 1.168-.533 2.048 0 .88.178 1.563.533 2.047.36.486.905.728 1.635.728zm10.684-.03v-5.407h-2.28c-.05.74-.118 1.4-.203 1.98-.085.58-.185 1.09-.3 1.53a7.63 7.63 0 0 1-.367 1.125c-.135.31-.278.567-.428.772h3.578zm2.812-.045v3.262c0 .14-.04.25-.12.33a.392.392 0 0 1-.3.12h-.907V26h-6.225v2.183c0 .11-.033.207-.098.292-.065.085-.167.127-.307.127h-.93v-3.667h.247c.175 0 .348-.027.518-.082.17-.056.332-.166.487-.33.16-.165.31-.398.45-.698.14-.3.268-.692.383-1.177.115-.485.215-1.075.3-1.77.085-.7.152-1.533.202-2.498h4.905v6.51h1.395zm5.859-2.273c-.595.02-1.1.068-1.515.143-.415.07-.753.165-1.013.285-.26.12-.447.262-.562.427a.903.903 0 0 0-.173.54c0 .19.03.355.09.495.065.135.15.248.255.338.11.085.238.148.383.188.145.04.302.06.472.06a2.603 2.603 0 0 0 1.148-.256c.165-.084.322-.187.472-.307.15-.12.298-.258.443-.413v-1.5zm-4.29-3.172a4.372 4.372 0 0 1 1.38-.907c.5-.2 1.047-.3 1.642-.3.435 0 .82.072 1.155.217.335.14.618.338.848.593.23.255.402.56.517.915.12.354.18.747.18 1.177V26h-.652a.65.65 0 0 1-.33-.067.513.513 0 0 1-.18-.27l-.158-.668c-.195.18-.387.34-.577.48-.19.135-.39.252-.6.352a3.097 3.097 0 0 1-.66.218c-.235.05-.495.075-.78.075-.3 0-.583-.04-.848-.12a1.83 1.83 0 0 1-1.147-1.02 2.238 2.238 0 0 1-.165-.893c0-.3.08-.587.24-.862.165-.28.43-.53.795-.75.37-.22.85-.4 1.44-.54.595-.14 1.325-.22 2.19-.24v-.555c0-.575-.123-1.005-.368-1.29-.245-.285-.605-.428-1.08-.428-.32 0-.59.04-.81.12-.215.08-.402.17-.562.27-.155.095-.293.183-.413.263a.621.621 0 0 1-.36.12.43.43 0 0 1-.262-.082.714.714 0 0 1-.173-.195l-.262-.473zM399.028 458.987l-1.598-4.177c-.055-.14-.112-.3-.172-.48a18.83 18.83 0 0 1-.165-.593 9.902 9.902 0 0 1-.173.6c-.055.18-.11.343-.165.488l-1.59 4.162h3.863zm3.165 4.013h-1.238a.545.545 0 0 1-.345-.105.672.672 0 0 1-.195-.27l-.952-2.498h-4.74l-.953 2.498a.7.7 0 0 1-.202.262.511.511 0 0 1-.338.113h-1.238l4.291-10.77h1.62l4.29 10.77zm2.898-1.875c.24.315.498.535.773.66.28.125.592.187.937.187.67 0 1.188-.24 1.553-.72.37-.485.555-1.19.555-2.115 0-.485-.043-.897-.128-1.237-.08-.345-.2-.625-.36-.84a1.365 1.365 0 0 0-.577-.48 1.858 1.858 0 0 0-.78-.158c-.425 0-.795.095-1.11.285-.31.19-.598.46-.863.81v3.608zm-.075-4.605c.16-.19.33-.363.51-.518.185-.16.383-.295.593-.405.21-.115.432-.202.667-.262.24-.065.495-.098.765-.098.435 0 .828.085 1.178.255.355.17.657.42.907.75s.443.738.578 1.223c.14.485.21 1.042.21 1.672 0 .565-.078 1.09-.233 1.575-.15.48-.367.898-.652 1.253-.28.355-.625.635-1.035.84-.405.2-.863.3-1.373.3-.455 0-.845-.075-1.17-.225a2.808 2.808 0 0 1-.87-.63v3.308h-1.462V455.38h.877c.205 0 .333.097.383.292l.127.848zm13.583 6.48h-1.41a.413.413 0 0 1-.278-.09.965.965 0 0 1-.157-.203l-1.838-2.902-.075.217a.887.887 0 0 1-.097.195l-1.688 2.49a1.61 1.61 0 0 1-.172.203.361.361 0 0 1-.255.09h-1.305l2.655-3.923-2.55-3.697h1.41c.115 0 .197.017.247.052a.443.443 0 0 1 .143.158l1.807 2.782c.025-.075.053-.147.083-.217.03-.075.07-.153.12-.233l1.552-2.302c.09-.16.21-.24.36-.24h1.343l-2.55 3.63 2.655 3.99zm8.233-7.62V463h-1.47v-4.98a4.79 4.79 0 0 1 .06-.705c-.05.105-.1.205-.15.3a1.79 1.79 0 0 1-.142.24l-3.503 4.777c-.055.09-.127.175-.217.255a.452.452 0 0 1-.308.121h-.885v-7.628h1.463v4.987a4.284 4.284 0 0 1-.06.698c.1-.22.197-.398.292-.533l3.503-4.785a1.22 1.22 0 0 1 .217-.247c.095-.08.2-.12.315-.12h.885zm5.463 6.592c.47 0 .842-.11 1.117-.33.275-.225.413-.527.413-.907 0-.165-.025-.318-.075-.458a.868.868 0 0 0-.255-.375 1.204 1.204 0 0 0-.473-.24 2.478 2.478 0 0 0-.72-.09h-1.582v2.4h1.575zm-1.575-5.617v2.287h1.402c.21 0 .403-.03.578-.09.18-.06.332-.142.457-.247.13-.11.23-.24.3-.39a1.14 1.14 0 0 0 .113-.503 1.04 1.04 0 0 0-.075-.39.81.81 0 0 0-.24-.337c-.11-.1-.258-.18-.443-.24a2.265 2.265 0 0 0-.69-.09h-1.402zm1.447-.975c.47 0 .875.047 1.215.142.34.09.62.218.84.383.22.165.38.357.48.577.105.22.158.458.158.713 0 .165-.023.337-.068.517-.045.18-.122.353-.232.518-.11.16-.26.307-.45.442a2.09 2.09 0 0 1-.713.315c.56.1.995.3 1.305.6.315.3.473.698.473 1.193 0 .375-.078.702-.233.982-.15.275-.355.505-.615.69-.26.185-.565.323-.915.413-.35.09-.72.135-1.11.135h-2.977v-7.62h2.842zm14.527 6.555v-5.408h-2.28c-.05.74-.117 1.4-.202 1.98-.085.58-.185 1.09-.3 1.53-.11.435-.233.81-.368 1.125a4.06 4.06 0 0 1-.427.773h3.577zm2.813-.045v3.263c0 .14-.04.25-.12.33a.392.392 0 0 1-.3.12h-.908V463h-6.225v2.183c0 .11-.032.207-.097.292-.065.085-.168.128-.308.128h-.93v-3.668h.248c.175 0 .347-.028.517-.083.17-.055.333-.165.488-.33.16-.165.31-.397.45-.697.14-.3.267-.693.382-1.178.115-.485.215-1.075.3-1.77.085-.7.153-1.532.203-2.497h4.905v6.51h1.395zm4.879-6.63c.56 0 1.065.092 1.515.277.455.18.84.443 1.155.788.32.34.565.752.735 1.237.17.48.255 1.02.255 1.62a4.9 4.9 0 0 1-.255 1.628c-.17.485-.415.897-.735 1.237-.315.34-.7.603-1.155.788-.45.18-.955.27-1.515.27-.565 0-1.075-.09-1.53-.27a3.275 3.275 0 0 1-1.155-.788 3.524 3.524 0 0 1-.743-1.237 4.9 4.9 0 0 1-.255-1.628c0-.6.085-1.14.255-1.62.175-.485.423-.897.743-1.237.32-.345.705-.608 1.155-.788a4.03 4.03 0 0 1 1.53-.277zm0 6.705c.72 0 1.257-.243 1.612-.728.355-.485.533-1.167.533-2.047 0-.88-.178-1.563-.533-2.048-.355-.49-.892-.735-1.612-.735-.73 0-1.275.245-1.635.735-.355.485-.533 1.168-.533 2.048 0 .88.178 1.562.533 2.047.36.485.905.728 1.635.728zm10.347-6.188a.911.911 0 0 1 .3-.285.761.761 0 0 1 .398-.112h1.147l-1.927 2.88a2.3 2.3 0 0 1-.375.465c-.13.12-.29.212-.48.277.24.07.442.175.607.315.165.135.313.313.443.533l1.942 3.15h-1.012c-.265 0-.47-.043-.615-.128-.14-.09-.26-.217-.36-.382l-1.395-2.303a1.147 1.147 0 0 0-.435-.427 1.197 1.197 0 0 0-.593-.143h-.787v3.391h-1.463v-7.628h1.463v3.255h.69c.21 0 .387-.043.532-.128.15-.085.278-.21.383-.375l1.537-2.355zm10.372-.397-4.23 9.833a.617.617 0 0 1-.18.255c-.075.06-.185.09-.33.09h-1.088l1.395-3.038-3.127-7.14h1.275c.125 0 .222.03.292.09.07.06.12.127.15.202l1.935 4.575c.04.115.078.233.113.353.04.115.072.23.097.345.035-.12.073-.238.113-.353.04-.12.082-.237.127-.352l1.868-4.568a.477.477 0 0 1 .165-.209.414.414 0 0 1 .255-.083h1.17zm10.141-.023V463h-1.32v-4.845c0-.15.007-.32.022-.51.02-.19.048-.365.083-.525l-2.55 4.515a.572.572 0 0 1-.173.202.446.446 0 0 1-.247.068h-.165a.474.474 0 0 1-.248-.068.57.57 0 0 1-.172-.202l-2.588-4.53a6.495 6.495 0 0 1 .105 1.05V463h-1.32v-7.643h1.185c.1 0 .2.023.3.068.1.045.185.132.255.262l2.228 3.765c.065.12.125.248.18.383.055.135.107.27.157.405l.15-.405a3.87 3.87 0 0 1 .18-.383l2.198-3.765c.07-.135.155-.222.255-.262.1-.045.2-.068.3-.068h1.185zm7.545 2.985c0-.29-.043-.557-.128-.802-.08-.245-.2-.458-.36-.638-.16-.18-.355-.32-.585-.42-.23-.1-.495-.15-.795-.15-.615 0-1.1.178-1.455.533-.35.355-.572.847-.667 1.477h3.99zm1.207 3.57c-.18.21-.387.393-.622.548-.235.15-.485.272-.75.367a4.62 4.62 0 0 1-.825.211c-.28.045-.558.067-.833.067a3.998 3.998 0 0 1-1.462-.263 3.356 3.356 0 0 1-1.163-.78 3.676 3.676 0 0 1-.765-1.275c-.18-.51-.27-1.095-.27-1.755a4.3 4.3 0 0 1 .248-1.477c.165-.46.4-.86.705-1.2.31-.34.687-.608 1.132-.803a3.7 3.7 0 0 1 1.5-.292c.465 0 .893.077 1.283.232.395.15.735.37 1.02.66.285.29.507.648.667 1.073.165.425.248.91.248 1.455 0 .225-.025.377-.075.457-.05.075-.143.113-.278.113h-4.995c.015.455.08.852.195 1.192.115.335.273.615.473.84.205.225.447.393.727.503.28.11.593.165.938.165.325 0 .605-.038.84-.113.24-.075.445-.155.615-.24.175-.09.32-.172.435-.247a.62.62 0 0 1 .315-.113c.12 0 .212.045.277.135l.42.54zm8.555-6.532V463h-1.47v-3.51h-3.488V463h-1.462v-7.62h1.462v3h3.488v-3h1.47zm8.879 1.11h-2.873V463h-1.47v-6.51h-2.872v-1.11h7.215v1.11zm4.639-1.23c.56 0 1.065.092 1.515.277.455.18.84.443 1.155.788.32.34.565.752.735 1.237.17.48.255 1.02.255 1.62a4.9 4.9 0 0 1-.255 1.628c-.17.485-.415.897-.735 1.237-.315.34-.7.603-1.155.788-.45.18-.955.27-1.515.27-.565 0-1.075-.09-1.53-.27a3.275 3.275 0 0 1-1.155-.788 3.522 3.522 0 0 1-.742-1.237 4.9 4.9 0 0 1-.255-1.628c0-.6.085-1.14.255-1.62.175-.485.422-.897.742-1.237.32-.345.705-.608 1.155-.788a4.03 4.03 0 0 1 1.53-.277zm0 6.705c.72 0 1.258-.243 1.613-.728s.532-1.167.532-2.047c0-.88-.177-1.563-.532-2.048-.355-.49-.893-.735-1.613-.735-.73 0-1.275.245-1.635.735-.355.485-.532 1.168-.532 2.048 0 .88.177 1.562.532 2.047.36.485.905.728 1.635.728zm8.713.007c.47 0 .842-.11 1.117-.33.275-.225.413-.527.413-.907 0-.165-.025-.318-.075-.458a.868.868 0 0 0-.255-.375 1.204 1.204 0 0 0-.473-.24 2.478 2.478 0 0 0-.72-.09h-1.582v2.4h1.575zm-1.575-5.617v2.287h1.402c.21 0 .403-.03.578-.09.18-.06.332-.142.457-.247.13-.11.23-.24.3-.39a1.14 1.14 0 0 0 .113-.503 1.04 1.04 0 0 0-.075-.39.81.81 0 0 0-.24-.337c-.11-.1-.258-.18-.443-.24a2.265 2.265 0 0 0-.69-.09h-1.402zm1.447-.975c.47 0 .875.047 1.215.142.34.09.62.218.84.383.22.165.38.357.48.577.105.22.158.458.158.713 0 .165-.023.337-.068.517-.045.18-.122.353-.232.518-.11.16-.26.307-.45.442a2.09 2.09 0 0 1-.713.315c.56.1.995.3 1.305.6.315.3.473.698.473 1.193 0 .375-.078.702-.233.982-.15.275-.355.505-.615.69-.26.185-.565.323-.915.413-.35.09-.72.135-1.11.135h-2.977v-7.62h2.842zM97.028 142.987l-1.598-4.177c-.055-.14-.113-.3-.173-.48a18.83 18.83 0 0 1-.165-.593 9.913 9.913 0 0 1-.172.6c-.055.18-.11.343-.165.488l-1.59 4.162h3.862zm3.165 4.013h-1.238a.545.545 0 0 1-.345-.105.672.672 0 0 1-.195-.27l-.953-2.498h-4.74l-.952 2.498a.702.702 0 0 1-.203.262.51.51 0 0 1-.337.113h-1.237l4.29-10.77h1.62l4.29 10.77zm7.856-7.62V147h-1.47v-3.51h-3.488V147h-1.462v-7.62h1.462v3h3.488v-3h1.47zm6.592 4.237c-.595.02-1.1.068-1.515.143-.415.07-.753.165-1.013.285-.26.12-.447.262-.562.427a.903.903 0 0 0-.173.54c0 .19.03.355.09.495.065.135.15.248.255.338.11.085.238.147.383.187.145.04.302.06.472.06a2.605 2.605 0 0 0 1.148-.255c.165-.085.322-.187.472-.307.15-.12.298-.258.443-.413v-1.5zm-4.29-3.172a4.374 4.374 0 0 1 1.38-.908c.5-.2 1.047-.3 1.642-.3.435 0 .82.073 1.155.218.335.14.618.337.848.592.23.255.402.56.517.915.12.355.18.748.18 1.178V147h-.652a.65.65 0 0 1-.33-.068.513.513 0 0 1-.18-.27l-.158-.667c-.195.18-.387.34-.577.48a4.01 4.01 0 0 1-.6.352 3.098 3.098 0 0 1-.66.218c-.235.05-.495.075-.78.075-.3 0-.583-.04-.848-.12a1.944 1.944 0 0 1-.682-.383 1.828 1.828 0 0 1-.465-.637 2.241 2.241 0 0 1-.165-.893c0-.3.08-.587.24-.862.165-.28.43-.53.795-.75.37-.22.85-.4 1.44-.54.595-.14 1.325-.22 2.19-.24v-.555c0-.575-.123-1.005-.368-1.29-.245-.285-.605-.428-1.08-.428-.32 0-.59.04-.81.12-.215.08-.402.17-.562.27-.155.095-.293.183-.413.263a.621.621 0 0 1-.36.12.43.43 0 0 1-.262-.083.714.714 0 0 1-.173-.195l-.262-.472zM125.254 147h-1.463v-6.473h-2.272c-.06.96-.15 1.79-.27 2.49a11.43 11.43 0 0 1-.435 1.778c-.17.485-.36.88-.57 1.185-.205.3-.425.535-.66.705-.23.165-.468.275-.713.33-.245.06-.49.09-.735.09-.455 0-.682-.075-.682-.225v-.923h.405c.17 0 .34-.027.51-.082.175-.06.345-.173.51-.338.17-.17.33-.405.48-.705.15-.3.287-.692.412-1.177.125-.49.233-1.085.323-1.785s.16-1.53.21-2.49h4.95V147zm9.125-7.62V147h-1.47v-4.98a4.79 4.79 0 0 1 .06-.705c-.05.105-.1.205-.15.3a1.79 1.79 0 0 1-.142.24l-3.503 4.777c-.055.09-.127.175-.217.255a.452.452 0 0 1-.308.121h-.885v-7.628h1.463v4.987a4.284 4.284 0 0 1-.06.698c.1-.22.197-.398.292-.533l3.503-4.785a1.22 1.22 0 0 1 .217-.247c.095-.08.2-.12.315-.12h.885zm8.875 1.11h-2.873V147h-1.47v-6.51h-2.872v-1.11h7.215v1.11zm8.285-1.11V147h-1.47v-4.98a4.79 4.79 0 0 1 .06-.705c-.05.105-.1.205-.15.3a1.79 1.79 0 0 1-.143.24l-3.502 4.777c-.055.09-.128.175-.218.255a.45.45 0 0 1-.307.121h-.885v-7.628h1.462v4.987a4.284 4.284 0 0 1-.06.698c.1-.22.198-.398.293-.533l3.502-4.785c.055-.085.128-.167.218-.247.095-.08.2-.12.315-.12h.885zm7.097.397a.911.911 0 0 1 .3-.285.761.761 0 0 1 .398-.112h1.147l-1.927 2.88a2.3 2.3 0 0 1-.375.465c-.13.12-.29.212-.48.277.24.07.442.175.607.315.165.135.313.313.443.533l1.942 3.15h-1.012c-.265 0-.47-.043-.615-.128-.14-.09-.26-.217-.36-.382l-1.395-2.303a1.147 1.147 0 0 0-.435-.427 1.197 1.197 0 0 0-.593-.143h-.787v3.391h-1.463v-7.628h1.463v3.255h.69c.21 0 .387-.043.532-.128.15-.085.278-.21.383-.375l1.537-2.355zm7.806 3.84c-.595.02-1.1.068-1.515.143-.415.07-.752.165-1.012.285-.26.12-.448.262-.563.427a.902.902 0 0 0-.172.54c0 .19.03.355.09.495.065.135.15.248.255.338.11.085.237.147.382.187.145.04.303.06.473.06a2.605 2.605 0 0 0 1.147-.255c.165-.085.323-.187.473-.307.15-.12.297-.258.442-.413v-1.5zm-4.29-3.172a4.374 4.374 0 0 1 1.38-.908c.5-.2 1.048-.3 1.643-.3.435 0 .82.073 1.155.218.335.14.617.337.847.592.23.255.403.56.518.915.12.355.18.748.18 1.178V147h-.653a.65.65 0 0 1-.33-.068.513.513 0 0 1-.18-.27l-.157-.667c-.195.18-.388.34-.578.48a4.01 4.01 0 0 1-.6.352 3.098 3.098 0 0 1-.66.218c-.235.05-.495.075-.78.075-.3 0-.582-.04-.847-.12a1.949 1.949 0 0 1-.683-.383 1.828 1.828 0 0 1-.465-.637 2.241 2.241 0 0 1-.165-.893c0-.3.08-.587.24-.862.165-.28.43-.53.795-.75.37-.22.85-.4 1.44-.54.595-.14 1.325-.22 2.19-.24v-.555c0-.575-.122-1.005-.367-1.29-.245-.285-.605-.428-1.08-.428-.32 0-.59.04-.81.12-.215.08-.403.17-.563.27-.155.095-.292.183-.412.263a.621.621 0 0 1-.36.12.434.434 0 0 1-.263-.083.71.71 0 0 1-.172-.195l-.263-.472zM451.853 28.483h-4.92V38h-1.605V27.23h6.525v1.253zm2.365 1.777c.56 0 1.065.092 1.515.277.455.18.84.443 1.155.788.32.34.565.753.735 1.238.17.48.255 1.02.255 1.62 0 .6-.085 1.142-.255 1.627-.17.485-.415.898-.735 1.237-.315.34-.7.603-1.155.788-.45.18-.955.27-1.515.27-.565 0-1.075-.09-1.53-.27a3.273 3.273 0 0 1-1.155-.788 3.524 3.524 0 0 1-.742-1.237 4.897 4.897 0 0 1-.255-1.628c0-.6.085-1.14.255-1.62.175-.484.422-.897.742-1.237.32-.345.705-.607 1.155-.787a4.03 4.03 0 0 1 1.53-.278zm0 6.705c.72 0 1.258-.243 1.613-.728s.532-1.167.532-2.047c0-.88-.177-1.563-.532-2.047-.355-.49-.893-.736-1.613-.736-.73 0-1.275.245-1.635.735-.355.485-.532 1.168-.532 2.048 0 .88.177 1.563.532 2.047.36.485.905.728 1.635.728zm7.205-.84c.24.315.498.535.773.66.28.125.592.188.937.188.67 0 1.188-.24 1.553-.72.37-.486.555-1.19.555-2.115 0-.485-.043-.898-.128-1.238-.08-.345-.2-.625-.36-.84a1.365 1.365 0 0 0-.577-.48 1.858 1.858 0 0 0-.78-.157c-.425 0-.795.095-1.11.285-.31.19-.598.46-.863.81v3.607zm-.075-4.605c.16-.19.33-.363.51-.517.185-.16.383-.296.593-.405a2.85 2.85 0 0 1 .667-.263c.24-.065.495-.098.765-.098.435 0 .828.086 1.178.256.355.17.657.42.907.75s.443.737.578 1.222c.14.485.21 1.042.21 1.672 0 .566-.078 1.09-.233 1.575-.15.48-.367.898-.652 1.253-.28.355-.625.635-1.035.84-.405.2-.863.3-1.373.3-.455 0-.845-.075-1.17-.225a2.808 2.808 0 0 1-.87-.63v3.307h-1.462V30.38h.877c.205 0 .333.098.383.293l.127.847zm10.733-1.26c.56 0 1.065.092 1.515.277.455.18.84.443 1.155.788.32.34.565.753.735 1.238.17.48.255 1.02.255 1.62 0 .6-.085 1.142-.255 1.627-.17.485-.415.898-.735 1.237-.315.34-.7.603-1.155.788-.45.18-.955.27-1.515.27-.565 0-1.075-.09-1.53-.27a3.273 3.273 0 0 1-1.155-.788 3.524 3.524 0 0 1-.742-1.237 4.897 4.897 0 0 1-.255-1.628c0-.6.085-1.14.255-1.62.175-.484.422-.897.742-1.237.32-.345.705-.607 1.155-.787a4.03 4.03 0 0 1 1.53-.278zm0 6.705c.72 0 1.258-.243 1.613-.728s.532-1.167.532-2.047c0-.88-.177-1.563-.532-2.047-.355-.49-.893-.736-1.613-.736-.73 0-1.275.245-1.635.735-.355.485-.532 1.168-.532 2.048 0 .88.177 1.563.532 2.047.36.485.905.728 1.635.728zm10.684-.03v-5.408h-2.28c-.05.74-.118 1.4-.203 1.98-.085.58-.185 1.09-.3 1.53a7.63 7.63 0 0 1-.367 1.126c-.135.31-.278.567-.428.772h3.578zm2.812-.045v3.263c0 .14-.04.25-.12.33a.392.392 0 0 1-.3.12h-.907V38h-6.225v2.182c0 .11-.033.208-.098.293-.065.085-.167.127-.307.127h-.93v-3.667h.247c.175 0 .348-.028.518-.083.17-.054.332-.164.487-.33.16-.164.31-.397.45-.697.14-.3.268-.693.383-1.178.115-.484.215-1.075.3-1.77.085-.7.152-1.532.202-2.497h4.905v6.51h1.395zm6.972-5.085a.86.86 0 0 1-.135.135c-.04.03-.1.045-.18.045a.465.465 0 0 1-.255-.09 2.27 2.27 0 0 0-.33-.203 2.43 2.43 0 0 0-.48-.202 2.103 2.103 0 0 0-.69-.098c-.36 0-.677.066-.952.195-.275.13-.505.316-.69.555-.18.24-.318.533-.413.878a4.38 4.38 0 0 0-.142 1.162c0 .445.05.843.15 1.193.1.345.242.638.427.877.185.235.41.415.675.54.265.12.56.18.885.18.315 0 .575-.037.78-.112.205-.08.375-.165.51-.255s.248-.172.338-.247c.09-.08.182-.12.277-.12.12 0 .213.044.278.135l.42.54a2.788 2.788 0 0 1-.593.547c-.215.15-.445.273-.69.367a3.903 3.903 0 0 1-.772.21 4.83 4.83 0 0 1-.81.068 3.4 3.4 0 0 1-1.335-.262 3.063 3.063 0 0 1-1.073-.766 3.702 3.702 0 0 1-.712-1.23c-.175-.49-.263-1.044-.263-1.665 0-.565.078-1.087.233-1.567.16-.48.392-.893.697-1.238.31-.35.69-.622 1.14-.817.45-.2.965-.3 1.545-.3.545 0 1.025.087 1.44.262.415.176.785.423 1.11.743l-.39.54zm6.893-1.027a.911.911 0 0 1 .3-.285.759.759 0 0 1 .397-.113h1.148l-1.928 2.88a2.3 2.3 0 0 1-.375.465c-.13.12-.29.212-.48.277.24.07.443.175.608.316.165.135.312.312.442.532l1.943 3.15h-1.013c-.265 0-.47-.042-.615-.127-.14-.09-.26-.218-.36-.383l-1.395-2.303a1.149 1.149 0 0 0-.435-.427 1.192 1.192 0 0 0-.592-.142h-.788v3.39h-1.462V30.38h1.462v3.255h.69c.21 0 .388-.042.533-.127.15-.086.277-.21.382-.376l1.538-2.354zm10.326-.398V38h-1.47v-4.98a4.79 4.79 0 0 1 .06-.705c-.05.105-.1.205-.15.3a1.79 1.79 0 0 1-.142.24l-3.503 4.778c-.055.09-.127.174-.217.255a.451.451 0 0 1-.308.12h-.885V30.38h1.463v4.988a4.272 4.272 0 0 1-.06.697c.1-.22.197-.398.292-.532l3.503-4.786c.055-.084.127-.167.217-.247.095-.08.2-.12.315-.12h.885zm7.54 2.963c0-.29-.043-.558-.128-.803-.08-.245-.2-.457-.36-.637-.16-.18-.355-.32-.585-.42-.23-.1-.495-.15-.795-.15-.615 0-1.1.177-1.455.532-.35.355-.572.848-.667 1.478h3.99zm1.207 3.57c-.18.21-.387.392-.622.547-.235.15-.485.273-.75.367-.265.096-.54.166-.825.21-.28.046-.558.068-.833.068a3.998 3.998 0 0 1-1.462-.262 3.356 3.356 0 0 1-1.163-.78 3.676 3.676 0 0 1-.765-1.276c-.18-.51-.27-1.094-.27-1.755 0-.53.083-1.022.248-1.477.165-.46.4-.86.705-1.2.31-.34.687-.608 1.132-.803a3.7 3.7 0 0 1 1.5-.292c.465 0 .893.077 1.283.232.395.15.735.37 1.02.66.285.29.507.648.667 1.073.165.425.248.91.248 1.455 0 .225-.025.377-.075.458-.05.075-.143.112-.278.112h-4.995c.015.455.08.852.195 1.193.115.335.273.614.473.84.205.224.447.392.727.502.28.11.593.165.938.165.325 0 .605-.038.84-.113.24-.075.445-.155.615-.24.175-.09.32-.172.435-.247a.619.619 0 0 1 .315-.113c.12 0 .212.045.277.136l.42.54zm11.719-5.108a.86.86 0 0 1-.135.135c-.04.03-.1.045-.18.045a.465.465 0 0 1-.255-.09 2.27 2.27 0 0 0-.33-.203 2.43 2.43 0 0 0-.48-.202 2.103 2.103 0 0 0-.69-.098c-.36 0-.678.066-.953.195-.275.13-.505.316-.69.555-.18.24-.317.533-.412.878a4.38 4.38 0 0 0-.143 1.162c0 .445.05.843.15 1.193.1.345.243.638.428.877.185.235.41.415.675.54.265.12.56.18.885.18.315 0 .575-.037.78-.112.205-.08.375-.165.51-.255s.247-.172.337-.247c.09-.08.183-.12.278-.12.12 0 .212.044.277.135l.42.54a2.783 2.783 0 0 1-.592.547c-.215.15-.445.273-.69.367a3.912 3.912 0 0 1-.773.21 4.83 4.83 0 0 1-.81.068 3.4 3.4 0 0 1-1.335-.262 3.059 3.059 0 0 1-1.072-.766 3.704 3.704 0 0 1-.713-1.23c-.175-.49-.262-1.044-.262-1.665 0-.565.077-1.087.232-1.567.16-.48.393-.893.698-1.238.31-.35.69-.622 1.14-.817.45-.2.965-.3 1.545-.3.545 0 1.025.087 1.44.262.415.176.785.423 1.11.743l-.39.54zm7.203 1.538c0-.29-.042-.558-.127-.803-.08-.245-.2-.457-.36-.637-.16-.18-.355-.32-.585-.42-.23-.1-.495-.15-.795-.15-.615 0-1.1.177-1.455.532-.35.355-.573.848-.668 1.478h3.99zm1.208 3.57c-.18.21-.388.392-.623.547-.235.15-.485.273-.75.367-.265.096-.54.166-.825.21-.28.046-.557.068-.832.068a4.003 4.003 0 0 1-1.463-.262 3.352 3.352 0 0 1-1.162-.78 3.676 3.676 0 0 1-.765-1.276c-.18-.51-.27-1.094-.27-1.755 0-.53.082-1.022.247-1.477.165-.46.4-.86.705-1.2.31-.34.688-.608 1.133-.803a3.7 3.7 0 0 1 1.5-.292c.465 0 .892.077 1.282.232.395.15.735.37 1.02.66.285.29.508.648.668 1.073.165.425.247.91.247 1.455 0 .225-.025.377-.075.458-.05.075-.142.112-.277.112h-4.995c.015.455.08.852.195 1.193.115.335.272.614.472.84.205.224.448.392.728.502.28.11.592.165.937.165.325 0 .605-.038.84-.113.24-.075.445-.155.615-.24.175-.09.32-.172.435-.247a.619.619 0 0 1 .315-.113c.12 0 .213.045.278.136l.42.54zm3.597-.788c.24.315.497.535.772.66.28.125.593.188.938.188.67 0 1.187-.24 1.552-.72.37-.486.555-1.19.555-2.115 0-.485-.042-.898-.127-1.238-.08-.345-.2-.625-.36-.84a1.368 1.368 0 0 0-.578-.48 1.858 1.858 0 0 0-.78-.157c-.425 0-.795.095-1.11.285-.31.19-.597.46-.862.81v3.607zm-.075-4.605c.16-.19.33-.363.51-.517.185-.16.382-.296.592-.405.21-.115.433-.203.668-.263.24-.065.495-.098.765-.098.435 0 .827.086 1.177.256.355.17.658.42.908.75s.442.737.577 1.222c.14.485.21 1.042.21 1.672 0 .566-.077 1.09-.232 1.575-.15.48-.368.898-.653 1.253-.28.355-.625.635-1.035.84-.405.2-.862.3-1.372.3-.455 0-.845-.075-1.17-.225a2.808 2.808 0 0 1-.87-.63v3.307h-1.463V30.38h.878c.205 0 .332.098.382.293l.128.847zm10.455 5.452c.47 0 .842-.11 1.117-.33.275-.225.413-.527.413-.907 0-.165-.025-.318-.075-.457a.868.868 0 0 0-.255-.375 1.204 1.204 0 0 0-.473-.24 2.478 2.478 0 0 0-.72-.09h-1.582v2.4h1.575zm-1.575-5.617v2.287h1.402c.21 0 .403-.03.578-.09.18-.06.332-.142.457-.247.13-.11.23-.24.3-.39.075-.155.113-.322.113-.502a1.04 1.04 0 0 0-.075-.39.812.812 0 0 0-.24-.338c-.11-.1-.258-.18-.443-.24a2.265 2.265 0 0 0-.69-.09h-1.402zm1.447-.975c.47 0 .875.047 1.215.143.34.09.62.217.84.382.22.165.38.357.48.578.105.22.158.457.158.712 0 .165-.023.337-.068.517a1.65 1.65 0 0 1-.232.518c-.11.16-.26.308-.45.443a2.09 2.09 0 0 1-.713.314c.56.1.995.3 1.305.6.315.3.473.698.473 1.193 0 .375-.078.703-.233.983-.15.275-.355.505-.615.69-.26.184-.565.322-.915.412-.35.09-.72.135-1.11.135h-2.977v-7.62h2.842zm11.694 0V38h-1.47v-4.98a4.79 4.79 0 0 1 .06-.705c-.05.105-.1.205-.15.3a1.79 1.79 0 0 1-.143.24l-3.502 4.778c-.055.09-.128.174-.218.255a.449.449 0 0 1-.307.12h-.885V30.38h1.462v4.988a4.272 4.272 0 0 1-.06.697c.1-.22.198-.398.293-.532l3.502-4.786a1.23 1.23 0 0 1 .218-.247c.095-.08.2-.12.315-.12h.885zm7.832 1.425a.86.86 0 0 1-.135.135c-.04.03-.1.045-.18.045a.465.465 0 0 1-.255-.09 2.27 2.27 0 0 0-.33-.203 2.43 2.43 0 0 0-.48-.202 2.103 2.103 0 0 0-.69-.098c-.36 0-.678.066-.953.195-.275.13-.505.316-.69.555-.18.24-.317.533-.412.878a4.38 4.38 0 0 0-.143 1.162c0 .445.05.843.15 1.193.1.345.243.638.428.877.185.235.41.415.675.54.265.12.56.18.885.18.315 0 .575-.037.78-.112.205-.08.375-.165.51-.255s.247-.172.337-.247c.09-.08.183-.12.278-.12.12 0 .212.044.277.135l.42.54a2.783 2.783 0 0 1-.592.547c-.215.15-.445.273-.69.367a3.912 3.912 0 0 1-.773.21 4.83 4.83 0 0 1-.81.068 3.4 3.4 0 0 1-1.335-.262 3.059 3.059 0 0 1-1.072-.766 3.704 3.704 0 0 1-.713-1.23c-.175-.49-.262-1.044-.262-1.665 0-.565.077-1.087.232-1.567.16-.48.393-.893.698-1.238.31-.35.69-.622 1.14-.817.45-.2.965-.3 1.545-.3.545 0 1.025.087 1.44.262.415.176.785.423 1.11.743l-.39.54zm5.258 5.123c.5 0 .875-.12 1.125-.36.25-.245.375-.555.375-.93 0-.17-.028-.33-.083-.48a.97.97 0 0 0-.262-.398 1.238 1.238 0 0 0-.473-.27 2.054 2.054 0 0 0-.705-.105h-1.552v2.543h1.575zm-.023-3.608c.525 0 .968.065 1.328.195.365.125.657.295.877.51.22.21.378.455.473.735.1.275.15.563.15.863 0 .345-.063.665-.188.96-.12.29-.3.54-.54.75-.24.21-.535.375-.885.495a3.766 3.766 0 0 1-1.192.172h-2.97v-7.62h1.395v2.94h1.552zm5.895-2.94V38h-1.462v-7.62h1.462zM561.148 119.23V130h-1.598v-7.41c0-.225.005-.46.015-.705.01-.25.035-.51.075-.78-.095.24-.192.462-.292.667-.1.206-.2.388-.3.548l-4.815 7.177c-.075.125-.175.24-.3.345a.61.61 0 0 1-.413.158h-1.192v-10.77h1.605v7.41c0 .225-.008.462-.023.712a9.14 9.14 0 0 1-.067.78 7.64 7.64 0 0 1 .585-1.222l4.822-7.178c.075-.125.173-.24.293-.345a.607.607 0 0 1 .412-.157h1.193zm9.117 3.15V130h-1.47v-3.51h-3.488V130h-1.462v-7.62h1.462v3h3.488v-3h1.47zm7.701 6.555v-5.408h-2.28c-.05.74-.117 1.4-.202 1.98-.085.58-.185 1.09-.3 1.53-.11.435-.233.81-.368 1.125a4.06 4.06 0 0 1-.427.773h3.577zm2.813-.045v3.263c0 .14-.04.25-.12.33a.392.392 0 0 1-.3.12h-.908V130h-6.225v2.183c0 .11-.032.207-.097.292-.065.085-.168.128-.308.128h-.93v-3.668h.248c.175 0 .347-.028.517-.083.17-.055.333-.165.488-.33.16-.165.31-.397.45-.697.14-.3.267-.693.382-1.178.115-.485.215-1.075.3-1.77.085-.7.153-1.532.203-2.497h4.905v6.51h1.395zm8.379-6.51V130h-1.47v-4.98a4.79 4.79 0 0 1 .06-.705c-.05.105-.1.205-.15.3a1.79 1.79 0 0 1-.143.24l-3.502 4.777c-.055.09-.128.175-.218.255a.45.45 0 0 1-.307.121h-.885v-7.628h1.462v4.987a4.284 4.284 0 0 1-.06.698c.1-.22.198-.398.293-.533l3.502-4.785c.055-.085.128-.167.218-.247.095-.08.2-.12.315-.12h.885zm7.097.397a.911.911 0 0 1 .3-.285.758.758 0 0 1 .397-.112h1.148l-1.928 2.88a2.3 2.3 0 0 1-.375.465c-.13.12-.29.212-.48.277.24.07.443.175.608.315.165.135.312.313.442.533l1.943 3.15h-1.013c-.265 0-.47-.043-.615-.128-.14-.09-.26-.217-.36-.382l-1.395-2.303a1.147 1.147 0 0 0-.435-.427 1.193 1.193 0 0 0-.592-.143h-.788v3.391h-1.462v-7.628h1.462v3.255h.69c.21 0 .388-.043.533-.128.15-.085.277-.21.382-.375l1.538-2.355zm7.806 3.84c-.595.02-1.1.068-1.515.143-.415.07-.753.165-1.013.285-.26.12-.447.262-.562.427a.903.903 0 0 0-.173.54c0 .19.03.355.09.495.065.135.15.248.255.338.11.085.238.147.383.187.145.04.302.06.472.06a2.605 2.605 0 0 0 1.148-.255c.165-.085.322-.187.472-.307.15-.12.298-.258.443-.413v-1.5zm-4.29-3.172a4.374 4.374 0 0 1 1.38-.908c.5-.2 1.047-.3 1.642-.3.435 0 .82.073 1.155.218.335.14.618.337.848.592.23.255.402.56.517.915.12.355.18.748.18 1.178V130h-.652a.65.65 0 0 1-.33-.068.513.513 0 0 1-.18-.27l-.158-.667c-.195.18-.387.34-.577.48a4.01 4.01 0 0 1-.6.352 3.098 3.098 0 0 1-.66.218c-.235.05-.495.075-.78.075-.3 0-.583-.04-.848-.12a1.944 1.944 0 0 1-.682-.383 1.828 1.828 0 0 1-.465-.637 2.241 2.241 0 0 1-.165-.893c0-.3.08-.587.24-.862.165-.28.43-.53.795-.75.37-.22.85-.4 1.44-.54.595-.14 1.325-.22 2.19-.24v-.555c0-.575-.123-1.005-.368-1.29-.245-.285-.605-.428-1.08-.428-.32 0-.59.04-.81.12-.215.08-.402.17-.562.27-.155.095-.293.183-.413.263a.621.621 0 0 1-.36.12.43.43 0 0 1-.262-.083.714.714 0 0 1-.173-.195l-.262-.472zm14.337.045h-2.872V130h-1.47v-6.51h-2.873v-1.11h7.215v1.11zm4.639-1.23c.56 0 1.065.092 1.515.277.455.18.84.443 1.155.788.32.34.565.752.735 1.237.17.48.255 1.02.255 1.62a4.9 4.9 0 0 1-.255 1.628c-.17.485-.415.897-.735 1.237-.315.34-.7.603-1.155.788-.45.18-.955.27-1.515.27-.565 0-1.075-.09-1.53-.27a3.275 3.275 0 0 1-1.155-.788 3.522 3.522 0 0 1-.742-1.237 4.9 4.9 0 0 1-.255-1.628c0-.6.085-1.14.255-1.62.175-.485.422-.897.742-1.237.32-.345.705-.608 1.155-.788a4.03 4.03 0 0 1 1.53-.277zm0 6.705c.72 0 1.258-.243 1.613-.728s.532-1.167.532-2.047c0-.88-.177-1.563-.532-2.048-.355-.49-.893-.735-1.613-.735-.73 0-1.275.245-1.635.735-.355.485-.532 1.168-.532 2.048 0 .88.177 1.562.532 2.047.36.485.905.728 1.635.728zm7.205-.84c.24.315.498.535.773.66.28.125.592.187.937.187.67 0 1.188-.24 1.553-.72.37-.485.555-1.19.555-2.115 0-.485-.043-.897-.128-1.237-.08-.345-.2-.625-.36-.84a1.365 1.365 0 0 0-.577-.48 1.858 1.858 0 0 0-.78-.158c-.425 0-.795.095-1.11.285-.31.19-.598.46-.863.81v3.608zm-.075-4.605c.16-.19.33-.363.51-.518.185-.16.383-.295.593-.405.21-.115.432-.202.667-.262.24-.065.495-.098.765-.098.435 0 .828.085 1.178.255.355.17.657.42.907.75s.443.738.578 1.223c.14.485.21 1.042.21 1.672 0 .565-.078 1.09-.233 1.575-.15.48-.367.898-.652 1.253-.28.355-.625.635-1.035.84-.405.2-.863.3-1.373.3-.455 0-.845-.075-1.17-.225a2.808 2.808 0 0 1-.87-.63v3.308h-1.462V122.38h.877c.205 0 .333.097.383.292l.127.848zm10.456 5.407c.5 0 .875-.12 1.125-.36.25-.245.375-.555.375-.93 0-.17-.028-.33-.083-.48a.969.969 0 0 0-.262-.397 1.238 1.238 0 0 0-.473-.27 2.054 2.054 0 0 0-.705-.105h-1.552v2.542h1.575zm-.023-3.607c.525 0 .968.065 1.328.195.365.125.657.295.877.51.22.21.378.455.473.735.1.275.15.562.15.862 0 .345-.063.665-.188.96-.12.29-.3.54-.54.75-.24.21-.535.375-.885.495a3.765 3.765 0 0 1-1.192.173h-2.97v-7.62h1.395v2.94h1.552zm5.895-2.94V130h-1.462v-7.62h1.462zM588.555 203.482a5.04 5.04 0 0 1 1.545-.997c.595-.25 1.278-.375 2.048-.375.78 0 1.492.135 2.137.405a4.88 4.88 0 0 1 1.673 1.132 5.068 5.068 0 0 1 1.08 1.74c.26.675.39 1.418.39 2.228 0 .81-.123 1.552-.368 2.227a4.971 4.971 0 0 1-1.035 1.74c-.45.485-.992.863-1.627 1.133-.63.27-1.335.405-2.115.405-.89 0-1.653-.142-2.288-.428a4.508 4.508 0 0 1-1.605-1.207l.63-.69a.308.308 0 0 1 .375-.068.51.51 0 0 1 .128.083c.18.165.362.307.547.427.185.115.383.21.593.285.21.075.437.133.682.173.25.035.53.052.84.052.47 0 .913-.08 1.328-.24a3.343 3.343 0 0 0 1.102-.712c.32-.31.58-.688.78-1.133.205-.45.333-.962.383-1.537h-5.325v-1.208h5.31a4.434 4.434 0 0 0-.398-1.447 3.413 3.413 0 0 0-.772-1.073 3.245 3.245 0 0 0-1.095-.675 3.77 3.77 0 0 0-1.343-.232c-.455 0-.835.047-1.14.142a3.9 3.9 0 0 0-.772.323c-.205.115-.373.22-.503.315-.125.095-.235.142-.33.142a.346.346 0 0 1-.202-.052.473.473 0 0 1-.128-.135l-.525-.743zm15.488 2.295a.911.911 0 0 1 .3-.285.761.761 0 0 1 .398-.112h1.147l-1.927 2.88a2.3 2.3 0 0 1-.375.465c-.13.12-.29.212-.48.277.24.07.442.175.607.315.165.135.313.313.443.533l1.942 3.15h-1.012c-.265 0-.47-.043-.615-.128-.14-.09-.26-.217-.36-.382l-1.395-2.303a1.147 1.147 0 0 0-.435-.427 1.197 1.197 0 0 0-.593-.143h-.787v3.391h-1.463v-7.628h1.463v3.255h.69c.21 0 .387-.043.532-.128.15-.085.278-.21.383-.375l1.537-2.355zm6.666-.517c.56 0 1.065.092 1.515.277.455.18.84.443 1.155.788.32.34.565.752.735 1.237.17.48.255 1.02.255 1.62a4.9 4.9 0 0 1-.255 1.628c-.17.485-.415.897-.735 1.237-.315.34-.7.603-1.155.788-.45.18-.955.27-1.515.27-.565 0-1.075-.09-1.53-.27a3.275 3.275 0 0 1-1.155-.788 3.522 3.522 0 0 1-.742-1.237 4.9 4.9 0 0 1-.255-1.628c0-.6.085-1.14.255-1.62.175-.485.422-.897.742-1.237.32-.345.705-.608 1.155-.788a4.03 4.03 0 0 1 1.53-.277zm0 6.705c.72 0 1.258-.243 1.613-.728s.532-1.167.532-2.047c0-.88-.177-1.563-.532-2.048-.355-.49-.893-.735-1.613-.735-.73 0-1.275.245-1.635.735-.355.485-.532 1.168-.532 2.048 0 .88.177 1.562.532 2.047.36.485.905.728 1.635.728zm12.163-6.585V213h-1.47v-3.51h-3.488V213h-1.462v-7.62h1.462v3h3.488v-3h1.47zm5.744-.12c.56 0 1.065.092 1.515.277.455.18.84.443 1.155.788.32.34.565.752.735 1.237.17.48.255 1.02.255 1.62a4.9 4.9 0 0 1-.255 1.628c-.17.485-.415.897-.735 1.237-.315.34-.7.603-1.155.788-.45.18-.955.27-1.515.27-.565 0-1.075-.09-1.53-.27a3.275 3.275 0 0 1-1.155-.788 3.522 3.522 0 0 1-.742-1.237 4.9 4.9 0 0 1-.255-1.628c0-.6.085-1.14.255-1.62.175-.485.422-.897.742-1.237.32-.345.705-.608 1.155-.788a4.03 4.03 0 0 1 1.53-.277zm0 6.705c.72 0 1.258-.243 1.613-.728s.532-1.167.532-2.047c0-.88-.177-1.563-.532-2.048-.355-.49-.893-.735-1.613-.735-.73 0-1.275.245-1.635.735-.355.485-.532 1.168-.532 2.048 0 .88.177 1.562.532 2.047.36.485.905.728 1.635.728zm14.315-6.608V213h-1.32v-4.845a4.835 4.835 0 0 1 .105-1.035l-2.55 4.515a.57.57 0 0 1-.172.202.45.45 0 0 1-.248.068h-.165a.47.47 0 0 1-.247-.068.572.572 0 0 1-.173-.202l-2.587-4.53a6.495 6.495 0 0 1 .105 1.05V213h-1.32v-7.643h1.185c.1 0 .2.023.3.068.1.045.185.132.255.262l2.227 3.765c.065.12.125.248.18.383.055.135.108.27.158.405l.15-.405a3.87 3.87 0 0 1 .18-.383l2.197-3.765c.07-.135.155-.222.255-.262.1-.045.2-.068.3-.068h1.185zm9.113.023V213h-1.47v-4.98a4.79 4.79 0 0 1 .06-.705c-.05.105-.1.205-.15.3a1.79 1.79 0 0 1-.143.24l-3.502 4.777c-.055.09-.128.175-.218.255a.45.45 0 0 1-.307.121h-.885v-7.628h1.462v4.987a4.284 4.284 0 0 1-.06.698c.1-.22.198-.398.293-.533l3.502-4.785c.055-.085.128-.167.218-.247.095-.08.2-.12.315-.12h.885zm7.097.397a.911.911 0 0 1 .3-.285.758.758 0 0 1 .397-.112h1.148l-1.928 2.88a2.3 2.3 0 0 1-.375.465c-.13.12-.29.212-.48.277.24.07.443.175.608.315.165.135.312.313.442.533l1.943 3.15h-1.013c-.265 0-.47-.043-.615-.128-.14-.09-.26-.217-.36-.382l-1.395-2.303a1.147 1.147 0 0 0-.435-.427 1.193 1.193 0 0 0-.592-.143h-.788v3.391h-1.462v-7.628h1.462v3.255h.69c.21 0 .388-.043.533-.128.15-.085.277-.21.382-.375l1.538-2.355zm7.806 3.84c-.595.02-1.1.068-1.515.143-.415.07-.752.165-1.012.285-.26.12-.448.262-.563.427a.902.902 0 0 0-.172.54c0 .19.03.355.09.495.065.135.15.248.255.338.11.085.237.147.382.187.145.04.303.06.473.06a2.605 2.605 0 0 0 1.147-.255c.165-.085.323-.187.473-.307.15-.12.297-.258.442-.413v-1.5zm-4.29-3.172a4.374 4.374 0 0 1 1.38-.908c.5-.2 1.048-.3 1.643-.3.435 0 .82.073 1.155.218.335.14.617.337.847.592.23.255.403.56.518.915.12.355.18.748.18 1.178V213h-.653a.65.65 0 0 1-.33-.068.513.513 0 0 1-.18-.27l-.157-.667c-.195.18-.388.34-.578.48a4.01 4.01 0 0 1-.6.352 3.098 3.098 0 0 1-.66.218c-.235.05-.495.075-.78.075-.3 0-.582-.04-.847-.12a1.949 1.949 0 0 1-.683-.383 1.828 1.828 0 0 1-.465-.637 2.241 2.241 0 0 1-.165-.893c0-.3.08-.587.24-.862.165-.28.43-.53.795-.75.37-.22.85-.4 1.44-.54.595-.14 1.325-.22 2.19-.24v-.555c0-.575-.122-1.005-.367-1.29-.245-.285-.605-.428-1.08-.428-.32 0-.59.04-.81.12-.215.08-.403.17-.563.27-.155.095-.292.183-.412.263a.621.621 0 0 1-.36.12.434.434 0 0 1-.263-.083.71.71 0 0 1-.172-.195l-.263-.472zM580.928 310.732c.405 0 .75-.045 1.035-.135a1.89 1.89 0 0 0 .697-.375c.18-.165.31-.36.39-.585.085-.225.128-.472.128-.742 0-.285-.043-.54-.128-.765a1.326 1.326 0 0 0-.39-.57 1.729 1.729 0 0 0-.69-.353 3.658 3.658 0 0 0-1.035-.127h-2.01v3.652h2.003zm.007-4.92c.665 0 1.238.075 1.718.225.48.145.875.348 1.185.608.315.26.545.57.69.93.15.355.225.742.225 1.162 0 .495-.085.945-.255 1.35-.17.4-.42.743-.751 1.028a3.375 3.375 0 0 1-1.199.66 5.375 5.375 0 0 1-1.62.225h-3.6v-10.77h7.05v1.252h-5.453v3.33h2.01zm10.892 1.53c0-.29-.043-.557-.128-.802-.08-.245-.2-.458-.36-.638-.16-.18-.355-.32-.585-.42-.23-.1-.495-.15-.795-.15-.615 0-1.1.178-1.455.533-.35.355-.572.847-.667 1.477h3.99zm1.207 3.57c-.18.21-.387.393-.622.548-.235.15-.485.272-.75.367a4.62 4.62 0 0 1-.825.211c-.28.045-.558.067-.833.067a3.998 3.998 0 0 1-1.462-.263 3.356 3.356 0 0 1-1.163-.78 3.676 3.676 0 0 1-.765-1.275c-.18-.51-.27-1.095-.27-1.755a4.3 4.3 0 0 1 .248-1.477c.165-.46.4-.86.705-1.2.31-.34.687-.608 1.132-.803a3.7 3.7 0 0 1 1.5-.292c.465 0 .893.077 1.283.232.395.15.735.37 1.02.66.285.29.507.648.667 1.073.165.425.248.91.248 1.455 0 .225-.025.377-.075.457-.05.075-.143.113-.278.113h-4.995c.015.455.08.852.195 1.192.115.335.273.615.473.84.205.225.447.393.727.503.28.11.593.165.938.165.325 0 .605-.038.84-.113.24-.075.445-.155.615-.24.175-.09.32-.172.435-.247a.62.62 0 0 1 .315-.113c.12 0 .212.045.277.135l.42.54zm1.655-5.737c.285-.27.635-.49 1.05-.66.415-.17.912-.255 1.492-.255.465 0 .875.057 1.23.172.355.11.653.26.893.45.245.185.427.398.547.638.125.24.188.49.188.75 0 .15-.025.307-.075.472-.045.16-.12.315-.225.465-.105.15-.245.29-.42.42-.17.125-.383.23-.638.315.47.145.843.375 1.118.69.275.315.412.708.412 1.178 0 .355-.082.675-.247.96-.16.285-.378.527-.653.727a3.16 3.16 0 0 1-.952.45c-.36.106-.735.158-1.125.158a4.099 4.099 0 0 1-1.485-.278 3.448 3.448 0 0 1-.698-.367 2.786 2.786 0 0 1-.592-.548l.42-.54a.321.321 0 0 1 .277-.135c.095 0 .193.04.293.12.105.075.23.158.375.248.15.09.327.175.532.255.21.075.47.112.78.112.265 0 .5-.032.705-.097a1.53 1.53 0 0 0 .525-.27c.145-.115.255-.25.33-.405.075-.155.113-.325.113-.51 0-.36-.148-.648-.443-.863-.295-.215-.75-.322-1.365-.322h-.862v-.975h.862c.54 0 .96-.1 1.26-.3.3-.205.45-.468.45-.788a.847.847 0 0 0-.097-.397.914.914 0 0 0-.3-.338c-.13-.1-.295-.177-.495-.232a2.529 2.529 0 0 0-.683-.083c-.29 0-.535.03-.735.09-.2.055-.37.118-.51.188s-.257.135-.352.195a.468.468 0 0 1-.233.082.399.399 0 0 1-.18-.037.604.604 0 0 1-.15-.173l-.337-.562zm10.915-.915c.56 0 1.065.092 1.515.277.455.18.84.443 1.155.788.32.34.565.752.735 1.237.17.48.255 1.02.255 1.62a4.9 4.9 0 0 1-.255 1.628c-.17.485-.415.897-.735 1.237-.315.34-.7.603-1.155.788-.45.18-.955.27-1.515.27-.565 0-1.075-.09-1.53-.27a3.275 3.275 0 0 1-1.155-.788 3.522 3.522 0 0 1-.742-1.237 4.9 4.9 0 0 1-.255-1.628c0-.6.085-1.14.255-1.62.175-.485.422-.897.742-1.237.32-.345.705-.608 1.155-.788a4.03 4.03 0 0 1 1.53-.277zm0 6.705c.72 0 1.258-.243 1.613-.728s.532-1.167.532-2.047c0-.88-.177-1.563-.532-2.048-.355-.49-.893-.735-1.613-.735-.73 0-1.275.245-1.635.735-.355.485-.532 1.168-.532 2.048 0 .88.177 1.562.532 2.047.36.485.905.728 1.635.728zM617.767 312h-1.47v-6.51h-3.487V312h-1.463v-7.62h6.42V312zm6.592-3.383c-.595.02-1.1.068-1.515.143-.415.07-.753.165-1.013.285-.26.12-.447.262-.562.427a.903.903 0 0 0-.173.54c0 .19.03.355.09.495.065.135.15.248.255.338.11.085.238.147.383.187.145.04.302.06.472.06a2.605 2.605 0 0 0 1.148-.255c.165-.085.322-.187.472-.307.15-.12.298-.258.443-.413v-1.5zm-4.29-3.172a4.374 4.374 0 0 1 1.38-.908c.5-.2 1.047-.3 1.642-.3.435 0 .82.073 1.155.218.335.14.618.337.848.592.23.255.402.56.517.915.12.355.18.748.18 1.178V312h-.652a.65.65 0 0 1-.33-.068.513.513 0 0 1-.18-.27l-.158-.667c-.195.18-.387.34-.577.48a4.01 4.01 0 0 1-.6.352 3.098 3.098 0 0 1-.66.218c-.235.05-.495.075-.78.075-.3 0-.583-.04-.848-.12a1.944 1.944 0 0 1-.682-.383 1.828 1.828 0 0 1-.465-.637 2.241 2.241 0 0 1-.165-.893c0-.3.08-.587.24-.862.165-.28.43-.53.795-.75.37-.22.85-.4 1.44-.54.595-.14 1.325-.22 2.19-.24v-.555c0-.575-.123-1.005-.368-1.29-.245-.285-.605-.428-1.08-.428-.32 0-.59.04-.81.12-.215.08-.402.17-.562.27-.155.095-.293.183-.413.263a.621.621 0 0 1-.36.12.43.43 0 0 1-.262-.083.714.714 0 0 1-.173-.195l-.262-.472zm13.47.36a.86.86 0 0 1-.135.135c-.04.03-.1.045-.18.045a.465.465 0 0 1-.255-.09 2.267 2.267 0 0 0-.33-.203 2.431 2.431 0 0 0-.48-.202 2.101 2.101 0 0 0-.69-.098c-.36 0-.677.065-.952.195-.275.13-.505.315-.69.555-.18.24-.318.533-.413.878a4.377 4.377 0 0 0-.142 1.162c0 .445.05.843.15 1.193.1.345.242.637.427.877.185.235.41.415.675.54.265.12.56.18.885.18.315 0 .575-.037.78-.112.205-.08.375-.165.51-.255a4.01 4.01 0 0 0 .338-.248c.09-.08.182-.12.277-.12.12 0 .213.045.278.135l.42.54a2.79 2.79 0 0 1-.593.548c-.215.15-.445.272-.69.367a3.974 3.974 0 0 1-.772.211 4.83 4.83 0 0 1-.81.067 3.4 3.4 0 0 1-1.335-.263 3.063 3.063 0 0 1-1.073-.765 3.702 3.702 0 0 1-.712-1.23c-.175-.49-.263-1.045-.263-1.665 0-.565.078-1.087.233-1.567.16-.48.392-.893.697-1.238.31-.35.69-.622 1.14-.817.45-.2.965-.3 1.545-.3.545 0 1.025.087 1.44.262.415.175.785.423 1.11.743l-.39.54zm8.708-1.425V312h-1.47v-3.51h-3.488V312h-1.462v-7.62h1.462v3h3.488v-3h1.47zm5.744-.12c.56 0 1.065.092 1.515.277.455.18.84.443 1.155.788.32.34.565.752.735 1.237.17.48.255 1.02.255 1.62a4.9 4.9 0 0 1-.255 1.628c-.17.485-.415.897-.735 1.237-.315.34-.7.603-1.155.788-.45.18-.955.27-1.515.27-.565 0-1.075-.09-1.53-.27a3.275 3.275 0 0 1-1.155-.788 3.522 3.522 0 0 1-.742-1.237 4.9 4.9 0 0 1-.255-1.628c0-.6.085-1.14.255-1.62.175-.485.422-.897.742-1.237.32-.345.705-.608 1.155-.788a4.03 4.03 0 0 1 1.53-.277zm0 6.705c.72 0 1.258-.243 1.613-.728s.532-1.167.532-2.047c0-.88-.177-1.563-.532-2.048-.355-.49-.893-.735-1.613-.735-.73 0-1.275.245-1.635.735-.355.485-.532 1.168-.532 2.048 0 .88.177 1.562.532 2.047.36.485.905.728 1.635.728zm11.083-5.16a.86.86 0 0 1-.135.135c-.04.03-.1.045-.18.045a.465.465 0 0 1-.255-.09 2.267 2.267 0 0 0-.33-.203 2.431 2.431 0 0 0-.48-.202 2.101 2.101 0 0 0-.69-.098c-.36 0-.678.065-.953.195-.275.13-.505.315-.69.555-.18.24-.317.533-.412.878a4.375 4.375 0 0 0-.143 1.162c0 .445.05.843.15 1.193.1.345.243.637.428.877.185.235.41.415.675.54.265.12.56.18.885.18.315 0 .575-.037.78-.112.205-.08.375-.165.51-.255s.247-.173.337-.248c.09-.08.183-.12.278-.12.12 0 .212.045.277.135l.42.54a2.786 2.786 0 0 1-.592.548c-.215.15-.445.272-.69.367a3.984 3.984 0 0 1-.773.211 4.83 4.83 0 0 1-.81.067 3.4 3.4 0 0 1-1.335-.263 3.059 3.059 0 0 1-1.072-.765 3.704 3.704 0 0 1-.713-1.23c-.175-.49-.262-1.045-.262-1.665 0-.565.077-1.087.232-1.567.16-.48.393-.893.698-1.238.31-.35.69-.622 1.14-.817.45-.2.965-.3 1.545-.3.545 0 1.025.087 1.44.262.415.175.785.423 1.11.743l-.39.54zm8.67-.315h-2.873V312h-1.47v-6.51h-2.872v-1.11h7.215v1.11zm4.64 5.437c.5 0 .875-.12 1.125-.36.25-.245.375-.555.375-.93 0-.17-.027-.33-.082-.48a.971.971 0 0 0-.263-.397 1.234 1.234 0 0 0-.472-.27 2.054 2.054 0 0 0-.705-.105h-1.553v2.542h1.575zm-.022-3.607c.525 0 .967.065 1.327.195.365.125.658.295.878.51.22.21.377.455.472.735.1.275.15.562.15.862 0 .345-.062.665-.187.96-.12.29-.3.54-.54.75-.24.21-.535.375-.885.495a3.772 3.772 0 0 1-1.193.173h-2.97v-7.62h1.395v2.94h1.553zM525.67 388.565h-3.42V398h-1.59v-9.435h-3.435v-1.335h8.445v1.335zm1.55 7.56c.24.315.498.535.773.66.28.125.592.187.937.187.67 0 1.188-.24 1.553-.72.37-.485.555-1.19.555-2.115 0-.485-.043-.897-.128-1.237-.08-.345-.2-.625-.36-.84a1.365 1.365 0 0 0-.577-.48 1.858 1.858 0 0 0-.78-.158c-.425 0-.795.095-1.11.285-.31.19-.598.46-.863.81v3.608zm-.075-4.605c.16-.19.33-.363.51-.518.185-.16.383-.295.593-.405.21-.115.432-.202.667-.262.24-.065.495-.098.765-.098.435 0 .828.085 1.178.255.355.17.657.42.907.75s.443.738.578 1.223c.14.485.21 1.042.21 1.672 0 .565-.078 1.09-.233 1.575-.15.48-.367.898-.652 1.253-.28.355-.625.635-1.035.84-.405.2-.863.3-1.373.3-.455 0-.845-.075-1.17-.225a2.808 2.808 0 0 1-.87-.63v3.308h-1.462V390.38h.877c.205 0 .333.097.383.292l.127.848zm11.581 3.097c-.595.02-1.1.068-1.515.143-.415.07-.753.165-1.013.285-.26.12-.447.262-.562.427a.903.903 0 0 0-.173.54c0 .19.03.355.09.495.065.135.15.248.255.338.11.085.238.147.383.187.145.04.302.06.472.06a2.605 2.605 0 0 0 1.148-.255c.165-.085.322-.187.472-.307.15-.12.298-.258.443-.413v-1.5zm-4.29-3.172a4.374 4.374 0 0 1 1.38-.908c.5-.2 1.047-.3 1.642-.3.435 0 .82.073 1.155.218.335.14.618.337.848.592.23.255.402.56.517.915.12.355.18.748.18 1.178V398h-.652a.65.65 0 0 1-.33-.068.513.513 0 0 1-.18-.27l-.158-.667c-.195.18-.387.34-.577.48a4.01 4.01 0 0 1-.6.352 3.098 3.098 0 0 1-.66.218c-.235.05-.495.075-.78.075-.3 0-.583-.04-.848-.12a1.944 1.944 0 0 1-.682-.383 1.828 1.828 0 0 1-.465-.637 2.241 2.241 0 0 1-.165-.893c0-.3.08-.587.24-.862.165-.28.43-.53.795-.75.37-.22.85-.4 1.44-.54.595-.14 1.325-.22 2.19-.24v-.555c0-.575-.123-1.005-.368-1.29-.245-.285-.605-.428-1.08-.428-.32 0-.59.04-.81.12-.215.08-.402.17-.562.27-.155.095-.293.183-.413.263a.621.621 0 0 1-.36.12.43.43 0 0 1-.262-.083.714.714 0 0 1-.173-.195l-.262-.472zm14.55-1.065V398h-1.47v-3.51h-3.488V398h-1.462v-7.62h1.462v3h3.488v-3h1.47zm7.837 1.425a.86.86 0 0 1-.135.135c-.04.03-.1.045-.18.045a.465.465 0 0 1-.255-.09 2.267 2.267 0 0 0-.33-.203 2.431 2.431 0 0 0-.48-.202 2.101 2.101 0 0 0-.69-.098c-.36 0-.678.065-.953.195-.275.13-.505.315-.69.555-.18.24-.317.533-.412.878a4.375 4.375 0 0 0-.143 1.162c0 .445.05.843.15 1.193.1.345.243.637.428.877.185.235.41.415.675.54.265.12.56.18.885.18.315 0 .575-.037.78-.112.205-.08.375-.165.51-.255s.247-.173.337-.248c.09-.08.183-.12.278-.12.12 0 .212.045.277.135l.42.54a2.786 2.786 0 0 1-.592.548c-.215.15-.445.272-.69.367a3.984 3.984 0 0 1-.773.211 4.83 4.83 0 0 1-.81.067 3.4 3.4 0 0 1-1.335-.263 3.059 3.059 0 0 1-1.072-.765 3.704 3.704 0 0 1-.713-1.23c-.175-.49-.262-1.045-.262-1.665 0-.565.077-1.087.232-1.567.16-.48.393-.893.698-1.238.31-.35.69-.622 1.14-.817.45-.2.965-.3 1.545-.3.545 0 1.025.087 1.44.262.415.175.785.423 1.11.743l-.39.54zm8.708 6.195h-1.47v-6.51h-3.488V398h-1.462v-7.62h6.42V398zm5.744-7.74c.56 0 1.065.092 1.515.277.455.18.84.443 1.155.788.32.34.565.752.735 1.237.17.48.255 1.02.255 1.62a4.9 4.9 0 0 1-.255 1.628c-.17.485-.415.897-.735 1.237-.315.34-.7.603-1.155.788-.45.18-.955.27-1.515.27-.565 0-1.075-.09-1.53-.27a3.275 3.275 0 0 1-1.155-.788 3.524 3.524 0 0 1-.743-1.237 4.9 4.9 0 0 1-.255-1.628c0-.6.085-1.14.255-1.62.175-.485.423-.897.743-1.237.32-.345.705-.608 1.155-.788a4.03 4.03 0 0 1 1.53-.277zm0 6.705c.72 0 1.257-.243 1.612-.728.355-.485.533-1.167.533-2.047 0-.88-.178-1.563-.533-2.048-.355-.49-.892-.735-1.612-.735-.73 0-1.275.245-1.635.735-.355.485-.533 1.168-.533 2.048 0 .88.178 1.562.533 2.047.36.485.905.728 1.635.728zm7.205-.84c.24.315.497.535.772.66.28.125.593.187.938.187.67 0 1.187-.24 1.552-.72.37-.485.555-1.19.555-2.115 0-.485-.042-.897-.127-1.237-.08-.345-.2-.625-.36-.84a1.368 1.368 0 0 0-.578-.48 1.858 1.858 0 0 0-.78-.158c-.425 0-.795.095-1.11.285-.31.19-.597.46-.862.81v3.608zm-.075-4.605c.16-.19.33-.363.51-.518.185-.16.382-.295.592-.405.21-.115.433-.202.668-.262.24-.065.495-.098.765-.098.435 0 .827.085 1.177.255.355.17.658.42.908.75s.442.738.577 1.223c.14.485.21 1.042.21 1.672 0 .565-.077 1.09-.232 1.575a3.78 3.78 0 0 1-.653 1.253c-.28.355-.625.635-1.035.84-.405.2-.862.3-1.372.3-.455 0-.845-.075-1.17-.225a2.808 2.808 0 0 1-.87-.63v3.308h-1.463V390.38h.878c.205 0 .332.097.382.292l.128.848zm13.677-.03h-2.872V398h-1.47v-6.51h-2.873v-1.11h7.215v1.11zM208.85 460.69c.09 0 .168.035.233.105l.63.69c-.44.52-.978.922-1.613 1.207-.63.286-1.39.428-2.28.428-.78 0-1.487-.135-2.122-.405a4.715 4.715 0 0 1-1.62-1.133 5.127 5.127 0 0 1-1.035-1.74 6.483 6.483 0 0 1-.368-2.227c0-.81.128-1.553.383-2.228a5.16 5.16 0 0 1 1.087-1.74 4.895 4.895 0 0 1 1.665-1.132c.65-.27 1.368-.405 2.153-.405.765 0 1.445.125 2.04.375s1.112.582 1.552.997l-.525.743a.435.435 0 0 1-.135.135.346.346 0 0 1-.202.052c-.095 0-.208-.047-.338-.142a4.106 4.106 0 0 0-.502-.315 3.703 3.703 0 0 0-.765-.323c-.305-.095-.685-.142-1.14-.142-.535 0-1.025.095-1.47.285-.445.185-.83.455-1.155.81-.32.35-.57.782-.75 1.297-.175.51-.263 1.088-.263 1.733 0 .655.093 1.237.278 1.747.185.51.44.943.765 1.298.325.355.707.625 1.147.81.44.185.915.277 1.425.277.31 0 .588-.017.833-.052.25-.04.477-.098.682-.173.21-.075.408-.17.593-.285.185-.12.367-.262.547-.427a.51.51 0 0 1 .128-.083.287.287 0 0 1 .142-.037zm5.719-5.43c.56 0 1.065.092 1.515.277.455.18.84.443 1.155.788.32.34.565.752.735 1.237.17.48.255 1.02.255 1.62a4.9 4.9 0 0 1-.255 1.628c-.17.485-.415.897-.735 1.237-.315.34-.7.603-1.155.788-.45.18-.955.27-1.515.27-.565 0-1.075-.09-1.53-.27a3.275 3.275 0 0 1-1.155-.788 3.524 3.524 0 0 1-.743-1.237 4.9 4.9 0 0 1-.255-1.628c0-.6.085-1.14.255-1.62.175-.485.423-.897.743-1.237.32-.345.705-.608 1.155-.788a4.03 4.03 0 0 1 1.53-.277zm0 6.705c.72 0 1.257-.243 1.612-.728.355-.485.533-1.167.533-2.047 0-.88-.178-1.563-.533-2.048-.355-.49-.892-.735-1.612-.735-.73 0-1.275.245-1.635.735-.355.485-.533 1.168-.533 2.048 0 .88.178 1.562.533 2.047.36.485.905.728 1.635.728zm13.557-.075v3.263c0 .14-.04.25-.12.33a.415.415 0 0 1-.307.12h-.9V463h-6.488v-7.62h1.463v6.51h3.487v-6.51h1.47v6.51h1.395zm8.376-6.51V463h-1.47v-4.98a4.79 4.79 0 0 1 .06-.705c-.05.105-.1.205-.15.3a1.79 1.79 0 0 1-.142.24l-3.503 4.777c-.055.09-.127.175-.217.255a.452.452 0 0 1-.308.121h-.885v-7.628h1.463v4.987a4.284 4.284 0 0 1-.06.698c.1-.22.197-.398.292-.533l3.503-4.785a1.22 1.22 0 0 1 .217-.247c.095-.08.2-.12.315-.12h.885zm6.587 4.237c-.595.02-1.1.068-1.515.143-.415.07-.752.165-1.012.285-.26.12-.448.262-.563.427a.902.902 0 0 0-.172.54c0 .19.03.355.09.495.065.135.15.248.255.338.11.085.237.147.382.187.145.04.303.06.473.06a2.605 2.605 0 0 0 1.147-.255c.165-.085.323-.187.473-.307.15-.12.297-.258.442-.413v-1.5zm-4.29-3.172a4.374 4.374 0 0 1 1.38-.908c.5-.2 1.048-.3 1.643-.3.435 0 .82.073 1.155.218.335.14.617.337.847.592.23.255.403.56.518.915.12.355.18.748.18 1.178V463h-.653a.65.65 0 0 1-.33-.068.513.513 0 0 1-.18-.27l-.157-.667c-.195.18-.388.34-.578.48a4.01 4.01 0 0 1-.6.352 3.098 3.098 0 0 1-.66.218c-.235.05-.495.075-.78.075-.3 0-.582-.04-.847-.12a1.949 1.949 0 0 1-.683-.383 1.828 1.828 0 0 1-.465-.637 2.241 2.241 0 0 1-.165-.893c0-.3.08-.587.24-.862.165-.28.43-.53.795-.75.37-.22.85-.4 1.44-.54.595-.14 1.325-.22 2.19-.24v-.555c0-.575-.122-1.005-.367-1.29-.245-.285-.605-.428-1.08-.428-.32 0-.59.04-.81.12-.215.08-.403.17-.563.27-.155.095-.292.183-.412.263a.621.621 0 0 1-.36.12.434.434 0 0 1-.263-.083.71.71 0 0 1-.172-.195l-.263-.472zM253.702 463h-1.462v-6.473h-2.273c-.06.96-.15 1.79-.27 2.49a11.43 11.43 0 0 1-.435 1.778c-.17.485-.36.88-.57 1.185-.205.3-.425.535-.66.705-.23.165-.467.275-.712.33-.245.06-.49.09-.735.09-.455 0-.683-.075-.683-.225v-.923h.405c.17 0 .34-.027.51-.082.175-.06.345-.173.51-.338.17-.17.33-.405.48-.705.15-.3.288-.692.413-1.177.125-.49.232-1.085.322-1.785s.16-1.53.21-2.49h4.95V463zm5.481-1.073c.5 0 .875-.12 1.125-.36.25-.245.375-.555.375-.93 0-.17-.028-.33-.083-.48a.969.969 0 0 0-.262-.397 1.238 1.238 0 0 0-.473-.27 2.054 2.054 0 0 0-.705-.105h-1.552v2.542h1.575zm-.023-3.607c.525 0 .968.065 1.328.195.365.125.657.295.877.51.22.21.378.455.473.735.1.275.15.562.15.862 0 .345-.063.665-.188.96-.12.29-.3.54-.54.75-.24.21-.535.375-.885.495a3.765 3.765 0 0 1-1.192.173h-2.97v-7.62h1.395v2.94h1.552zm11.13-2.94V463h-1.47v-3.51h-3.488V463h-1.462v-7.62h1.462v3h3.488v-3h1.47zm6.592 4.237c-.595.02-1.1.068-1.515.143-.415.07-.753.165-1.013.285-.26.12-.447.262-.562.427a.903.903 0 0 0-.173.54c0 .19.03.355.09.495.065.135.15.248.255.338.11.085.238.147.383.187.145.04.302.06.472.06a2.605 2.605 0 0 0 1.148-.255c.165-.085.322-.187.472-.307.15-.12.298-.258.443-.413v-1.5zm-4.29-3.172a4.374 4.374 0 0 1 1.38-.908c.5-.2 1.047-.3 1.642-.3.435 0 .82.073 1.155.218.335.14.618.337.848.592.23.255.402.56.517.915.12.355.18.748.18 1.178V463h-.652a.65.65 0 0 1-.33-.068.513.513 0 0 1-.18-.27l-.158-.667c-.195.18-.387.34-.577.48a4.01 4.01 0 0 1-.6.352 3.098 3.098 0 0 1-.66.218c-.235.05-.495.075-.78.075-.3 0-.583-.04-.848-.12a1.944 1.944 0 0 1-.682-.383 1.828 1.828 0 0 1-.465-.637 2.241 2.241 0 0 1-.165-.893c0-.3.08-.587.24-.862.165-.28.43-.53.795-.75.37-.22.85-.4 1.44-.54.595-.14 1.325-.22 2.19-.24v-.555c0-.575-.123-1.005-.368-1.29-.245-.285-.605-.428-1.08-.428-.32 0-.59.04-.81.12-.215.08-.402.17-.562.27-.155.095-.293.183-.413.263a.621.621 0 0 1-.36.12.43.43 0 0 1-.262-.083.714.714 0 0 1-.173-.195l-.262-.472zm12.128 2.452v-2.542h-1.208c-.275 0-.505.04-.69.12a1.225 1.225 0 0 0-.45.3c-.11.125-.19.262-.24.412-.045.15-.067.3-.067.45 0 .395.142.705.427.93.285.22.673.33 1.163.33h1.065zm1.395-3.517V463h-1.395v-3.173h-.518c-.145 0-.265.013-.36.038a.73.73 0 0 0-.247.097.772.772 0 0 0-.173.165c-.05.065-.1.138-.15.218l-1.552 2.145c-.05.085-.103.16-.158.225a.944.944 0 0 1-.187.157c-.07.04-.153.073-.248.098-.095.02-.207.03-.337.03h-1.013l2.138-2.828c.185-.315.437-.527.757-.637-.38-.05-.702-.14-.967-.27a2.364 2.364 0 0 1-.638-.465 1.719 1.719 0 0 1-.36-.585 1.97 1.97 0 0 1-.112-.653c0-.27.052-.535.157-.795.105-.26.273-.492.503-.697.23-.205.527-.37.892-.495.365-.13.805-.195 1.32-.195h2.648zm12.082 1.425a.86.86 0 0 1-.135.135c-.04.03-.1.045-.18.045a.465.465 0 0 1-.255-.09 2.267 2.267 0 0 0-.33-.203 2.431 2.431 0 0 0-.48-.202 2.101 2.101 0 0 0-.69-.098c-.36 0-.677.065-.952.195-.275.13-.505.315-.69.555-.18.24-.318.533-.413.878a4.377 4.377 0 0 0-.142 1.162c0 .445.05.843.15 1.193.1.345.242.637.427.877.185.235.41.415.675.54.265.12.56.18.885.18.315 0 .575-.037.78-.112.205-.08.375-.165.51-.255a4.01 4.01 0 0 0 .338-.248c.09-.08.182-.12.277-.12.12 0 .213.045.278.135l.42.54a2.79 2.79 0 0 1-.593.548c-.215.15-.445.272-.69.367a3.974 3.974 0 0 1-.772.211 4.83 4.83 0 0 1-.81.067 3.4 3.4 0 0 1-1.335-.263 3.063 3.063 0 0 1-1.073-.765 3.702 3.702 0 0 1-.712-1.23c-.175-.49-.263-1.045-.263-1.665 0-.565.078-1.087.233-1.567.16-.48.392-.893.697-1.238.31-.35.69-.622 1.14-.817.45-.2.965-.3 1.545-.3.545 0 1.025.087 1.44.262.415.175.785.423 1.11.743l-.39.54zm7.106 5.197c.86-.05 1.515-.32 1.965-.81.455-.49.683-1.157.683-2.002 0-.845-.228-1.513-.683-2.003-.45-.495-1.105-.767-1.965-.817v5.632zm-1.282-5.632c-.865.05-1.525.322-1.98.817-.45.49-.675 1.158-.675 2.003 0 .845.225 1.512.675 2.002.455.49 1.115.76 1.98.81v-5.632zm1.327-1.103c.62.03 1.18.143 1.68.338.505.195.935.462 1.29.802.355.335.628.738.818 1.208.19.47.285.992.285 1.567 0 .58-.095 1.105-.285 1.575-.19.47-.463.875-.818 1.215-.355.335-.785.6-1.29.795-.5.19-1.06.301-1.68.331v2.505h-1.372v-2.505a5.473 5.473 0 0 1-1.688-.331c-.5-.195-.927-.46-1.282-.795a3.453 3.453 0 0 1-.818-1.215 4.168 4.168 0 0 1-.285-1.575c0-.575.095-1.097.285-1.567.19-.47.463-.873.818-1.208a3.85 3.85 0 0 1 1.282-.802 5.329 5.329 0 0 1 1.688-.338v-3.037h1.372v3.037zm11.181 3.075c0-.29-.042-.557-.127-.802-.08-.245-.2-.458-.36-.638-.16-.18-.355-.32-.585-.42-.23-.1-.495-.15-.795-.15-.615 0-1.1.178-1.455.533-.35.355-.573.847-.668 1.477h3.99zm1.208 3.57a2.97 2.97 0 0 1-.623.548c-.235.15-.485.272-.75.367a4.62 4.62 0 0 1-.825.211c-.28.045-.557.067-.832.067a4.003 4.003 0 0 1-1.463-.263 3.352 3.352 0 0 1-1.162-.78 3.676 3.676 0 0 1-.765-1.275c-.18-.51-.27-1.095-.27-1.755a4.3 4.3 0 0 1 .247-1.477c.165-.46.4-.86.705-1.2a3.31 3.31 0 0 1 1.133-.803 3.7 3.7 0 0 1 1.5-.292c.465 0 .892.077 1.282.232.395.15.735.37 1.02.66.285.29.508.648.668 1.073.165.425.247.91.247 1.455 0 .225-.025.377-.075.457-.05.075-.142.113-.277.113h-4.995c.015.455.08.852.195 1.192.115.335.272.615.472.84.205.225.448.393.728.503.28.11.592.165.937.165.325 0 .605-.038.84-.113.24-.075.445-.155.615-.24.175-.09.32-.172.435-.247a.62.62 0 0 1 .315-.113c.12 0 .213.045.278.135l.42.54zm3.597-.787c.24.315.497.535.772.66.28.125.593.187.938.187.67 0 1.187-.24 1.552-.72.37-.485.555-1.19.555-2.115 0-.485-.042-.897-.127-1.237-.08-.345-.2-.625-.36-.84a1.368 1.368 0 0 0-.578-.48 1.858 1.858 0 0 0-.78-.158c-.425 0-.795.095-1.11.285-.31.19-.597.46-.862.81v3.608zm-.075-4.605c.16-.19.33-.363.51-.518.185-.16.382-.295.592-.405.21-.115.433-.202.668-.262.24-.065.495-.098.765-.098.435 0 .827.085 1.177.255.355.17.658.42.908.75s.442.738.577 1.223c.14.485.21 1.042.21 1.672 0 .565-.077 1.09-.232 1.575a3.78 3.78 0 0 1-.653 1.253c-.28.355-.625.635-1.035.84-.405.2-.862.3-1.372.3-.455 0-.845-.075-1.17-.225a2.808 2.808 0 0 1-.87-.63v3.308h-1.463V455.38h.878c.205 0 .332.097.382.292l.128.848zm11.58 3.097c-.595.02-1.1.068-1.515.143-.415.07-.752.165-1.012.285-.26.12-.448.262-.563.427a.902.902 0 0 0-.172.54c0 .19.03.355.09.495.065.135.15.248.255.338.11.085.237.147.382.187.145.04.303.06.473.06a2.605 2.605 0 0 0 1.147-.255c.165-.085.323-.187.473-.307.15-.12.297-.258.442-.413v-1.5zm-4.29-3.172a4.374 4.374 0 0 1 1.38-.908c.5-.2 1.048-.3 1.643-.3.435 0 .82.073 1.155.218.335.14.617.337.847.592.23.255.403.56.518.915.12.355.18.748.18 1.178V463h-.653a.65.65 0 0 1-.33-.068.513.513 0 0 1-.18-.27l-.157-.667c-.195.18-.388.34-.578.48a4.01 4.01 0 0 1-.6.352 3.098 3.098 0 0 1-.66.218c-.235.05-.495.075-.78.075-.3 0-.582-.04-.847-.12a1.949 1.949 0 0 1-.683-.383 1.828 1.828 0 0 1-.465-.637 2.241 2.241 0 0 1-.165-.893c0-.3.08-.587.24-.862.165-.28.43-.53.795-.75.37-.22.85-.4 1.44-.54.595-.14 1.325-.22 2.19-.24v-.555c0-.575-.122-1.005-.367-1.29-.245-.285-.605-.428-1.08-.428-.32 0-.59.04-.81.12-.215.08-.403.17-.563.27-.155.095-.292.183-.412.263a.621.621 0 0 1-.36.12.434.434 0 0 1-.263-.083.71.71 0 0 1-.172-.195l-.263-.472zM31.735 365h-1.598v-9.518h-5.204V365h-1.605v-10.77h8.407V365zm4.162-1.875c.24.315.498.535.773.66.28.125.592.187.937.187.67 0 1.188-.24 1.553-.72.37-.485.555-1.19.555-2.115a5.17 5.17 0 0 0-.128-1.237c-.08-.345-.2-.625-.36-.84a1.366 1.366 0 0 0-.577-.48 1.858 1.858 0 0 0-.78-.158c-.425 0-.795.095-1.11.285-.31.19-.598.46-.863.81v3.608zm-.075-4.605c.16-.19.33-.363.51-.518a3.11 3.11 0 0 1 .593-.405c.21-.115.432-.202.667-.262.24-.065.495-.098.765-.098.435 0 .828.085 1.178.255.355.17.657.42.907.75s.443.738.578 1.223c.14.485.21 1.042.21 1.672 0 .565-.078 1.09-.233 1.575a3.78 3.78 0 0 1-.653 1.253c-.28.355-.625.635-1.035.84-.404.2-.862.3-1.372.3-.455 0-.845-.075-1.17-.225a2.808 2.808 0 0 1-.87-.63v3.308h-1.462V357.38h.877c.205 0 .333.097.383.292l.127.848zm10.733-1.26c.56 0 1.065.092 1.515.277.455.18.84.443 1.155.788.32.34.565.752.735 1.237.17.48.255 1.02.255 1.62a4.9 4.9 0 0 1-.255 1.628c-.17.485-.415.897-.735 1.237-.315.34-.7.603-1.155.788-.45.18-.955.27-1.515.27-.565 0-1.075-.09-1.53-.27a3.275 3.275 0 0 1-1.155-.788 3.523 3.523 0 0 1-.743-1.237 4.9 4.9 0 0 1-.255-1.628c0-.6.085-1.14.255-1.62.175-.485.423-.897.743-1.237.32-.345.705-.608 1.155-.788a4.03 4.03 0 0 1 1.53-.277zm0 6.705c.72 0 1.257-.243 1.612-.728.355-.485.533-1.167.533-2.047 0-.88-.178-1.563-.533-2.048-.355-.49-.892-.735-1.612-.735-.73 0-1.275.245-1.635.735-.355.485-.533 1.168-.533 2.048 0 .88.178 1.562.533 2.047.36.485.905.728 1.635.728zm10.737-5.475H53.76V365h-1.463v-7.62h4.995v1.11zm3.143 4.635c.24.315.498.535.773.66.28.125.593.187.938.187.67 0 1.187-.24 1.552-.72.37-.485.555-1.19.555-2.115a5.17 5.17 0 0 0-.127-1.237c-.08-.345-.2-.625-.36-.84a1.366 1.366 0 0 0-.578-.48 1.858 1.858 0 0 0-.78-.158c-.425 0-.795.095-1.11.285-.31.19-.598.46-.863.81v3.608zm-.075-4.605c.16-.19.33-.363.51-.518a3.11 3.11 0 0 1 .593-.405c.21-.115.432-.202.667-.262.24-.065.495-.098.765-.098.435 0 .828.085 1.178.255.355.17.658.42.908.75s.442.738.577 1.223c.14.485.21 1.042.21 1.672 0 .565-.078 1.09-.233 1.575a3.78 3.78 0 0 1-.652 1.253c-.28.355-.625.635-1.035.84-.405.2-.862.3-1.373.3-.455 0-.845-.075-1.17-.225a2.808 2.808 0 0 1-.87-.63v3.308h-1.462V357.38h.877c.206 0 .333.097.383.292l.128.848zm11.58 3.097c-.594.02-1.1.068-1.514.143-.415.07-.753.165-1.013.285-.26.12-.447.262-.562.427a.903.903 0 0 0-.173.54c0 .19.03.355.09.495.065.135.15.248.255.338.11.085.238.147.383.187.145.04.302.06.472.06a2.605 2.605 0 0 0 1.148-.255c.165-.085.322-.187.472-.307.15-.12.298-.258.443-.413v-1.5zm-4.29-3.172a4.374 4.374 0 0 1 1.38-.908c.5-.2 1.048-.3 1.643-.3.435 0 .82.073 1.155.218.335.14.618.337.848.592.23.255.402.56.517.915.12.355.18.748.18 1.178V365h-.652a.65.65 0 0 1-.33-.068.513.513 0 0 1-.18-.27l-.158-.667c-.195.18-.387.34-.577.48a4.01 4.01 0 0 1-.6.352 3.098 3.098 0 0 1-.66.218c-.235.05-.495.075-.78.075-.3 0-.583-.04-.848-.12a1.947 1.947 0 0 1-.682-.383 1.828 1.828 0 0 1-.465-.637 2.241 2.241 0 0 1-.165-.893c0-.3.08-.587.24-.862.165-.28.43-.53.795-.75.37-.22.85-.4 1.44-.54.595-.14 1.325-.22 2.19-.24v-.555c0-.575-.123-1.005-.368-1.29-.245-.285-.605-.428-1.08-.428-.32 0-.59.04-.81.12-.215.08-.402.17-.562.27-.155.095-.293.183-.413.263a.621.621 0 0 1-.36.12.432.432 0 0 1-.262-.083.713.713 0 0 1-.173-.195l-.262-.472zm16.704-1.088V365h-1.32v-4.845c0-.15.007-.32.022-.51.02-.19.048-.365.083-.525l-2.55 4.515a.57.57 0 0 1-.173.202.448.448 0 0 1-.247.068h-.165a.472.472 0 0 1-.248-.068.57.57 0 0 1-.172-.202l-2.588-4.53a6.495 6.495 0 0 1 .105 1.05V365h-1.32v-7.643h1.185c.1 0 .2.023.3.068.1.045.185.132.255.262l2.228 3.765c.065.12.125.248.18.383.055.135.107.27.157.405l.15-.405a3.87 3.87 0 0 1 .18-.383l2.198-3.765c.07-.135.155-.222.255-.262.1-.045.2-.068.3-.068h1.185zm11.07 0V365h-1.32v-4.845c0-.15.007-.32.022-.51.02-.19.048-.365.083-.525l-2.55 4.515a.57.57 0 0 1-.173.202.448.448 0 0 1-.247.068h-.165a.472.472 0 0 1-.248-.068.57.57 0 0 1-.172-.202l-2.588-4.53a6.495 6.495 0 0 1 .105 1.05V365h-1.32v-7.643h1.185c.1 0 .2.023.3.068.1.045.185.132.255.262l2.228 3.765c.065.12.125.248.18.383.055.135.107.27.157.405l.15-.405a3.87 3.87 0 0 1 .18-.383l2.198-3.765c.07-.135.155-.222.255-.262.1-.045.2-.068.3-.068h1.185zm5.467 6.57c.5 0 .875-.12 1.125-.36.25-.245.375-.555.375-.93 0-.17-.027-.33-.082-.48a.971.971 0 0 0-.263-.397 1.234 1.234 0 0 0-.472-.27 2.054 2.054 0 0 0-.705-.105h-1.553v2.542h1.575zm-.022-3.607c.525 0 .967.065 1.327.195.365.125.658.295.878.51.22.21.377.455.472.735.1.275.15.562.15.862 0 .345-.062.665-.187.96-.12.29-.3.54-.54.75-.24.21-.535.375-.885.495a3.772 3.772 0 0 1-1.193.173h-2.97v-7.62h1.395v2.94h1.553zm5.895-2.94V365h-1.463v-7.62h1.463zm8.212 5.745c.24.315.498.535.773.66.28.125.592.187.937.187.67 0 1.188-.24 1.553-.72.37-.485.555-1.19.555-2.115 0-.485-.043-.897-.128-1.237-.08-.345-.2-.625-.36-.84a1.365 1.365 0 0 0-.577-.48 1.858 1.858 0 0 0-.78-.158c-.425 0-.795.095-1.11.285-.31.19-.598.46-.863.81v3.608zm-.075-4.605c.16-.19.33-.363.51-.518.185-.16.383-.295.593-.405.21-.115.432-.202.667-.262.24-.065.495-.098.765-.098.435 0 .828.085 1.178.255.355.17.657.42.907.75s.443.738.578 1.223c.14.485.21 1.042.21 1.672 0 .565-.078 1.09-.233 1.575-.15.48-.367.898-.652 1.253-.28.355-.625.635-1.035.84-.405.2-.863.3-1.373.3-.455 0-.845-.075-1.17-.225a2.808 2.808 0 0 1-.87-.63v3.308h-1.462V357.38h.877c.205 0 .333.097.383.292l.127.848zm11.581 3.097c-.595.02-1.1.068-1.515.143-.415.07-.753.165-1.013.285-.26.12-.447.262-.562.427a.903.903 0 0 0-.173.54c0 .19.03.355.09.495.065.135.15.248.255.338.11.085.238.147.383.187.145.04.302.06.472.06a2.605 2.605 0 0 0 1.148-.255c.165-.085.322-.187.472-.307.15-.12.298-.258.443-.413v-1.5zm-4.29-3.172a4.374 4.374 0 0 1 1.38-.908c.5-.2 1.047-.3 1.642-.3.435 0 .82.073 1.155.218.335.14.618.337.848.592.23.255.402.56.517.915.12.355.18.748.18 1.178V365h-.652a.65.65 0 0 1-.33-.068.513.513 0 0 1-.18-.27l-.158-.667c-.195.18-.387.34-.577.48a4.01 4.01 0 0 1-.6.352 3.098 3.098 0 0 1-.66.218c-.235.05-.495.075-.78.075-.3 0-.583-.04-.848-.12a1.944 1.944 0 0 1-.682-.383 1.828 1.828 0 0 1-.465-.637 2.241 2.241 0 0 1-.165-.893c0-.3.08-.587.24-.862.165-.28.43-.53.795-.75.37-.22.85-.4 1.44-.54.595-.14 1.325-.22 2.19-.24v-.555c0-.575-.123-1.005-.368-1.29-.245-.285-.605-.428-1.08-.428-.32 0-.59.04-.81.12-.215.08-.402.17-.562.27-.155.095-.293.183-.413.263a.621.621 0 0 1-.36.12.43.43 0 0 1-.262-.083.714.714 0 0 1-.173-.195l-.262-.472zm7.65-.27c.285-.27.635-.49 1.05-.66.415-.17.913-.255 1.493-.255.465 0 .875.057 1.23.172.355.11.652.26.892.45.245.185.428.398.548.638.125.24.187.49.187.75 0 .15-.025.307-.075.472-.045.16-.12.315-.225.465-.105.15-.245.29-.42.42-.17.125-.382.23-.637.315.47.145.842.375 1.117.69.275.315.413.708.413 1.178 0 .355-.083.675-.248.96a2.26 2.26 0 0 1-.652.727 3.166 3.166 0 0 1-.953.45c-.36.106-.735.158-1.125.158a4.109 4.109 0 0 1-1.485-.278 3.44 3.44 0 0 1-.697-.367 2.79 2.79 0 0 1-.593-.548l.42-.54a.323.323 0 0 1 .278-.135c.095 0 .192.04.292.12.105.075.23.158.375.248.15.09.328.175.533.255.21.075.47.112.78.112.265 0 .5-.032.705-.097a1.53 1.53 0 0 0 .525-.27c.145-.115.255-.25.33-.405.075-.155.112-.325.112-.51 0-.36-.147-.648-.442-.863-.295-.215-.75-.322-1.365-.322h-.863v-.975h.863c.54 0 .96-.1 1.26-.3.3-.205.45-.468.45-.788a.848.848 0 0 0-.098-.397.914.914 0 0 0-.3-.338c-.13-.1-.295-.177-.495-.232a2.521 2.521 0 0 0-.682-.083c-.29 0-.535.03-.735.09-.2.055-.37.118-.51.188s-.258.135-.353.195a.465.465 0 0 1-.232.082.399.399 0 0 1-.18-.037.604.604 0 0 1-.15-.173l-.338-.562zm10.638 5.797c.47 0 .843-.11 1.118-.33.275-.225.412-.527.412-.907 0-.165-.025-.318-.075-.458a.868.868 0 0 0-.255-.375 1.2 1.2 0 0 0-.472-.24 2.478 2.478 0 0 0-.72-.09h-1.583v2.4h1.575zm-1.575-5.617v2.287h1.403c.21 0 .402-.03.577-.09.18-.06.333-.142.458-.247.13-.11.23-.24.3-.39a1.14 1.14 0 0 0 .037-.893.81.81 0 0 0-.24-.337c-.11-.1-.257-.18-.442-.24a2.265 2.265 0 0 0-.69-.09h-1.403zm1.448-.975c.47 0 .875.047 1.215.142.34.09.62.218.84.383.22.165.38.357.48.577.105.22.157.458.157.713 0 .165-.022.337-.067.517-.045.18-.123.353-.233.518-.11.16-.26.307-.45.442-.185.135-.422.24-.712.315.56.1.995.3 1.305.6.315.3.472.698.472 1.193 0 .375-.077.702-.232.982-.15.275-.355.505-.615.69-.26.185-.565.323-.915.413-.35.09-.72.135-1.11.135h-2.978v-7.62h2.843zm11.693 0V365h-1.47v-4.98a4.79 4.79 0 0 1 .06-.705c-.05.105-.1.205-.15.3a1.79 1.79 0 0 1-.142.24l-3.503 4.777c-.055.09-.127.175-.217.255a.452.452 0 0 1-.308.121h-.885v-7.628h1.463v4.987a4.284 4.284 0 0 1-.06.698c.1-.22.197-.398.292-.533l3.503-4.785a1.22 1.22 0 0 1 .217-.247c.095-.08.2-.12.315-.12h.885zm8.875 1.11h-2.873V365h-1.47v-6.51h-2.872v-1.11h7.215v1.11zm8.285-1.11V365h-1.47v-4.98a4.79 4.79 0 0 1 .06-.705c-.05.105-.1.205-.15.3a1.79 1.79 0 0 1-.143.24l-3.502 4.777c-.055.09-.128.175-.218.255a.45.45 0 0 1-.307.121h-.885v-7.628h1.462v4.987a4.284 4.284 0 0 1-.06.698c.1-.22.198-.398.293-.533l3.502-4.785c.055-.085.128-.167.218-.247.095-.08.2-.12.315-.12h.885zm6.49 3.517v-2.542h-1.208c-.275 0-.505.04-.69.12a1.225 1.225 0 0 0-.45.3c-.11.125-.19.262-.24.412-.045.15-.067.3-.067.45 0 .395.142.705.427.93.285.22.673.33 1.163.33h1.065zm1.395-3.517V365h-1.395v-3.173h-.518c-.145 0-.265.013-.36.038a.73.73 0 0 0-.247.097.772.772 0 0 0-.173.165c-.05.065-.1.138-.15.218l-1.552 2.145c-.05.085-.103.16-.158.225a.944.944 0 0 1-.187.157c-.07.04-.153.073-.248.098-.095.02-.207.03-.337.03h-1.013l2.138-2.828c.185-.315.437-.527.757-.637-.38-.05-.702-.14-.967-.27a2.364 2.364 0 0 1-.638-.465 1.719 1.719 0 0 1-.36-.585 1.97 1.97 0 0 1-.112-.653c0-.27.052-.535.157-.795.105-.26.273-.492.503-.697.23-.205.527-.37.892-.495.365-.13.805-.195 1.32-.195h2.648zM8.85 250.69c.09 0 .168.035.232.105l.63.69c-.44.52-.977.922-1.612 1.207-.63.286-1.39.428-2.28.428-.78 0-1.488-.135-2.123-.405a4.715 4.715 0 0 1-1.62-1.133 5.127 5.127 0 0 1-1.034-1.74 6.483 6.483 0 0 1-.368-2.227c0-.81.127-1.553.383-2.228a5.162 5.162 0 0 1 1.087-1.74 4.895 4.895 0 0 1 1.665-1.132c.65-.27 1.368-.405 2.153-.405.764 0 1.444.125 2.04.375.595.25 1.112.582 1.552.997l-.525.743a.435.435 0 0 1-.135.135.347.347 0 0 1-.202.052c-.095 0-.208-.047-.338-.142a4.117 4.117 0 0 0-.503-.315 3.703 3.703 0 0 0-.764-.323c-.306-.095-.686-.142-1.14-.142-.536 0-1.026.095-1.47.285-.446.185-.83.455-1.155.81-.32.35-.57.782-.75 1.297-.175.51-.263 1.088-.263 1.733 0 .655.092 1.237.277 1.747.185.51.44.943.765 1.298.326.355.708.625 1.148.81.44.185.915.277 1.425.277.31 0 .588-.017.833-.052.25-.04.477-.098.682-.173.21-.075.407-.17.593-.285.184-.12.367-.262.547-.427a.507.507 0 0 1 .127-.083.289.289 0 0 1 .143-.037zm8.678-4.2h-2.872V253h-1.47v-6.51h-2.873v-1.11h7.215v1.11zm5.706 3.127c-.595.02-1.1.068-1.515.143-.415.07-.752.165-1.012.285-.26.12-.448.262-.563.427a.903.903 0 0 0-.172.54c0 .19.03.355.09.495.065.135.15.248.255.338.11.085.237.147.382.187.145.04.303.06.473.06a2.605 2.605 0 0 0 1.147-.255c.165-.085.323-.187.473-.307.15-.12.297-.258.442-.413v-1.5zm-4.29-3.172a4.374 4.374 0 0 1 1.38-.908c.5-.2 1.048-.3 1.643-.3.435 0 .82.073 1.155.218.335.14.617.337.847.592.23.255.403.56.518.915.12.355.18.748.18 1.178V253h-.653a.65.65 0 0 1-.33-.068.513.513 0 0 1-.18-.27l-.157-.667c-.195.18-.388.34-.578.48a4.01 4.01 0 0 1-.6.352 3.098 3.098 0 0 1-.66.218c-.235.05-.495.075-.78.075-.3 0-.582-.04-.847-.12a1.947 1.947 0 0 1-.683-.383 1.828 1.828 0 0 1-.465-.637 2.241 2.241 0 0 1-.165-.893c0-.3.08-.587.24-.862.165-.28.43-.53.795-.75.37-.22.85-.4 1.44-.54.595-.14 1.325-.22 2.19-.24v-.555c0-.575-.122-1.005-.367-1.29-.245-.285-.605-.428-1.08-.428-.32 0-.59.04-.81.12-.215.08-.403.17-.563.27-.155.095-.292.183-.412.263a.621.621 0 0 1-.36.12.432.432 0 0 1-.263-.083.713.713 0 0 1-.172-.195l-.263-.472zm9.593 4.68c.24.315.498.535.773.66.28.125.592.187.937.187.67 0 1.188-.24 1.553-.72.37-.485.555-1.19.555-2.115a5.17 5.17 0 0 0-.128-1.237c-.08-.345-.2-.625-.36-.84a1.366 1.366 0 0 0-.577-.48 1.858 1.858 0 0 0-.78-.158c-.425 0-.795.095-1.11.285-.31.19-.598.46-.863.81v3.608zm-.075-4.605c.16-.19.33-.363.51-.518a3.11 3.11 0 0 1 .593-.405c.21-.115.432-.202.667-.262.24-.065.495-.098.765-.098.435 0 .828.085 1.178.255.355.17.657.42.907.75s.443.738.578 1.223c.14.485.21 1.042.21 1.672 0 .565-.078 1.09-.233 1.575a3.78 3.78 0 0 1-.652 1.253c-.28.355-.625.635-1.035.84-.405.2-.863.3-1.373.3-.455 0-.845-.075-1.17-.225a2.808 2.808 0 0 1-.87-.63v3.308h-1.462V245.38h.877c.205 0 .333.097.383.292l.127.848zm13.678-.03h-2.873V253h-1.47v-6.51h-2.872v-1.11h7.215v1.11zm5.706 3.127c-.595.02-1.1.068-1.515.143-.415.07-.752.165-1.012.285-.26.12-.448.262-.563.427a.903.903 0 0 0-.172.54c0 .19.03.355.09.495.065.135.15.248.255.338.11.085.237.147.382.187.145.04.303.06.473.06a2.605 2.605 0 0 0 1.147-.255c.165-.085.323-.187.473-.307.15-.12.297-.258.442-.413v-1.5zm-4.29-3.172a4.374 4.374 0 0 1 1.38-.908c.5-.2 1.048-.3 1.643-.3.435 0 .82.073 1.155.218.335.14.617.337.847.592.23.255.403.56.518.915.12.355.18.748.18 1.178V253h-.653a.65.65 0 0 1-.33-.068.513.513 0 0 1-.18-.27l-.157-.667c-.195.18-.388.34-.578.48a4.01 4.01 0 0 1-.6.352 3.098 3.098 0 0 1-.66.218c-.235.05-.495.075-.78.075-.3 0-.582-.04-.847-.12a1.947 1.947 0 0 1-.683-.383 1.828 1.828 0 0 1-.465-.637 2.241 2.241 0 0 1-.165-.893c0-.3.08-.587.24-.862.165-.28.43-.53.795-.75.37-.22.85-.4 1.44-.54.595-.14 1.325-.22 2.19-.24v-.555c0-.575-.122-1.005-.367-1.29-.245-.285-.605-.428-1.08-.428-.32 0-.59.04-.81.12-.215.08-.403.17-.563.27-.155.095-.292.183-.412.263a.621.621 0 0 1-.36.12.432.432 0 0 1-.263-.083.713.713 0 0 1-.172-.195l-.263-.472zM58.106 253h-1.47v-6.51H53.15V253h-1.462v-7.62h6.42V253zm6.209-6.735c.325-.32.695-.568 1.11-.743.415-.175.895-.262 1.44-.262.58 0 1.095.1 1.545.3.45.195.827.467 1.132.817.31.345.543.758.698 1.238.16.48.24 1.002.24 1.567 0 .62-.088 1.175-.263 1.665a3.633 3.633 0 0 1-.72 1.23c-.3.335-.657.59-1.072.765-.41.175-.853.263-1.328.263-.275 0-.547-.022-.817-.067a4.004 4.004 0 0 1-.765-.211 3.444 3.444 0 0 1-.698-.367 2.877 2.877 0 0 1-.585-.548l.398-.495a.322.322 0 0 1 .277-.135c.095 0 .188.038.278.113.095.07.212.147.352.232.14.085.313.165.518.24.205.07.465.105.78.105.6 0 1.092-.202 1.477-.607.39-.405.62-.988.69-1.748h-3.517v-1.02h3.495a3.154 3.154 0 0 0-.24-.922 2.21 2.21 0 0 0-.45-.698 1.853 1.853 0 0 0-.66-.435c-.255-.1-.54-.15-.855-.15-.275 0-.508.03-.698.09-.19.055-.352.118-.487.188-.13.065-.243.127-.338.187a.494.494 0 0 1-.255.083.335.335 0 0 1-.187-.045.818.818 0 0 1-.12-.135l-.375-.495zm12.838-.488a.911.911 0 0 1 .3-.285.76.76 0 0 1 .398-.112h1.147l-1.927 2.88a2.3 2.3 0 0 1-.375.465c-.13.12-.29.212-.48.277.24.07.442.175.607.315.165.135.313.313.443.533l1.942 3.15h-1.012c-.265 0-.47-.043-.615-.128-.14-.09-.26-.217-.36-.382l-1.395-2.303a1.147 1.147 0 0 0-.435-.427 1.195 1.195 0 0 0-.593-.143h-.787v3.391h-1.463v-7.628h1.463v3.255h.69c.21 0 .387-.043.532-.128.15-.085.278-.21.383-.375l1.537-2.355zm6.666-.517c.56 0 1.065.092 1.515.277.455.18.84.443 1.155.788.32.34.565.752.735 1.237.17.48.255 1.02.255 1.62a4.9 4.9 0 0 1-.255 1.628c-.17.485-.415.897-.735 1.237-.315.34-.7.603-1.155.788-.45.18-.955.27-1.515.27-.565 0-1.075-.09-1.53-.27a3.275 3.275 0 0 1-1.155-.788 3.523 3.523 0 0 1-.743-1.237 4.9 4.9 0 0 1-.255-1.628c0-.6.085-1.14.255-1.62.175-.485.423-.897.743-1.237.32-.345.705-.608 1.155-.788a4.03 4.03 0 0 1 1.53-.277zm0 6.705c.72 0 1.257-.243 1.612-.728.355-.485.533-1.167.533-2.047 0-.88-.178-1.563-.533-2.048-.355-.49-.892-.735-1.612-.735-.73 0-1.275.245-1.635.735-.355.485-.533 1.168-.533 2.048 0 .88.178 1.562.533 2.047.36.485.905.728 1.635.728zm11.082-5.16a.86.86 0 0 1-.135.135c-.04.03-.1.045-.18.045a.465.465 0 0 1-.254-.09 2.267 2.267 0 0 0-.33-.203 2.431 2.431 0 0 0-.48-.202 2.101 2.101 0 0 0-.69-.098c-.36 0-.678.065-.953.195-.275.13-.505.315-.69.555-.18.24-.317.533-.412.878a4.376 4.376 0 0 0-.143 1.162c0 .445.05.843.15 1.193.1.345.242.637.427.877.186.235.41.415.675.54.266.12.56.18.886.18.314 0 .575-.037.78-.112.204-.08.374-.165.51-.255.135-.09.247-.173.337-.248.09-.08.183-.12.278-.12.12 0 .212.045.277.135l.42.54a2.788 2.788 0 0 1-.593.548c-.215.15-.445.272-.69.367a3.979 3.979 0 0 1-.772.211 4.83 4.83 0 0 1-.81.067 3.4 3.4 0 0 1-1.335-.263 3.06 3.06 0 0 1-1.073-.765 3.703 3.703 0 0 1-.712-1.23c-.175-.49-.263-1.045-.263-1.665 0-.565.078-1.087.233-1.567.16-.48.392-.893.698-1.238.31-.35.69-.622 1.14-.817.45-.2.965-.3 1.544-.3.546 0 1.025.087 1.44.262.416.175.785.423 1.11.743l-.39.54zm8.903-1.425V253h-1.47v-4.98a4.79 4.79 0 0 1 .06-.705c-.05.105-.1.205-.15.3a1.79 1.79 0 0 1-.142.24l-3.503 4.777c-.055.09-.127.175-.217.255a.451.451 0 0 1-.308.121h-.885v-7.628h1.463v4.987a4.284 4.284 0 0 1-.06.698c.1-.22.197-.398.292-.533l3.503-4.785a1.22 1.22 0 0 1 .217-.247c.095-.08.2-.12.315-.12h.885zm7.832 1.425a.86.86 0 0 1-.135.135c-.04.03-.1.045-.18.045a.465.465 0 0 1-.255-.09 2.267 2.267 0 0 0-.33-.203 2.431 2.431 0 0 0-.48-.202 2.101 2.101 0 0 0-.69-.098c-.36 0-.677.065-.952.195-.275.13-.505.315-.69.555-.18.24-.318.533-.413.878a4.377 4.377 0 0 0-.142 1.162c0 .445.05.843.15 1.193.1.345.242.637.427.877.185.235.41.415.675.54.265.12.56.18.885.18.315 0 .575-.037.78-.112.205-.08.375-.165.51-.255a4.01 4.01 0 0 0 .338-.248c.09-.08.182-.12.277-.12.12 0 .213.045.278.135l.42.54a2.79 2.79 0 0 1-.593.548c-.215.15-.445.272-.69.367a3.974 3.974 0 0 1-.772.211 4.83 4.83 0 0 1-.81.067 3.4 3.4 0 0 1-1.335-.263 3.063 3.063 0 0 1-1.073-.765 3.702 3.702 0 0 1-.712-1.23c-.175-.49-.263-1.045-.263-1.665 0-.565.078-1.087.233-1.567.16-.48.392-.893.697-1.238.31-.35.69-.622 1.14-.817.45-.2.965-.3 1.545-.3.545 0 1.025.087 1.44.262.415.175.785.423 1.11.743l-.39.54zm8.671-.315h-2.873V253h-1.47v-6.51h-2.872v-1.11h7.215v1.11zm6.439 1.852c0-.29-.043-.557-.128-.802-.08-.245-.2-.458-.36-.638-.16-.18-.355-.32-.585-.42-.23-.1-.495-.15-.795-.15-.615 0-1.1.178-1.455.533-.35.355-.572.847-.667 1.477h3.99zm1.207 3.57c-.18.21-.387.393-.622.548-.235.15-.485.272-.75.367a4.62 4.62 0 0 1-.825.211c-.28.045-.558.067-.833.067a3.998 3.998 0 0 1-1.462-.263 3.356 3.356 0 0 1-1.163-.78 3.676 3.676 0 0 1-.765-1.275c-.18-.51-.27-1.095-.27-1.755a4.3 4.3 0 0 1 .248-1.477c.165-.46.4-.86.705-1.2.31-.34.687-.608 1.132-.803a3.7 3.7 0 0 1 1.5-.292c.465 0 .893.077 1.283.232.395.15.735.37 1.02.66.285.29.507.648.667 1.073.165.425.248.91.248 1.455 0 .225-.025.377-.075.457-.05.075-.143.113-.278.113h-4.995c.015.455.08.852.195 1.192.115.335.273.615.473.84.205.225.447.393.727.503.28.11.593.165.938.165.325 0 .605-.038.84-.113.24-.075.445-.155.615-.24.175-.09.32-.172.435-.247a.62.62 0 0 1 .315-.113c.12 0 .212.045.277.135l.42.54zm10.707-6.555V253h-1.32v-4.845a4.835 4.835 0 0 1 .105-1.035l-2.55 4.515a.57.57 0 0 1-.172.202.45.45 0 0 1-.248.068h-.165a.47.47 0 0 1-.247-.068.572.572 0 0 1-.173-.202l-2.587-4.53a6.495 6.495 0 0 1 .105 1.05V253h-1.32v-7.643h1.185c.1 0 .2.023.3.068.1.045.185.132.255.262l2.227 3.765c.065.12.125.248.18.383.055.135.108.27.158.405l.15-.405a3.87 3.87 0 0 1 .18-.383l2.197-3.765c.07-.135.155-.222.255-.262.1-.045.2-.068.3-.068h1.185zm6.593 4.26c-.595.02-1.1.068-1.515.143-.415.07-.753.165-1.013.285-.26.12-.447.262-.562.427a.903.903 0 0 0-.173.54c0 .19.03.355.09.495.065.135.15.248.255.338.11.085.238.147.383.187.145.04.302.06.472.06a2.605 2.605 0 0 0 1.148-.255c.165-.085.322-.187.472-.307.15-.12.298-.258.443-.413v-1.5zm-4.29-3.172a4.374 4.374 0 0 1 1.38-.908c.5-.2 1.047-.3 1.642-.3.435 0 .82.073 1.155.218.335.14.618.337.848.592.23.255.402.56.517.915.12.355.18.748.18 1.178V253h-.652a.65.65 0 0 1-.33-.068.513.513 0 0 1-.18-.27l-.158-.667c-.195.18-.387.34-.577.48a4.01 4.01 0 0 1-.6.352 3.098 3.098 0 0 1-.66.218c-.235.05-.495.075-.78.075-.3 0-.583-.04-.848-.12a1.944 1.944 0 0 1-.682-.383 1.828 1.828 0 0 1-.465-.637 2.241 2.241 0 0 1-.165-.893c0-.3.08-.587.24-.862.165-.28.43-.53.795-.75.37-.22.85-.4 1.44-.54.595-.14 1.325-.22 2.19-.24v-.555c0-.575-.123-1.005-.368-1.29-.245-.285-.605-.428-1.08-.428-.32 0-.59.04-.81.12-.215.08-.402.17-.562.27-.155.095-.293.183-.413.263a.621.621 0 0 1-.36.12.43.43 0 0 1-.262-.083.714.714 0 0 1-.173-.195l-.262-.472zM163.555 60.483c.435-.415.95-.748 1.545-.998s1.278-.375 2.048-.375c.78 0 1.492.135 2.137.405a4.88 4.88 0 0 1 1.673 1.133 5.068 5.068 0 0 1 1.08 1.74c.26.675.39 1.417.39 2.227 0 .81-.123 1.553-.368 2.228a4.971 4.971 0 0 1-1.035 1.74c-.45.484-.992.862-1.627 1.132-.63.27-1.335.405-2.115.405-.89 0-1.653-.142-2.288-.428a4.509 4.509 0 0 1-1.605-1.207l.63-.69a.308.308 0 0 1 .233-.105c.05 0 .097.013.142.038.045.02.088.047.128.082.18.165.362.308.547.427.185.116.383.21.593.285.21.075.437.133.682.173.25.035.53.053.84.053.47 0 .913-.08 1.328-.24a3.344 3.344 0 0 0 1.102-.713c.32-.31.58-.688.78-1.133a4.66 4.66 0 0 0 .383-1.537h-5.325v-1.208h5.31a4.437 4.437 0 0 0-.398-1.447 3.41 3.41 0 0 0-.772-1.072 3.245 3.245 0 0 0-1.095-.676 3.77 3.77 0 0 0-1.343-.232c-.455 0-.835.047-1.14.142a3.901 3.901 0 0 0-.772.323c-.205.115-.373.22-.503.315-.125.095-.235.142-.33.142a.346.346 0 0 1-.202-.052.473.473 0 0 1-.128-.135l-.525-.742zm15.488 2.295a.911.911 0 0 1 .3-.285.762.762 0 0 1 .398-.113h1.147l-1.927 2.88a2.3 2.3 0 0 1-.375.465c-.13.12-.29.213-.48.278.24.07.442.174.607.314.165.136.313.313.443.533l1.942 3.15h-1.012c-.265 0-.47-.043-.615-.127-.14-.09-.26-.218-.36-.383l-1.395-2.302a1.149 1.149 0 0 0-.435-.428 1.196 1.196 0 0 0-.593-.142h-.787v3.39h-1.463V62.38h1.463v3.255h.69c.21 0 .387-.043.532-.128.15-.085.278-.21.383-.375l1.537-2.355zm6.666-.518c.56 0 1.065.093 1.515.278.455.18.84.442 1.155.787.32.34.565.752.735 1.237.17.48.255 1.02.255 1.62 0 .6-.085 1.143-.255 1.628-.17.485-.415.897-.735 1.237-.315.34-.7.603-1.155.788-.45.18-.955.27-1.515.27-.565 0-1.075-.09-1.53-.27a3.273 3.273 0 0 1-1.155-.787 3.524 3.524 0 0 1-.742-1.238 4.897 4.897 0 0 1-.255-1.627c0-.6.085-1.14.255-1.62.175-.486.422-.898.742-1.238.32-.345.705-.608 1.155-.788a4.03 4.03 0 0 1 1.53-.277zm0 6.705c.72 0 1.258-.243 1.613-.728.355-.484.532-1.167.532-2.047 0-.88-.177-1.563-.532-2.047-.355-.49-.893-.736-1.613-.736-.73 0-1.275.246-1.635.736-.355.484-.532 1.167-.532 2.047 0 .88.177 1.563.532 2.047.36.486.905.728 1.635.728zM198.004 70h-1.462v-6.472h-2.273c-.06.96-.15 1.79-.27 2.49-.12.695-.265 1.287-.435 1.777-.17.485-.36.88-.57 1.185-.205.3-.425.535-.66.705-.23.165-.467.275-.712.33-.245.06-.49.09-.735.09-.455 0-.683-.075-.683-.225v-.922h.405c.17 0 .34-.028.51-.083.175-.06.345-.172.51-.338.17-.17.33-.405.48-.705.15-.3.288-.692.413-1.177.125-.49.232-1.085.322-1.785s.16-1.53.21-2.49h4.95V70zm5.758-7.74c.56 0 1.065.093 1.515.278.455.18.84.442 1.155.787.32.34.565.752.735 1.237.17.48.255 1.02.255 1.62 0 .6-.085 1.143-.255 1.628-.17.485-.415.897-.735 1.237-.315.34-.7.603-1.155.788-.45.18-.955.27-1.515.27-.565 0-1.075-.09-1.53-.27a3.273 3.273 0 0 1-1.155-.787 3.524 3.524 0 0 1-.742-1.238 4.897 4.897 0 0 1-.255-1.627c0-.6.085-1.14.255-1.62.175-.486.422-.898.742-1.238.32-.345.705-.608 1.155-.788a4.03 4.03 0 0 1 1.53-.277zm0 6.705c.72 0 1.258-.243 1.613-.728.355-.484.532-1.167.532-2.047 0-.88-.177-1.563-.532-2.047-.355-.49-.893-.736-1.613-.736-.73 0-1.275.246-1.635.736-.355.484-.532 1.167-.532 2.047 0 .88.177 1.563.532 2.047.36.486.905.728 1.635.728zM214.5 63.49h-3.532V70h-1.463v-7.62h4.995v1.11zm8.296-1.11V70h-1.47v-4.98a4.79 4.79 0 0 1 .06-.705c-.05.105-.1.205-.15.3a1.79 1.79 0 0 1-.143.24l-3.502 4.777c-.055.09-.128.175-.218.255a.449.449 0 0 1-.307.12h-.885V62.38h1.462v4.988a4.272 4.272 0 0 1-.06.697c.1-.22.198-.397.293-.532l3.502-4.785a1.23 1.23 0 0 1 .218-.248c.095-.08.2-.12.315-.12h.885zm6.489 3.517v-2.542h-1.207c-.275 0-.505.04-.69.12a1.225 1.225 0 0 0-.45.3 1.19 1.19 0 0 0-.24.413c-.045.15-.068.3-.068.45 0 .394.143.704.428.93.285.22.672.33 1.162.33h1.065zm1.395-3.517V70h-1.395v-3.172h-.517c-.145 0-.265.012-.36.037a.735.735 0 0 0-.248.098.768.768 0 0 0-.172.165c-.05.064-.1.137-.15.217l-1.553 2.145c-.05.085-.102.16-.157.225a.953.953 0 0 1-.188.157c-.07.04-.152.073-.247.098-.095.02-.208.03-.338.03h-1.012l2.137-2.828c.185-.314.438-.527.758-.637-.38-.05-.703-.14-.968-.27a2.358 2.358 0 0 1-.637-.465 1.719 1.719 0 0 1-.36-.585 1.97 1.97 0 0 1-.113-.653c0-.27.053-.534.158-.794.105-.26.272-.493.502-.698.23-.205.528-.37.893-.495.365-.13.805-.195 1.32-.195h2.647z" fill="#000"/><circle cx="355" cy="242" r="85" fill="url(#a)"/><circle cx="529" cy="130" r="15" fill="url(#b)"/><circle cx="559" cy="215" r="15" fill="url(#c)"/><circle cx="557" cy="309" r="15" fill="url(#d)"/><circle cx="490" cy="392" r="15" fill="url(#e)"/><circle cx="392" cy="434" r="15" fill="url(#f)"/><circle cx="285" cy="422" r="15" fill="url(#g)"/><circle cx="204" cy="357" r="15" fill="url(#h)"/><circle cx="172" cy="248" r="15" fill="url(#i)"/><circle cx="196" cy="147" r="15" fill="url(#j)"/><circle cx="263" cy="76" r="15" fill="url(#k)"/><circle cx="356" cy="52" r="15" fill="url(#l)"/><circle cx="459" cy="75" r="15" fill="url(#m)"/><path d="m303.939 268.667 40.358-73.816c1.417-2.592 3.767-2.029 4.474-.92.532.834 2 3.177 3.612 5.875 1.612 2.699 1.158 4.252.466 5.483l-29.523 54.179c-.637 1.104-.692 3.464 4.183 4.072 4.874.608 5.595-.532 6.291-1.791 8.587-15.524 26.347-47.714 28.696-52.277 2.349-4.563 5.072-1.902 6.14 0 9.084 16.628 28.129 51.34 31.643 57.159 3.514 5.819.843 7.323-.932 7.347h-35.768c-1.883 0-1.87-.331 0-3.974 1.822-3.549 2.673-6.067 6.121-6.035 3.888.037 9.976.089 13.033 0 3.057-.088 2.307-3.585 1.55-5.323-4.424-8.132-13.746-25.221-15.647-28.519-1.902-3.297-4.163-1.373-5.057 0-6.916 12.479-21.111 38.077-22.556 40.638-1.444 2.561-3.972 3.209-5.056 3.213-8.583.017-26.669.04-30.35 0-3.682-.039-2.71-3.463-1.678-5.311z" fill="#fff"/><circle cx="356" cy="242" r="99.75" stroke="#AAA" stroke-width=".5"/><path d="M360.22 57.51V59h-7.76v-1.49h3.04V48.1c0-.3.01-.61.03-.93l-2.44 2.07a.692.692 0 0 1-.55.15.624.624 0 0 1-.22-.08 1.028 1.028 0 0 1-.15-.14l-.61-.85 4.3-3.71h1.59v12.9h2.77zM462.86 81.15c.213 0 .38.063.5.19.12.12.18.28.18.48V83h-9.64v-.67c0-.133.027-.273.08-.42.053-.153.143-.29.27-.41l4.54-4.55c.38-.38.723-.747 1.03-1.1.307-.353.567-.703.78-1.05a4.87 4.87 0 0 0 .49-1.08c.12-.367.18-.753.18-1.16 0-.4-.063-.75-.19-1.05-.127-.307-.3-.56-.52-.76-.22-.2-.48-.35-.78-.45-.3-.1-.623-.15-.97-.15s-.667.05-.96.15c-.287.1-.543.24-.77.42-.227.18-.417.393-.57.64a2.652 2.652 0 0 0-.33.8c-.093.253-.213.423-.36.51-.14.087-.347.107-.62.06l-1.02-.18c.093-.667.277-1.253.55-1.76.273-.507.617-.93 1.03-1.27a4.21 4.21 0 0 1 1.42-.78c.54-.173 1.12-.26 1.74-.26.627 0 1.203.093 1.73.28.533.18.993.443 1.38.79.387.347.69.77.91 1.27.22.493.33 1.053.33 1.68 0 .533-.08 1.03-.24 1.49a5.607 5.607 0 0 1-.64 1.3c-.267.413-.58.817-.94 1.21-.353.387-.73.78-1.13 1.18l-3.64 3.72c.28-.073.56-.133.84-.18.287-.047.557-.07.81-.07h4.53zM524.24 125.55a5.36 5.36 0 0 1 .56-1.76c.273-.507.617-.93 1.03-1.27a4.2 4.2 0 0 1 1.42-.78c.54-.173 1.12-.26 1.74-.26.62 0 1.19.09 1.71.27.52.173.963.423 1.33.75.373.32.663.707.87 1.16.207.453.31.953.31 1.5 0 .46-.057.867-.17 1.22a2.888 2.888 0 0 1-.49.93c-.207.267-.46.493-.76.68-.3.18-.637.33-1.01.45.913.253 1.6.667 2.06 1.24.46.567.69 1.287.69 2.16 0 .673-.127 1.28-.38 1.82-.253.533-.6.987-1.04 1.36-.44.367-.953.65-1.54.85-.58.193-1.2.29-1.86.29-.753 0-1.4-.09-1.94-.27a4.19 4.19 0 0 1-1.38-.77 4.363 4.363 0 0 1-.95-1.19 9.035 9.035 0 0 1-.63-1.53l.85-.36c.22-.093.433-.12.64-.08.207.04.357.157.45.35l.34.68c.133.247.31.483.53.71.22.22.493.407.82.56.333.153.75.23 1.25.23.48 0 .9-.077 1.26-.23.36-.16.66-.363.9-.61a2.578 2.578 0 0 0 .72-1.75c0-.373-.047-.717-.14-1.03a1.619 1.619 0 0 0-.54-.8c-.26-.227-.623-.403-1.09-.53-.467-.127-1.073-.19-1.82-.19v-1.42c.613-.007 1.13-.07 1.55-.19.427-.12.77-.287 1.03-.5.26-.213.447-.467.56-.76.12-.293.18-.62.18-.98 0-.393-.06-.737-.18-1.03a1.924 1.924 0 0 0-.51-.73c-.213-.2-.47-.347-.77-.44-.293-.1-.613-.15-.96-.15s-.667.05-.96.15c-.293.1-.553.24-.78.42-.227.18-.417.393-.57.64a2.652 2.652 0 0 0-.33.8c-.093.253-.213.423-.36.51-.14.087-.343.107-.61.06l-1.03-.18zM560.26 215.76v-5.6c0-.193.003-.397.01-.61.013-.22.037-.447.07-.68l-5.03 6.89h4.95zm3.79 0v1.13c0 .113-.037.21-.11.29a.4.4 0 0 1-.31.12h-1.66v3.7h-1.71v-3.7h-6.3a.573.573 0 0 1-.37-.12.623.623 0 0 1-.2-.32l-.2-1 6.94-9.23h1.84v9.13h2.08zM554.73 307a9.834 9.834 0 0 1 1.99-.23c.747 0 1.407.113 1.98.34a4 4 0 0 1 1.44.92c.393.387.687.847.88 1.38.2.527.3 1.1.3 1.72 0 .76-.133 1.45-.4 2.07a4.718 4.718 0 0 1-1.1 1.59c-.467.44-1.02.78-1.66 1.02a5.892 5.892 0 0 1-2.05.35c-.433 0-.847-.043-1.24-.13-.387-.087-.75-.2-1.09-.34a5.995 5.995 0 0 1-1.72-1.09l.6-.84a.588.588 0 0 1 .51-.28c.14 0 .293.053.46.16.173.1.377.213.61.34.233.127.51.243.83.35.32.1.7.15 1.14.15.487 0 .923-.077 1.31-.23.393-.16.723-.383.99-.67.273-.287.48-.63.62-1.03.147-.4.22-.843.22-1.33 0-.433-.063-.823-.19-1.17a2.356 2.356 0 0 0-.57-.89 2.444 2.444 0 0 0-.95-.56c-.38-.133-.823-.2-1.33-.2-.707 0-1.46.127-2.26.38l-1.23-.36 1.17-6.78h6.88v.85c0 .28-.09.51-.27.69-.173.173-.467.26-.88.26h-4.37l-.62 3.56zM489.78 396.53c.46 0 .877-.073 1.25-.22a2.98 2.98 0 0 0 .96-.62c.267-.26.473-.57.62-.93.147-.36.22-.75.22-1.17 0-.46-.073-.87-.22-1.23a2.54 2.54 0 0 0-1.52-1.51 3.44 3.44 0 0 0-1.2-.2c-.46 0-.873.08-1.24.24a2.795 2.795 0 0 0-1.54 1.55c-.14.353-.21.723-.21 1.11 0 .44.063.843.19 1.21s.313.68.56.94c.247.26.547.463.9.61.36.147.77.22 1.23.22zm-.92-7.55c-.113.147-.227.29-.34.43-.107.133-.21.267-.31.4.32-.207.673-.367 1.06-.48.393-.113.817-.17 1.27-.17.567 0 1.107.093 1.62.28.513.187.963.46 1.35.82.393.36.703.807.93 1.34.227.533.34 1.147.34 1.84 0 .66-.12 1.28-.36 1.86a4.478 4.478 0 0 1-1.02 1.5 4.82 4.82 0 0 1-1.56 1c-.607.24-1.28.36-2.02.36-.733 0-1.397-.117-1.99-.35a4.329 4.329 0 0 1-1.51-.99 4.526 4.526 0 0 1-.96-1.56c-.227-.613-.34-1.293-.34-2.04 0-.64.137-1.313.41-2.02.28-.713.72-1.473 1.32-2.28l3.59-4.81c.1-.133.24-.243.42-.33.18-.093.387-.14.62-.14h1.74l-4.26 5.34zM396.84 427.64v.87c0 .253-.03.46-.09.62a4.15 4.15 0 0 1-.16.4l-5.82 11.78a1.39 1.39 0 0 1-.39.49c-.167.133-.39.2-.67.2h-1.4l5.91-11.61c.1-.187.2-.357.3-.51.1-.16.21-.307.33-.44h-7.34a.452.452 0 0 1-.33-.14.452.452 0 0 1-.14-.33v-1.33h9.8zM284.8 428.61c.453 0 .857-.063 1.21-.19s.653-.303.9-.53c.247-.233.433-.51.56-.83.127-.32.19-.67.19-1.05 0-.467-.077-.867-.23-1.2a2.24 2.24 0 0 0-.62-.83c-.26-.22-.563-.38-.91-.48a3.71 3.71 0 0 0-1.1-.16c-.393 0-.763.053-1.11.16-.347.1-.65.26-.91.48a2.24 2.24 0 0 0-.62.83c-.147.333-.22.733-.22 1.2 0 .38.063.73.19 1.05.127.32.313.597.56.83.247.227.547.403.9.53s.757.19 1.21.19zm0-11.63c-.413 0-.777.063-1.09.19-.307.12-.563.287-.77.5-.207.213-.363.46-.47.74-.1.28-.15.58-.15.9 0 .313.043.62.13.92.093.293.237.557.43.79.2.227.457.41.77.55.313.14.697.21 1.15.21.447 0 .827-.07 1.14-.21.32-.14.577-.323.77-.55.2-.233.343-.497.43-.79.093-.3.14-.607.14-.92a2.5 2.5 0 0 0-.16-.9 2.028 2.028 0 0 0-1.24-1.24 2.813 2.813 0 0 0-1.08-.19zm2.15 5.53c.893.267 1.57.697 2.03 1.29.467.593.7 1.343.7 2.25 0 .627-.12 1.193-.36 1.7a3.66 3.66 0 0 1-1 1.3c-.427.353-.94.627-1.54.82-.6.193-1.26.29-1.98.29s-1.38-.097-1.98-.29a4.706 4.706 0 0 1-1.55-.82 3.815 3.815 0 0 1-1-1.3 4.022 4.022 0 0 1-.35-1.7c0-.907.23-1.657.69-2.25.467-.593 1.147-1.023 2.04-1.29-.74-.28-1.297-.697-1.67-1.25-.373-.56-.56-1.223-.56-1.99 0-.533.103-1.03.31-1.49.213-.467.51-.87.89-1.21.387-.34.85-.607 1.39-.8a5.288 5.288 0 0 1 1.79-.29c.653 0 1.25.097 1.79.29.54.193 1 .46 1.38.8.387.34.683.743.89 1.21.213.46.32.957.32 1.49 0 .767-.187 1.43-.56 1.99-.373.553-.93.97-1.67 1.25zM200.95 354.88c0 .887.24 1.57.72 2.05.48.48 1.147.72 2 .72.46 0 .867-.073 1.22-.22.353-.153.65-.353.89-.6.247-.253.433-.543.56-.87.127-.333.19-.68.19-1.04 0-.433-.07-.823-.21-1.17a2.427 2.427 0 0 0-1.45-1.45 2.968 2.968 0 0 0-1.11-.2c-.42 0-.803.07-1.15.21a2.51 2.51 0 0 0-.89.57c-.247.247-.437.54-.57.88-.133.34-.2.713-.2 1.12zm3.94 4.44c.26-.34.503-.673.73-1-.36.273-.763.48-1.21.62-.44.14-.91.21-1.41.21-.527 0-1.033-.09-1.52-.27a3.84 3.84 0 0 1-1.28-.79 3.923 3.923 0 0 1-.88-1.3c-.22-.513-.33-1.103-.33-1.77 0-.627.117-1.217.35-1.77.233-.553.56-1.033.98-1.44a4.6 4.6 0 0 1 1.52-.97 5.15 5.15 0 0 1 1.95-.36c.7 0 1.333.113 1.9.34a4.11 4.11 0 0 1 1.46.96c.4.407.71.897.93 1.47.22.573.33 1.203.33 1.89 0 .42-.04.82-.12 1.2-.073.38-.183.75-.33 1.11a7.46 7.46 0 0 1-.52 1.07c-.2.347-.43.703-.69 1.07l-3.45 4.95c-.093.133-.23.243-.41.33-.173.087-.373.13-.6.13h-1.79l4.39-5.68zM170.22 254.51V256h-7.76v-1.49h3.04v-9.41c0-.3.01-.61.03-.93l-2.44 2.07a.696.696 0 0 1-.55.15.618.618 0 0 1-.22-.08 1.028 1.028 0 0 1-.15-.14l-.61-.85 4.3-3.71h1.59v12.9h2.77zm13.002-5.69c0 1.253-.137 2.34-.41 3.26-.267.92-.637 1.683-1.11 2.29a4.428 4.428 0 0 1-1.66 1.34 4.826 4.826 0 0 1-2.05.44c-.734 0-1.42-.147-2.06-.44-.634-.293-1.184-.74-1.65-1.34-.467-.607-.834-1.37-1.1-2.29-.267-.92-.4-2.007-.4-3.26 0-1.253.133-2.34.4-3.26.266-.927.633-1.69 1.1-2.29.466-.607 1.016-1.057 1.65-1.35a4.888 4.888 0 0 1 2.06-.44c.733 0 1.416.147 2.05.44.64.293 1.193.743 1.66 1.35.473.6.843 1.363 1.11 2.29.273.92.41 2.007.41 3.26zm-2.02 0c0-1.08-.09-1.983-.27-2.71-.174-.727-.41-1.31-.71-1.75-.294-.447-.634-.763-1.02-.95a2.747 2.747 0 0 0-2.42 0c-.387.187-.73.503-1.03.95-.294.44-.527 1.023-.7 1.75-.174.727-.26 1.63-.26 2.71s.086 1.983.26 2.71c.173.727.406 1.31.7 1.75.3.44.643.753 1.03.94a2.744 2.744 0 0 0 2.42 0c.386-.187.726-.5 1.02-.94.3-.44.536-1.023.71-1.75.18-.727.27-1.63.27-2.71zM194.22 153.51V155h-7.76v-1.49h3.04v-9.41c0-.3.01-.61.03-.93l-2.44 2.07a.696.696 0 0 1-.55.15.618.618 0 0 1-.22-.08 1.028 1.028 0 0 1-.15-.14l-.61-.85 4.3-3.71h1.59v12.9h2.77zm12.202 0V155h-7.76v-1.49h3.04v-9.41c0-.3.01-.61.03-.93l-2.44 2.07a.702.702 0 0 1-.55.15.611.611 0 0 1-.22-.08 1.028 1.028 0 0 1-.15-.14l-.61-.85 4.3-3.71h1.59v12.9h2.77zM261.22 81.51V83h-7.76v-1.49h3.04V72.1c0-.3.01-.61.03-.93l-2.44 2.07a.692.692 0 0 1-.55.15.624.624 0 0 1-.22-.08 1.028 1.028 0 0 1-.15-.14l-.61-.85 4.3-3.71h1.59v12.9h2.77zm11.842-.36c.213 0 .38.063.5.19.12.12.18.28.18.48V83h-9.64v-.67c0-.133.026-.273.08-.42.053-.153.143-.29.27-.41l4.54-4.55c.38-.38.723-.747 1.03-1.1a8.16 8.16 0 0 0 .78-1.05c.213-.353.376-.713.49-1.08.12-.367.18-.753.18-1.16 0-.4-.064-.75-.19-1.05-.127-.307-.3-.56-.52-.76-.22-.2-.48-.35-.78-.45-.3-.1-.624-.15-.97-.15-.347 0-.667.05-.96.15-.287.1-.544.24-.77.42-.227.18-.417.393-.57.64a2.602 2.602 0 0 0-.33.8c-.094.253-.214.423-.36.51-.14.087-.347.107-.62.06l-1.02-.18c.093-.667.276-1.253.55-1.76.273-.507.616-.93 1.03-1.27a4.2 4.2 0 0 1 1.42-.78c.54-.173 1.12-.26 1.74-.26a5.15 5.15 0 0 1 1.73.28c.533.18.993.443 1.38.79.386.347.69.77.91 1.27.22.493.33 1.053.33 1.68 0 .533-.08 1.03-.24 1.49a5.647 5.647 0 0 1-.64 1.3c-.267.413-.58.817-.94 1.21-.354.387-.73.78-1.13 1.18l-3.64 3.72c.28-.073.56-.133.84-.18.286-.047.556-.07.81-.07h4.53z" fill="#fff"/><defs><linearGradient id="g" x1="271.5" y1="428.706" x2="299.206" y2="416.706" gradientUnits="userSpaceOnUse"><stop stop-color="#5A73CD"/><stop offset="1" stop-color="#0E2B76"/></linearGradient><linearGradient id="a" x1="278.5" y1="280" x2="435.5" y2="212" gradientUnits="userSpaceOnUse"><stop stop-color="#5A73CD"/><stop offset="1" stop-color="#0E2B76"/></linearGradient><linearGradient id="c" x1="545.5" y1="221.706" x2="573.206" y2="209.706" gradientUnits="userSpaceOnUse"><stop stop-color="#5A73CD"/><stop offset="1" stop-color="#0E2B76"/></linearGradient><linearGradient id="d" x1="543.5" y1="315.706" x2="571.206" y2="303.706" gradientUnits="userSpaceOnUse"><stop stop-color="#5A73CD"/><stop offset="1" stop-color="#0E2B76"/></linearGradient><linearGradient id="e" x1="476.5" y1="398.706" x2="504.206" y2="386.706" gradientUnits="userSpaceOnUse"><stop stop-color="#5A73CD"/><stop offset="1" stop-color="#0E2B76"/></linearGradient><linearGradient id="f" x1="378.5" y1="440.706" x2="406.206" y2="428.706" gradientUnits="userSpaceOnUse"><stop stop-color="#5A73CD"/><stop offset="1" stop-color="#0E2B76"/></linearGradient><linearGradient id="b" x1="515.5" y1="136.706" x2="543.206" y2="124.706" gradientUnits="userSpaceOnUse"><stop stop-color="#5A73CD"/><stop offset="1" stop-color="#0E2B76"/></linearGradient><linearGradient id="h" x1="190.5" y1="363.706" x2="218.206" y2="351.706" gradientUnits="userSpaceOnUse"><stop stop-color="#5A73CD"/><stop offset="1" stop-color="#0E2B76"/></linearGradient><linearGradient id="i" x1="158.5" y1="254.706" x2="186.206" y2="242.706" gradientUnits="userSpaceOnUse"><stop stop-color="#5A73CD"/><stop offset="1" stop-color="#0E2B76"/></linearGradient><linearGradient id="j" x1="182.5" y1="153.706" x2="210.206" y2="141.706" gradientUnits="userSpaceOnUse"><stop stop-color="#5A73CD"/><stop offset="1" stop-color="#0E2B76"/></linearGradient><linearGradient id="k" x1="249.5" y1="82.706" x2="277.206" y2="70.706" gradientUnits="userSpaceOnUse"><stop stop-color="#5A73CD"/><stop offset="1" stop-color="#0E2B76"/></linearGradient><linearGradient id="l" x1="342.5" y1="58.706" x2="370.206" y2="46.706" gradientUnits="userSpaceOnUse"><stop stop-color="#5A73CD"/><stop offset="1" stop-color="#0E2B76"/></linearGradient><linearGradient id="m" x1="445.5" y1="81.706" x2="473.206" y2="69.706" gradientUnits="userSpaceOnUse"><stop stop-color="#5A73CD"/><stop offset="1" stop-color="#0E2B76"/></linearGradient></defs></svg>