<svg width="177" height="51" viewBox="0 0 177 51" fill="none" xmlns="http://www.w3.org/2000/svg">
<g clip-path="url(#clip0_988_61)">
<path d="M19.9819 45.7703L19.7666 45.6093L26.8309 35.7601L27.0462 35.9211L19.9819 45.7703Z" fill="#D61A3B"/>
<path d="M33.8955 1.15374L20.036 17.4304C19.9284 17.578 19.7131 17.5914 19.5651 17.4706C19.4709 17.3901 19.4305 17.2559 19.4574 17.1352L21.5969 6.60165C21.6238 6.50772 21.6911 6.41379 21.7853 6.37354L33.4919 0.630421C33.6533 0.54991 33.8552 0.617002 33.9359 0.791443C34.0032 0.912209 33.9763 1.04639 33.8955 1.15374ZM25.7144 9.72816L32.3347 1.94543L22.2293 6.89686L20.3724 16.008L25.7144 9.72816Z" fill="#319B87"/>
<path d="M12.756 8.22529L19.0399 15.9141L18.1787 10.9492L12.756 8.22529ZM19.3224 17.323L11.2489 7.4336C11.1547 7.33967 11.1278 7.19206 11.1951 7.05788C11.2758 6.89686 11.4777 6.82976 11.6526 6.91027L18.6093 10.4259C18.7169 10.4662 18.7842 10.5601 18.8111 10.6809L19.9145 17.0547C19.9414 17.1754 19.901 17.2962 19.7934 17.3767C19.6588 17.4975 19.4435 17.4706 19.3224 17.323Z" fill="#319B87"/>
<path d="M19.6321 17.5109L13.3348 14.5991C13.2271 14.5454 13.1733 14.4649 13.1464 14.3575L11.1684 7.2994C11.128 7.12496 11.2222 6.9371 11.4106 6.89684C11.5452 6.85659 11.6797 6.89684 11.7605 7.00419L20.0493 17.001C20.1569 17.1486 20.1435 17.3633 19.9954 17.4706C19.8878 17.5646 19.7532 17.578 19.6321 17.5109ZM13.7519 14.0489L18.5826 16.2898L12.2449 8.64125L13.7519 14.0489Z" fill="#319B87"/>
<path d="M21.2064 16.0751L27.7459 12.5192L32.2402 3.09944L21.2064 16.0751ZM28.1631 13.056L19.955 17.4975C19.8473 17.578 19.6859 17.5646 19.5648 17.4707C19.4302 17.3499 19.4168 17.1486 19.5244 17.001L33.3839 0.724364C33.4781 0.603598 33.6396 0.563342 33.7876 0.630435C33.9491 0.710946 34.0164 0.912223 33.9356 1.07325L28.3111 12.9084C28.2842 12.962 28.2303 13.0157 28.1631 13.056Z" fill="#319B87"/>
<path fill-rule="evenodd" clip-rule="evenodd" d="M21.9331 7.60805C22.4444 7.60805 22.875 7.19208 22.875 6.66876C22.875 6.15885 22.4444 5.72946 21.9331 5.72946C21.4083 5.72946 20.9912 6.15885 20.9912 6.66876C20.9912 7.19208 21.4083 7.60805 21.9331 7.60805Z" fill="#319B87"/>
<path fill-rule="evenodd" clip-rule="evenodd" d="M18.4751 11.6738C18.9999 11.6738 19.417 11.2579 19.417 10.7346C19.417 10.2112 18.9999 9.79526 18.4751 9.79526C17.9638 9.79526 17.5332 10.2112 17.5332 10.7346C17.5332 11.2579 17.9638 11.6738 18.4751 11.6738Z" fill="#319B87"/>
<path fill-rule="evenodd" clip-rule="evenodd" d="M24.5298 12.5863C25.0411 12.5863 25.4717 12.1703 25.4717 11.647C25.4717 11.1237 25.0411 10.7077 24.5298 10.7077C24.005 10.7077 23.5879 11.1237 23.5879 11.647C23.5879 12.1703 24.005 12.5863 24.5298 12.5863Z" fill="#319B87"/>
<path fill-rule="evenodd" clip-rule="evenodd" d="M11.4912 8.15819C12.016 8.15819 12.4331 7.7288 12.4331 7.2189C12.4331 6.69558 12.016 6.2796 11.4912 6.2796C10.9799 6.2796 10.5493 6.69558 10.5493 7.2189C10.5493 7.7288 10.9799 8.15819 11.4912 8.15819Z" fill="#319B87"/>
<path fill-rule="evenodd" clip-rule="evenodd" d="M13.4693 15.2298C13.994 15.2298 14.4112 14.8138 14.4112 14.2905C14.4112 13.7671 13.994 13.3512 13.4693 13.3512C12.9579 13.3512 12.5273 13.7671 12.5273 14.2905C12.5273 14.8138 12.9579 15.2298 13.4693 15.2298Z" fill="#319B87"/>
<path fill-rule="evenodd" clip-rule="evenodd" d="M28.0015 13.7001C28.5263 13.7001 28.9434 13.2841 28.9434 12.7608C28.9434 12.2509 28.5263 11.8215 28.0015 11.8215C27.4902 11.8215 27.0596 12.2509 27.0596 12.7608C27.0596 13.2841 27.4902 13.7001 28.0015 13.7001Z" fill="#319B87"/>
<path fill-rule="evenodd" clip-rule="evenodd" d="M33.6397 1.87835C34.1644 1.87835 34.5816 1.44895 34.5816 0.939051C34.5816 0.415729 34.1644 -0.000244141 33.6397 -0.000244141C33.1149 -0.000244141 32.6978 0.415729 32.6978 0.939051C32.6978 1.44895 33.1149 1.87835 33.6397 1.87835Z" fill="#319B87"/>
<path d="M24.2205 11.808L21.6235 6.82977L22.229 6.52115L24.826 11.4994L24.2205 11.808Z" fill="#319B87"/>
<path fill-rule="evenodd" clip-rule="evenodd" d="M19.5919 18.3429C20.2647 18.3429 20.8164 17.7927 20.8164 17.1218C20.8164 16.4374 20.2647 15.8873 19.5919 15.8873C18.9057 15.8873 18.354 16.4374 18.354 17.1218C18.354 17.7927 18.9057 18.3429 19.5919 18.3429Z" fill="#319B87"/>
<path d="M24.5705 11.5262L28.0421 12.64L27.9614 12.8949L24.4897 11.7812L24.5705 11.5262Z" fill="#319B87"/>
<path d="M13.3887 14.1831L18.3943 10.6272L18.5557 10.8419L13.5501 14.3978L13.3887 14.1831Z" fill="#319B87"/>
<path d="M11.7203 28.2054L19.8207 24.5288L19.9284 24.7837L11.9356 28.3933L9.48662 35.8674L9.23096 35.7735L11.7203 28.2054Z" fill="#D61A3B"/>
<path d="M9.36518 46.0386L8.69238 46.0252L9.01532 35.8137L9.68812 35.8271L9.36518 46.0386Z" fill="#D61A3B"/>
<path fill-rule="evenodd" clip-rule="evenodd" d="M30.1412 20.4764C30.8678 20.4764 31.4464 19.886 31.4464 19.1748C31.4464 18.4502 30.8678 17.8732 30.1412 17.8732C29.4145 17.8732 28.8359 18.4502 28.8359 19.1748C28.8359 19.886 29.4145 20.4764 30.1412 20.4764Z" fill="#D61A3B"/>
<path fill-rule="evenodd" clip-rule="evenodd" d="M32.3747 46.8035C33.1282 46.8035 33.7337 46.1862 33.7337 45.4348C33.7337 44.6834 33.1282 44.0795 32.3747 44.0795C31.6211 44.0795 31.0156 44.6834 31.0156 45.4348C31.0156 46.1862 31.6211 46.8035 32.3747 46.8035Z" fill="#D61A3B"/>
<path fill-rule="evenodd" clip-rule="evenodd" d="M24.9605 49.9971C25.4852 49.9971 25.9024 49.5677 25.9024 49.0578C25.9024 48.5345 25.4852 48.1185 24.9605 48.1185C24.4357 48.1185 24.0186 48.5345 24.0186 49.0578C24.0186 49.5677 24.4357 49.9971 24.9605 49.9971Z" fill="#D61A3B"/>
<path fill-rule="evenodd" clip-rule="evenodd" d="M9.02882 46.9779C9.5536 46.9779 9.97073 46.5485 9.97073 46.0386C9.97073 45.5153 9.5536 45.0993 9.02882 45.0993C8.50405 45.0993 8.08691 45.5153 8.08691 46.0386C8.08691 46.5485 8.50405 46.9779 9.02882 46.9779Z" fill="#D61A3B"/>
<path fill-rule="evenodd" clip-rule="evenodd" d="M9.35185 37.4776C10.2668 37.4776 11.0069 36.7396 11.0069 35.8137C11.0069 34.9013 10.2668 34.1633 9.35185 34.1633C8.43685 34.1633 7.69678 34.9013 7.69678 35.8137C7.69678 36.7396 8.43685 37.4776 9.35185 37.4776Z" fill="#D61A3B"/>
<path fill-rule="evenodd" clip-rule="evenodd" d="M19.8745 25.5888C20.3858 25.5888 20.8164 25.1729 20.8164 24.6495C20.8164 24.1396 20.3858 23.7102 19.8745 23.7102C19.3497 23.7102 18.9326 24.1396 18.9326 24.6495C18.9326 25.1729 19.3497 25.5888 19.8745 25.5888Z" fill="#D61A3B"/>
<path fill-rule="evenodd" clip-rule="evenodd" d="M0.94191 29.3057C1.45323 29.3057 1.88382 28.8898 1.88382 28.3664C1.88382 27.8565 1.45323 27.4272 0.94191 27.4272C0.417132 27.4272 0 27.8565 0 28.3664C0 28.8898 0.417132 29.3057 0.94191 29.3057Z" fill="#D61A3B"/>
<path fill-rule="evenodd" clip-rule="evenodd" d="M26.9386 38.1351C28.2035 38.1351 29.2396 37.1019 29.2396 35.8406C29.2396 34.5792 28.2035 33.546 26.9386 33.546C25.6738 33.546 24.6377 34.5792 24.6377 35.8406C24.6377 37.1019 25.6738 38.1351 26.9386 38.1351Z" fill="#D61A3B"/>
<path fill-rule="evenodd" clip-rule="evenodd" d="M17.4119 36.176C18.2058 36.176 18.8517 35.5319 18.8517 34.7403C18.8517 33.9486 18.2058 33.3045 17.4119 33.3045C16.618 33.3045 15.9722 33.9486 15.9722 34.7403C15.9722 35.5319 16.618 36.176 17.4119 36.176Z" fill="#D61A3B"/>
<path fill-rule="evenodd" clip-rule="evenodd" d="M11.8277 29.2387C12.3524 29.2387 12.7696 28.8227 12.7696 28.2994C12.7696 27.7761 12.3524 27.3601 11.8277 27.3601C11.3163 27.3601 10.8857 27.7761 10.8857 28.2994C10.8857 28.8227 11.3163 29.2387 11.8277 29.2387Z" fill="#D61A3B"/>
<path fill-rule="evenodd" clip-rule="evenodd" d="M14.5998 49.8495C15.0977 49.8495 15.5013 49.4469 15.5013 48.9639C15.5013 48.4674 15.0977 48.0648 14.5998 48.0648C14.1019 48.0648 13.6982 48.4674 13.6982 48.9639C13.6982 49.4469 14.1019 49.8495 14.5998 49.8495Z" fill="#D61A3B"/>
<path fill-rule="evenodd" clip-rule="evenodd" d="M38.8069 30.6744C40.0179 30.6744 41.0002 29.6949 41.0002 28.4738C41.0002 27.2661 40.0179 26.2866 38.8069 26.2866C37.5824 26.2866 36.6001 27.2661 36.6001 28.4738C36.6001 29.6949 37.5824 30.6744 38.8069 30.6744Z" fill="#D61A3B"/>
<path fill-rule="evenodd" clip-rule="evenodd" d="M9.36512 21.2815C10.1052 21.2815 10.6972 20.6911 10.6972 19.9396C10.6972 19.2016 10.1052 18.6112 9.36512 18.6112C8.61159 18.6112 8.01953 19.2016 8.01953 19.9396C8.01953 20.6911 8.61159 21.2815 9.36512 21.2815Z" fill="#D61A3B"/>
<path d="M0.336455 28.6348C0.201897 28.5141 0.174985 28.2994 0.296088 28.1518C0.41719 28.0176 0.632484 28.0042 0.767043 28.1249L9.45953 35.4648L16.7526 34.4853L11.5721 28.5141C11.451 28.3799 11.4779 28.1652 11.6125 28.0444C11.747 27.9236 11.9623 27.9371 12.0834 28.0847L17.6676 34.5121C17.708 34.5658 17.7349 34.6329 17.7483 34.7C17.7752 34.8744 17.6407 35.0489 17.4523 35.0757L9.4057 36.1492C9.31151 36.1626 9.21732 36.1358 9.13659 36.0687L0.336455 28.6348Z" fill="#D61A3B"/>
<path d="M32.6708 45.2738C32.7515 45.4348 32.6977 45.6361 32.5362 45.73C32.3748 45.8239 32.1729 45.7702 32.0787 45.6092L26.6426 36.0016C26.5618 35.8406 26.6156 35.6393 26.7771 35.5454C26.9386 35.4648 27.1404 35.5185 27.2346 35.6795L32.6708 45.2738Z" fill="#D61A3B"/>
<path d="M17.3717 35.0757C17.1967 35.0489 17.0622 34.8879 17.0756 34.7C17.1025 34.5121 17.264 34.3914 17.4524 34.4048L26.858 35.4917L39.0087 28.0847C39.1702 27.9907 39.372 28.0444 39.4796 28.2054C39.5738 28.353 39.52 28.5677 39.3585 28.6617L27.1272 36.1224C27.0599 36.1626 26.9791 36.1894 26.8984 36.176L17.3717 35.0757Z" fill="#D61A3B"/>
<path d="M9.29805 46.2265C9.1904 46.3741 8.97511 46.4143 8.82709 46.307C8.67908 46.1862 8.65217 45.985 8.75981 45.8374L17.1428 34.539C17.2505 34.3914 17.4658 34.3645 17.6138 34.4719C17.681 34.5256 17.7214 34.5926 17.7483 34.6732L20.1973 45.6227C20.2377 45.7971 20.13 45.985 19.9416 46.0252C19.7667 46.052 19.5783 45.9447 19.5514 45.7703L17.2505 35.5319L9.29805 46.2265Z" fill="#D61A3B"/>
<path d="M25.391 48.4674L32.1055 45.1933L38.7931 28.447L30.3562 19.8591L27.2748 35.8942L25.391 48.4674ZM32.5226 45.7434L25.1085 49.353C25.0546 49.3798 24.9874 49.3933 24.9066 49.3798C24.7317 49.353 24.5971 49.192 24.624 49.0041C26.1715 38.6853 27.84 29.3997 29.818 19.1077C29.818 19.0406 29.8584 18.9869 29.9122 18.9333C30.0333 18.7991 30.2486 18.8125 30.3832 18.9333L39.4255 28.1384C39.5197 28.2323 39.5466 28.3665 39.5062 28.5007L32.6976 45.5421C32.6706 45.6227 32.6034 45.7032 32.5226 45.7434Z" fill="#D61A3B"/>
<path d="M30.3966 19.3895L17.6674 34.955C17.5597 35.0892 17.3444 35.116 17.1964 34.9952C17.1022 34.9147 17.0618 34.7805 17.0888 34.6463L19.5512 24.5825C19.5646 24.4751 19.6319 24.3946 19.7261 24.3544L29.9795 18.8796C30.1409 18.7857 30.3562 18.8528 30.437 19.0138C30.5042 19.1346 30.4773 19.2822 30.3966 19.3895ZM18.0845 33.385L28.8223 20.2617L20.1567 24.8777L18.0845 33.385Z" fill="#D61A3B"/>
<path d="M1.35919 28.031L11.3838 27.9639L9.06939 20.1946L1.35919 28.031ZM11.8278 28.6348L0.565292 28.7019C0.484557 28.7153 0.390366 28.6751 0.323087 28.608C0.188528 28.4872 0.188528 28.2725 0.323087 28.1383L8.9752 19.3224C9.01557 19.2821 9.06939 19.2553 9.13667 19.2285C9.3116 19.1748 9.49998 19.2821 9.5538 19.4566L12.1508 28.2054C12.1642 28.2323 12.1642 28.2591 12.1642 28.2994C12.1642 28.4872 12.0162 28.6348 11.8278 28.6348Z" fill="#D61A3B"/>
<path d="M9.29777 19.9531L0.955135 28.447L9.28431 45.7837L14.7608 48.6686L19.6857 45.4079C19.8068 45.3409 19.9548 45.3409 20.0625 45.4214L24.9873 48.6686L32.1054 45.1933L38.793 28.447L30.0736 19.5908L20.0355 24.9447C19.9279 24.9984 19.8202 24.9984 19.7261 24.9582L9.29777 19.9531ZM0.322709 28.1383L8.98828 19.3224C9.08247 19.215 9.24394 19.1882 9.3785 19.2553L19.8606 24.2872L29.966 18.8796C30.1005 18.8125 30.2755 18.8259 30.3831 18.9332L39.4254 28.1383C39.5196 28.2323 39.5465 28.3665 39.5062 28.5006L32.6975 45.5421C32.6706 45.6226 32.6033 45.7032 32.5226 45.7434L25.1084 49.353C25.0008 49.4067 24.8797 49.3932 24.772 49.3261L19.8741 46.0923L14.9627 49.3261C14.8685 49.3932 14.7339 49.4067 14.6263 49.353L8.88064 46.3338C8.81336 46.2936 8.75953 46.2399 8.73262 46.1728L0.25543 28.5409C0.188151 28.4067 0.215063 28.2457 0.322709 28.1383Z" fill="#D61A3B"/>
</g>
<path d="M60.5767 14.1193V12.9602H61.1009C61.3196 12.9602 61.5 12.9233 61.642 12.8494C61.7869 12.7756 61.9048 12.6761 61.9957 12.5511C62.0895 12.4233 62.1676 12.2841 62.2301 12.1335L62.3537 11.8224L59.2855 5.27273H60.6832L62.9716 10.3182L65.0085 5.27273H66.3892L63.3722 12.4872C63.2443 12.777 63.0966 13.0455 62.929 13.2926C62.7642 13.5398 62.544 13.7401 62.2685 13.8935C61.9929 14.044 61.6278 14.1193 61.1733 14.1193H60.5767ZM67.0518 14V7.45455H72.3913V14H71.1428V8.55398H68.2919V14H67.0518ZM74.0948 16.4545V7.45455H75.3391V8.51562H75.4457C75.5195 8.37926 75.6261 8.22159 75.7653 8.04261C75.9045 7.86364 76.0977 7.70739 76.3448 7.57386C76.592 7.4375 76.9187 7.36932 77.3249 7.36932C77.8533 7.36932 78.3249 7.50284 78.7397 7.76989C79.1545 8.03693 79.4798 8.42187 79.7156 8.92472C79.9542 9.42756 80.0735 10.0327 80.0735 10.7401C80.0735 11.4474 79.9556 12.054 79.7198 12.5597C79.484 13.0625 79.1602 13.4503 78.7482 13.723C78.3363 13.9929 77.8661 14.1278 77.3377 14.1278C76.94 14.1278 76.6147 14.0611 76.3619 13.9276C76.1119 13.794 75.9158 13.6378 75.7738 13.4588C75.6317 13.2798 75.5224 13.1207 75.4457 12.9815H75.369V16.4545H74.0948ZM75.3434 10.7273C75.3434 11.1875 75.4102 11.5909 75.5437 11.9375C75.6772 12.2841 75.8704 12.5554 76.1232 12.7514C76.3761 12.9446 76.6857 13.0412 77.0522 13.0412C77.4329 13.0412 77.7511 12.9403 78.0067 12.7386C78.2624 12.5341 78.4556 12.2571 78.5863 11.9077C78.7198 11.5582 78.7866 11.1648 78.7866 10.7273C78.7866 10.2955 78.7212 9.90767 78.5906 9.56392C78.4627 9.22017 78.2695 8.94886 78.011 8.75C77.7553 8.55114 77.4357 8.4517 77.0522 8.4517C76.6829 8.4517 76.3704 8.54687 76.1147 8.73722C75.8619 8.92756 75.6701 9.19318 75.5394 9.53409C75.4087 9.875 75.3434 10.2727 75.3434 10.7273ZM83.4059 14.1449C82.9911 14.1449 82.6161 14.0682 82.2809 13.9148C81.9457 13.7585 81.68 13.5327 81.484 13.2372C81.2908 12.9418 81.1942 12.5795 81.1942 12.1506C81.1942 11.7812 81.2653 11.4773 81.4073 11.2386C81.5494 11 81.7411 10.8111 81.9826 10.6719C82.2241 10.5327 82.494 10.4276 82.7923 10.3565C83.0906 10.2855 83.3945 10.2315 83.7042 10.1946C84.0962 10.1491 84.4144 10.1122 84.6587 10.0838C84.9031 10.0526 85.0806 10.0028 85.1914 9.93466C85.3022 9.86648 85.3576 9.75568 85.3576 9.60227V9.57244C85.3576 9.20028 85.2525 8.91193 85.0423 8.70739C84.8349 8.50284 84.5252 8.40057 84.1133 8.40057C83.6843 8.40057 83.3462 8.49574 83.0991 8.68608C82.8548 8.87358 82.6857 9.08239 82.592 9.3125L81.3945 9.03977C81.5366 8.64205 81.744 8.32102 82.0167 8.0767C82.2923 7.82955 82.609 7.65057 82.967 7.53977C83.3249 7.42614 83.7013 7.36932 84.0962 7.36932C84.3576 7.36932 84.6346 7.40057 84.9272 7.46307C85.2227 7.52273 85.4982 7.63352 85.7539 7.79545C86.0124 7.95739 86.2241 8.18892 86.3888 8.49006C86.5536 8.78835 86.636 9.17614 86.636 9.65341V14H85.3917V13.1051H85.3406C85.2582 13.2699 85.1346 13.4318 84.9698 13.5909C84.805 13.75 84.5934 13.8821 84.3349 13.9872C84.0763 14.0923 83.7667 14.1449 83.4059 14.1449ZM83.6829 13.1222C84.0352 13.1222 84.3363 13.0526 84.5863 12.9134C84.8391 12.7741 85.0309 12.5923 85.1616 12.3679C85.2951 12.1406 85.3619 11.8977 85.3619 11.6392V10.7955C85.3164 10.8409 85.2283 10.8835 85.0977 10.9233C84.9698 10.9602 84.8235 10.9929 84.6587 11.0213C84.494 11.0469 84.3335 11.071 84.1772 11.0938C84.021 11.1136 83.8903 11.1307 83.7852 11.1449C83.538 11.1761 83.3121 11.2287 83.1076 11.3026C82.9059 11.3764 82.744 11.483 82.6218 11.6222C82.5025 11.7585 82.4428 11.9403 82.4428 12.1676C82.4428 12.483 82.5593 12.7216 82.7923 12.8835C83.0252 13.0426 83.3221 13.1222 83.6829 13.1222ZM88.3331 14V7.45455H91.0476C91.7862 7.45455 92.3714 7.61222 92.8033 7.92756C93.2351 8.24006 93.451 8.66477 93.451 9.2017C93.451 9.58523 93.3288 9.8892 93.0845 10.1136C92.8402 10.3381 92.5163 10.4886 92.1129 10.5653C92.4055 10.5994 92.674 10.6875 92.9183 10.8295C93.1626 10.9687 93.3587 11.1562 93.5064 11.392C93.657 11.6278 93.7322 11.9091 93.7322 12.2358C93.7322 12.5824 93.6428 12.8892 93.4638 13.1562C93.2848 13.4205 93.0249 13.6278 92.6839 13.7784C92.3459 13.9261 91.9382 14 91.4609 14H88.3331ZM89.5305 12.9347H91.4609C91.7763 12.9347 92.0234 12.8594 92.2024 12.7088C92.3814 12.5582 92.4709 12.3537 92.4709 12.0952C92.4709 11.7912 92.3814 11.5526 92.2024 11.3793C92.0234 11.2031 91.7763 11.1151 91.4609 11.1151H89.5305V12.9347ZM89.5305 10.1818H91.0604C91.299 10.1818 91.5036 10.1477 91.674 10.0795C91.8473 10.0114 91.9794 9.91477 92.0703 9.78977C92.1641 9.66193 92.2109 9.51136 92.2109 9.33807C92.2109 9.08523 92.1072 8.88778 91.8999 8.74574C91.6925 8.60369 91.4084 8.53267 91.0476 8.53267H89.5305V10.1818ZM94.6143 14L94.6101 12.8963H94.8445C95.0263 12.8963 95.1783 12.858 95.3004 12.7812C95.4254 12.7017 95.5277 12.5682 95.6072 12.3807C95.6868 12.1932 95.7479 11.9347 95.7905 11.6051C95.8331 11.2727 95.8643 10.8551 95.8842 10.3523L95.9993 7.45455H100.567V14H99.3189V8.55398H97.1797L97.0774 10.7784C97.0518 11.3182 96.9964 11.7898 96.9112 12.1932C96.8288 12.5966 96.7081 12.9332 96.549 13.2031C96.3899 13.4702 96.1854 13.6705 95.9354 13.804C95.6854 13.9347 95.3814 14 95.0234 14H94.6143ZM105.088 14.1321C104.443 14.1321 103.887 13.9943 103.422 13.7188C102.958 13.4403 102.6 13.0497 102.348 12.5469C102.098 12.0412 101.973 11.4489 101.973 10.7699C101.973 10.0994 102.098 9.50852 102.348 8.99716C102.6 8.4858 102.953 8.08665 103.404 7.79972C103.859 7.51278 104.39 7.36932 104.998 7.36932C105.368 7.36932 105.725 7.4304 106.072 7.55256C106.419 7.67472 106.73 7.86648 107.005 8.12784C107.281 8.3892 107.498 8.72869 107.657 9.14631C107.816 9.56108 107.896 10.0653 107.896 10.6591V11.1108H102.693V10.1562H106.647C106.647 9.82102 106.579 9.52415 106.443 9.26562C106.306 9.00426 106.115 8.7983 105.868 8.64773C105.623 8.49716 105.336 8.42188 105.007 8.42188C104.649 8.42188 104.336 8.50994 104.069 8.68608C103.805 8.85937 103.6 9.08665 103.456 9.3679C103.314 9.64631 103.243 9.94886 103.243 10.2756V11.0213C103.243 11.4588 103.319 11.831 103.473 12.1378C103.629 12.4446 103.846 12.679 104.125 12.8409C104.403 13 104.728 13.0795 105.1 13.0795C105.342 13.0795 105.562 13.0455 105.761 12.9773C105.96 12.9062 106.132 12.8011 106.277 12.6619C106.422 12.5227 106.532 12.3509 106.609 12.1463L107.815 12.3636C107.718 12.7187 107.545 13.0298 107.295 13.2969C107.048 13.5611 106.737 13.767 106.362 13.9148C105.99 14.0597 105.565 14.1321 105.088 14.1321ZM113.746 10.1776V11.2812H110.2V10.1776H113.746ZM110.558 7.45455V14H109.31V7.45455H110.558ZM114.636 7.45455V14H113.392V7.45455H114.636ZM117.589 12.2145L120.474 7.45455H121.847V14H120.598V9.2358L117.726 14H116.341V7.45455H117.589V12.2145ZM126.381 14.1321C125.736 14.1321 125.18 13.9943 124.714 13.7188C124.251 13.4403 123.893 13.0497 123.641 12.5469C123.391 12.0412 123.266 11.4489 123.266 10.7699C123.266 10.0994 123.391 9.50852 123.641 8.99716C123.893 8.4858 124.246 8.08665 124.697 7.79972C125.152 7.51278 125.683 7.36932 126.291 7.36932C126.661 7.36932 127.018 7.4304 127.365 7.55256C127.712 7.67472 128.023 7.86648 128.298 8.12784C128.574 8.3892 128.791 8.72869 128.95 9.14631C129.109 9.56108 129.189 10.0653 129.189 10.6591V11.1108H123.986V10.1562H127.94C127.94 9.82102 127.872 9.52415 127.736 9.26562C127.599 9.00426 127.408 8.7983 127.161 8.64773C126.916 8.49716 126.629 8.42188 126.3 8.42188C125.942 8.42188 125.629 8.50994 125.362 8.68608C125.098 8.85937 124.893 9.08665 124.749 9.3679C124.607 9.64631 124.536 9.94886 124.536 10.2756V11.0213C124.536 11.4588 124.612 11.831 124.766 12.1378C124.922 12.4446 125.139 12.679 125.418 12.8409C125.696 13 126.021 13.0795 126.393 13.0795C126.635 13.0795 126.855 13.0455 127.054 12.9773C127.253 12.9062 127.425 12.8011 127.57 12.6619C127.714 12.5227 127.825 12.3509 127.902 12.1463L129.108 12.3636C129.011 12.7187 128.838 13.0298 128.588 13.2969C128.341 13.5611 128.03 13.767 127.655 13.9148C127.283 14.0597 126.858 14.1321 126.381 14.1321ZM70.6023 31.4489L70.4489 35.75H68.6989V33H67.8807V31.4489H70.6023ZM60.2784 33V21.3636H61.9602V31.4773H67.5739V21.3636H69.2614V33H60.2784ZM74.0568 30.6193L77.9034 24.2727H79.733V33H78.0682V26.6477L74.2386 33H72.392V24.2727H74.0568V30.6193ZM85.7727 35.9716V21.3636H87.4716V35.9716H85.7727ZM85.7727 33.1761C85.1553 33.1761 84.5928 33.0701 84.0852 32.858C83.5777 32.642 83.1402 32.3352 82.7727 31.9375C82.4053 31.5398 82.1212 31.0644 81.9205 30.5114C81.7235 29.9583 81.625 29.3466 81.625 28.6761C81.625 27.9981 81.7235 27.3826 81.9205 26.8295C82.1212 26.2765 82.4053 25.8011 82.7727 25.4034C83.1402 25.0057 83.5777 24.6989 84.0852 24.483C84.5928 24.267 85.1553 24.1591 85.7727 24.1591H86.1932V33.1761H85.7727ZM85.7727 31.7443H86.0114V25.5909H85.7727C85.3636 25.5909 85.0076 25.6742 84.7045 25.8409C84.4015 26.0038 84.1496 26.2292 83.9489 26.517C83.7481 26.8011 83.5966 27.1288 83.4943 27.5C83.3958 27.8712 83.3466 28.2633 83.3466 28.6761C83.3466 29.2292 83.4356 29.7386 83.6136 30.2045C83.7917 30.6667 84.0606 31.0398 84.4205 31.3239C84.7803 31.6042 85.2311 31.7443 85.7727 31.7443ZM87.4716 33.1761H87.0455V24.1591H87.4716C88.089 24.1591 88.6515 24.267 89.1591 24.483C89.6667 24.6989 90.1023 25.0057 90.4659 25.4034C90.8333 25.8011 91.1155 26.2765 91.3125 26.8295C91.5133 27.3826 91.6136 27.9981 91.6136 28.6761C91.6136 29.3466 91.5133 29.9583 91.3125 30.5114C91.1155 31.0644 90.8333 31.5398 90.4659 31.9375C90.1023 32.3352 89.6667 32.642 89.1591 32.858C88.6515 33.0701 88.089 33.1761 87.4716 33.1761ZM87.4716 31.7443C87.8807 31.7443 88.2367 31.6648 88.5398 31.5057C88.8428 31.3428 89.0947 31.1193 89.2955 30.8352C89.4962 30.5473 89.6458 30.2197 89.7443 29.8523C89.8428 29.4811 89.892 29.089 89.892 28.6761C89.892 28.1269 89.803 27.6193 89.625 27.1534C89.4508 26.6837 89.1837 26.3068 88.8239 26.0227C88.464 25.7348 88.0133 25.5909 87.4716 25.5909H87.2273V31.7443H87.4716ZM93.5014 36.2727V24.2727H95.1605V25.6875H95.3026C95.401 25.5057 95.5431 25.2955 95.7287 25.0568C95.9143 24.8182 96.1719 24.6098 96.5014 24.4318C96.831 24.25 97.2666 24.1591 97.8082 24.1591C98.5128 24.1591 99.1416 24.3371 99.6946 24.6932C100.248 25.0492 100.681 25.5625 100.996 26.233C101.314 26.9034 101.473 27.7102 101.473 28.6534C101.473 29.5966 101.316 30.4053 101.001 31.0795C100.687 31.75 100.255 32.267 99.706 32.6307C99.1567 32.9905 98.5298 33.1705 97.8253 33.1705C97.295 33.1705 96.8613 33.0814 96.5241 32.9034C96.1908 32.7254 95.9295 32.517 95.7401 32.2784C95.5507 32.0398 95.4048 31.8277 95.3026 31.642H95.2003V36.2727H93.5014ZM95.1662 28.6364C95.1662 29.25 95.2552 29.7879 95.4332 30.25C95.6113 30.7121 95.8688 31.0739 96.206 31.3352C96.5431 31.5928 96.956 31.7216 97.4446 31.7216C97.9522 31.7216 98.3764 31.5871 98.7173 31.3182C99.0582 31.0455 99.3158 30.6761 99.4901 30.2102C99.6681 29.7443 99.7571 29.2197 99.7571 28.6364C99.7571 28.0606 99.67 27.5436 99.4957 27.0852C99.3253 26.6269 99.0677 26.2652 98.723 26C98.3821 25.7348 97.956 25.6023 97.4446 25.6023C96.9522 25.6023 96.5355 25.7292 96.1946 25.983C95.8575 26.2367 95.6018 26.5909 95.4276 27.0455C95.2533 27.5 95.1662 28.0303 95.1662 28.6364ZM107.053 33.1761C106.234 33.1761 105.52 32.9886 104.911 32.6136C104.301 32.2386 103.827 31.714 103.49 31.0398C103.153 30.3655 102.984 29.5777 102.984 28.6761C102.984 27.7708 103.153 26.9792 103.49 26.3011C103.827 25.6231 104.301 25.0966 104.911 24.7216C105.52 24.3466 106.234 24.1591 107.053 24.1591C107.871 24.1591 108.585 24.3466 109.195 24.7216C109.804 25.0966 110.278 25.6231 110.615 26.3011C110.952 26.9792 111.121 27.7708 111.121 28.6761C111.121 29.5777 110.952 30.3655 110.615 31.0398C110.278 31.714 109.804 32.2386 109.195 32.6136C108.585 32.9886 107.871 33.1761 107.053 33.1761ZM107.058 31.75C107.589 31.75 108.028 31.6098 108.376 31.3295C108.725 31.0492 108.982 30.6761 109.149 30.2102C109.32 29.7443 109.405 29.2311 109.405 28.6705C109.405 28.1136 109.32 27.6023 109.149 27.1364C108.982 26.6667 108.725 26.2898 108.376 26.0057C108.028 25.7216 107.589 25.5795 107.058 25.5795C106.524 25.5795 106.081 25.7216 105.729 26.0057C105.38 26.2898 105.121 26.6667 104.95 27.1364C104.784 27.6023 104.7 28.1136 104.7 28.6705C104.7 29.2311 104.784 29.7443 104.95 30.2102C105.121 30.6761 105.38 31.0492 105.729 31.3295C106.081 31.6098 106.524 31.75 107.058 31.75ZM113.017 33V24.2727H116.636C117.621 24.2727 118.402 24.483 118.977 24.9034C119.553 25.3201 119.841 25.8864 119.841 26.6023C119.841 27.1136 119.678 27.5189 119.352 27.8182C119.027 28.1174 118.595 28.3182 118.057 28.4205C118.447 28.4659 118.805 28.5833 119.131 28.7727C119.456 28.9583 119.718 29.2083 119.915 29.5227C120.116 29.8371 120.216 30.2121 120.216 30.6477C120.216 31.1098 120.097 31.5189 119.858 31.875C119.619 32.2273 119.273 32.5038 118.818 32.7045C118.367 32.9015 117.824 33 117.188 33H113.017ZM114.614 31.5795H117.188C117.608 31.5795 117.938 31.4792 118.176 31.2784C118.415 31.0777 118.534 30.8049 118.534 30.4602C118.534 30.0549 118.415 29.7367 118.176 29.5057C117.938 29.2708 117.608 29.1534 117.188 29.1534H114.614V31.5795ZM114.614 27.9091H116.653C116.972 27.9091 117.244 27.8636 117.472 27.7727C117.703 27.6818 117.879 27.553 118 27.3864C118.125 27.2159 118.188 27.0152 118.188 26.7841C118.188 26.447 118.049 26.1837 117.773 25.9943C117.496 25.8049 117.117 25.7102 116.636 25.7102H114.614V27.9091ZM123.744 30.6193L127.591 24.2727H129.42V33H127.756V26.6477L123.926 33H122.08V24.2727H123.744V30.6193ZM131.188 30.6932H132.926C132.949 31.0492 133.11 31.3239 133.409 31.517C133.712 31.7102 134.104 31.8068 134.585 31.8068C135.074 31.8068 135.491 31.7027 135.835 31.4943C136.18 31.2822 136.352 30.9545 136.352 30.5114C136.352 30.2462 136.286 30.0152 136.153 29.8182C136.025 29.6174 135.841 29.4621 135.602 29.3523C135.367 29.2424 135.089 29.1875 134.767 29.1875H133.347V27.8523H134.767C135.248 27.8523 135.608 27.7424 135.847 27.5227C136.085 27.303 136.205 27.0284 136.205 26.6989C136.205 26.3428 136.076 26.0568 135.818 25.8409C135.564 25.6212 135.21 25.5114 134.756 25.5114C134.294 25.5114 133.909 25.6155 133.602 25.8239C133.295 26.0284 133.134 26.2936 133.119 26.6193H131.403C131.415 26.1307 131.563 25.7027 131.847 25.3352C132.134 24.964 132.521 24.6761 133.006 24.4716C133.494 24.2633 134.049 24.1591 134.67 24.1591C135.318 24.1591 135.879 24.2633 136.352 24.4716C136.826 24.6799 137.191 24.9678 137.449 25.3352C137.71 25.7027 137.841 26.125 137.841 26.6023C137.841 27.0833 137.697 27.4773 137.409 27.7841C137.125 28.0871 136.754 28.3049 136.295 28.4375V28.5284C136.633 28.5511 136.932 28.6534 137.193 28.8352C137.455 29.017 137.659 29.2576 137.807 29.5568C137.955 29.8561 138.028 30.1951 138.028 30.5739C138.028 31.108 137.881 31.5701 137.585 31.9602C137.294 32.3504 136.888 32.6515 136.369 32.8636C135.854 33.072 135.265 33.1761 134.602 33.1761C133.958 33.1761 133.381 33.0758 132.869 32.875C132.362 32.6705 131.958 32.3826 131.659 32.0114C131.364 31.6402 131.206 31.2008 131.188 30.6932ZM142.322 33.1932C141.769 33.1932 141.269 33.0909 140.822 32.8864C140.375 32.678 140.021 32.3769 139.76 31.983C139.502 31.589 139.374 31.1061 139.374 30.5341C139.374 30.0417 139.468 29.6364 139.658 29.3182C139.847 29 140.103 28.7481 140.425 28.5625C140.747 28.3769 141.107 28.2367 141.504 28.142C141.902 28.0473 142.307 27.9754 142.72 27.9261C143.243 27.8655 143.667 27.8163 143.993 27.7784C144.319 27.7367 144.555 27.6705 144.703 27.5795C144.851 27.4886 144.925 27.3409 144.925 27.1364V27.0966C144.925 26.6004 144.785 26.2159 144.504 25.9432C144.228 25.6705 143.815 25.5341 143.266 25.5341C142.694 25.5341 142.243 25.661 141.913 25.9148C141.588 26.1648 141.362 26.4432 141.237 26.75L139.641 26.3864C139.83 25.8561 140.107 25.428 140.47 25.1023C140.838 24.7727 141.26 24.5341 141.737 24.3864C142.214 24.2348 142.716 24.1591 143.243 24.1591C143.591 24.1591 143.961 24.2008 144.351 24.2841C144.745 24.3636 145.112 24.5114 145.453 24.7273C145.798 24.9432 146.08 25.2519 146.3 25.6534C146.519 26.0511 146.629 26.5682 146.629 27.2045V33H144.97V31.8068H144.902C144.792 32.0265 144.627 32.2424 144.408 32.4545C144.188 32.6667 143.906 32.8428 143.561 32.983C143.216 33.1231 142.804 33.1932 142.322 33.1932ZM142.692 31.8295C143.161 31.8295 143.563 31.7367 143.896 31.5511C144.233 31.3655 144.489 31.1231 144.663 30.8239C144.841 30.5208 144.93 30.197 144.93 29.8523V28.7273C144.87 28.7879 144.752 28.8447 144.578 28.8977C144.408 28.947 144.213 28.9905 143.993 29.0284C143.773 29.0625 143.559 29.0947 143.351 29.125C143.143 29.1515 142.968 29.1742 142.828 29.1932C142.499 29.2348 142.197 29.3049 141.925 29.4034C141.656 29.5019 141.44 29.6439 141.277 29.8295C141.118 30.0114 141.038 30.2538 141.038 30.5568C141.038 30.9773 141.194 31.2955 141.504 31.5114C141.815 31.7235 142.211 31.8295 142.692 31.8295ZM156.011 24.2727V31.608H157.29V35.8125H155.614V33H148.892V24.2727H150.557V31.5341H154.352V24.2727H156.011ZM160.838 30.6193L164.685 24.2727H166.514V33H164.849V26.6477L161.02 33H159.173V24.2727H160.838V30.6193ZM170.463 30.6193L174.31 24.2727H176.139V33H174.474V26.6477L170.645 33H168.798V24.2727H170.463V30.6193ZM64.0412 41.4545V42.554H61.1136V48H59.8565V41.4545H64.0412ZM67.8402 48.1321C67.2266 48.1321 66.6911 47.9915 66.2337 47.7102C65.7763 47.429 65.4212 47.0355 65.1683 46.5298C64.9155 46.0241 64.7891 45.4332 64.7891 44.7571C64.7891 44.0781 64.9155 43.4844 65.1683 42.9759C65.4212 42.4673 65.7763 42.0724 66.2337 41.7912C66.6911 41.5099 67.2266 41.3693 67.8402 41.3693C68.4538 41.3693 68.9893 41.5099 69.4467 41.7912C69.9041 42.0724 70.2592 42.4673 70.5121 42.9759C70.7649 43.4844 70.8913 44.0781 70.8913 44.7571C70.8913 45.4332 70.7649 46.0241 70.5121 46.5298C70.2592 47.0355 69.9041 47.429 69.4467 47.7102C68.9893 47.9915 68.4538 48.1321 67.8402 48.1321ZM67.8445 47.0625C68.2422 47.0625 68.5717 46.9574 68.8331 46.7472C69.0945 46.5369 69.2876 46.2571 69.4126 45.9077C69.5405 45.5582 69.6044 45.1733 69.6044 44.7528C69.6044 44.3352 69.5405 43.9517 69.4126 43.6023C69.2876 43.25 69.0945 42.9673 68.8331 42.7543C68.5717 42.5412 68.2422 42.4347 67.8445 42.4347C67.4439 42.4347 67.1115 42.5412 66.8473 42.7543C66.5859 42.9673 66.3913 43.25 66.2635 43.6023C66.1385 43.9517 66.076 44.3352 66.076 44.7528C66.076 45.1733 66.1385 45.5582 66.2635 45.9077C66.3913 46.2571 66.5859 46.5369 66.8473 46.7472C67.1115 46.9574 67.4439 47.0625 67.8445 47.0625ZM72.3136 50.4545V41.4545H73.5579V42.5156H73.6644C73.7383 42.3793 73.8448 42.2216 73.984 42.0426C74.1232 41.8636 74.3164 41.7074 74.5636 41.5739C74.8107 41.4375 75.1374 41.3693 75.5437 41.3693C76.0721 41.3693 76.5437 41.5028 76.9585 41.7699C77.3732 42.0369 77.6985 42.4219 77.9343 42.9247C78.1729 43.4276 78.2923 44.0327 78.2923 44.7401C78.2923 45.4474 78.1744 46.054 77.9386 46.5597C77.7028 47.0625 77.3789 47.4503 76.967 47.723C76.555 47.9929 76.0849 48.1278 75.5565 48.1278C75.1587 48.1278 74.8335 48.0611 74.5806 47.9276C74.3306 47.794 74.1346 47.6378 73.9925 47.4588C73.8505 47.2798 73.7411 47.1207 73.6644 46.9815H73.5877V50.4545H72.3136ZM73.5621 44.7273C73.5621 45.1875 73.6289 45.5909 73.7624 45.9375C73.896 46.2841 74.0891 46.5554 74.342 46.7514C74.5948 46.9446 74.9045 47.0412 75.271 47.0412C75.6516 47.0412 75.9698 46.9403 76.2255 46.7386C76.4812 46.5341 76.6744 46.2571 76.805 45.9077C76.9386 45.5582 77.0053 45.1648 77.0053 44.7273C77.0053 44.2955 76.94 43.9077 76.8093 43.5639C76.6815 43.2202 76.4883 42.9489 76.2298 42.75C75.9741 42.5511 75.6545 42.4517 75.271 42.4517C74.9016 42.4517 74.5891 42.5469 74.3335 42.7372C74.0806 42.9276 73.8888 43.1932 73.7582 43.5341C73.6275 43.875 73.5621 44.2727 73.5621 44.7273ZM82.4769 48.1321C81.8633 48.1321 81.3278 47.9915 80.8704 47.7102C80.413 47.429 80.0579 47.0355 79.805 46.5298C79.5522 46.0241 79.4258 45.4332 79.4258 44.7571C79.4258 44.0781 79.5522 43.4844 79.805 42.9759C80.0579 42.4673 80.413 42.0724 80.8704 41.7912C81.3278 41.5099 81.8633 41.3693 82.4769 41.3693C83.0906 41.3693 83.6261 41.5099 84.0835 41.7912C84.5408 42.0724 84.896 42.4673 85.1488 42.9759C85.4016 43.4844 85.5281 44.0781 85.5281 44.7571C85.5281 45.4332 85.4016 46.0241 85.1488 46.5298C84.896 47.0355 84.5408 47.429 84.0835 47.7102C83.6261 47.9915 83.0906 48.1321 82.4769 48.1321ZM82.4812 47.0625C82.8789 47.0625 83.2085 46.9574 83.4698 46.7472C83.7312 46.5369 83.9244 46.2571 84.0494 45.9077C84.1772 45.5582 84.2411 45.1733 84.2411 44.7528C84.2411 44.3352 84.1772 43.9517 84.0494 43.6023C83.9244 43.25 83.7312 42.9673 83.4698 42.7543C83.2085 42.5412 82.8789 42.4347 82.4812 42.4347C82.0806 42.4347 81.7482 42.5412 81.484 42.7543C81.2227 42.9673 81.0281 43.25 80.9002 43.6023C80.7752 43.9517 80.7127 44.3352 80.7127 44.7528C80.7127 45.1733 80.7752 45.5582 80.9002 45.9077C81.0281 46.2571 81.2227 46.5369 81.484 46.7472C81.7482 46.9574 82.0806 47.0625 82.4812 47.0625ZM86.3111 49.8878V46.8963H86.8438C86.9801 46.7713 87.0952 46.6222 87.1889 46.4489C87.2855 46.2756 87.3665 46.0696 87.4318 45.831C87.5 45.5923 87.5568 45.3139 87.6023 44.9957C87.6477 44.6747 87.6875 44.3082 87.7216 43.8963L87.9261 41.4545H92.375V46.8963H93.3807V49.8878H92.1364V48H87.5724V49.8878H86.3111ZM88.2074 46.8963H91.1307V42.5455H89.0682L88.9318 43.8963C88.8665 44.5838 88.7841 45.1804 88.6847 45.6861C88.5852 46.1889 88.4261 46.5923 88.2074 46.8963ZM96.5309 48.1449C96.1161 48.1449 95.7411 48.0682 95.4059 47.9148C95.0707 47.7585 94.805 47.5327 94.609 47.2372C94.4158 46.9418 94.3192 46.5795 94.3192 46.1506C94.3192 45.7812 94.3903 45.4773 94.5323 45.2386C94.6744 45 94.8661 44.8111 95.1076 44.6719C95.3491 44.5327 95.619 44.4276 95.9173 44.3565C96.2156 44.2855 96.5195 44.2315 96.8292 44.1946C97.2212 44.1491 97.5394 44.1122 97.7837 44.0838C98.0281 44.0526 98.2056 44.0028 98.3164 43.9347C98.4272 43.8665 98.4826 43.7557 98.4826 43.6023V43.5724C98.4826 43.2003 98.3775 42.9119 98.1673 42.7074C97.9599 42.5028 97.6502 42.4006 97.2383 42.4006C96.8093 42.4006 96.4712 42.4957 96.2241 42.6861C95.9798 42.8736 95.8107 43.0824 95.717 43.3125L94.5195 43.0398C94.6616 42.642 94.869 42.321 95.1417 42.0767C95.4173 41.8295 95.734 41.6506 96.092 41.5398C96.4499 41.4261 96.8263 41.3693 97.2212 41.3693C97.4826 41.3693 97.7596 41.4006 98.0522 41.4631C98.3477 41.5227 98.6232 41.6335 98.8789 41.7955C99.1374 41.9574 99.3491 42.1889 99.5138 42.4901C99.6786 42.7884 99.761 43.1761 99.761 43.6534V48H98.5167V47.1051H98.4656C98.3832 47.2699 98.2596 47.4318 98.0948 47.5909C97.93 47.75 97.7184 47.8821 97.4599 47.9872C97.2013 48.0923 96.8917 48.1449 96.5309 48.1449ZM96.8079 47.1222C97.1602 47.1222 97.4613 47.0526 97.7113 46.9134C97.9641 46.7741 98.1559 46.5923 98.2866 46.3679C98.4201 46.1406 98.4869 45.8977 98.4869 45.6392V44.7955C98.4414 44.8409 98.3533 44.8835 98.2227 44.9233C98.0948 44.9602 97.9485 44.9929 97.7837 45.0213C97.619 45.0469 97.4585 45.071 97.3022 45.0938C97.146 45.1136 97.0153 45.1307 96.9102 45.1449C96.663 45.1761 96.4371 45.2287 96.2326 45.3026C96.0309 45.3764 95.869 45.483 95.7468 45.6222C95.6275 45.7585 95.5678 45.9403 95.5678 46.1676C95.5678 46.483 95.6843 46.7216 95.9173 46.8835C96.1502 47.0426 96.4471 47.1222 96.8079 47.1222ZM105.473 48H104.076L107.216 39.2727H108.738L111.878 48H110.48L108.013 40.858H107.945L105.473 48ZM105.708 44.5824H110.242V45.6903H105.708V44.5824ZM112.521 48L112.516 46.8963H112.751C112.933 46.8963 113.085 46.858 113.207 46.7812C113.332 46.7017 113.434 46.5682 113.513 46.3807C113.593 46.1932 113.654 45.9347 113.697 45.6051C113.739 45.2727 113.771 44.8551 113.79 44.3523L113.906 41.4545H118.474V48H117.225V42.554H115.086L114.984 44.7784C114.958 45.3182 114.903 45.7898 114.817 46.1932C114.735 46.5966 114.614 46.9332 114.455 47.2031C114.296 47.4702 114.092 47.6705 113.842 47.804C113.592 47.9347 113.288 48 112.93 48H112.521ZM123.846 46.4233L125.96 41.4545H127.059L124.319 48H123.373L120.689 41.4545H121.775L123.846 46.4233ZM121.422 41.4545V48H120.173V41.4545H121.422ZM126.305 48V41.4545H127.545V48H126.305ZM131.148 48.1449C130.733 48.1449 130.358 48.0682 130.023 47.9148C129.688 47.7585 129.422 47.5327 129.226 47.2372C129.033 46.9418 128.936 46.5795 128.936 46.1506C128.936 45.7812 129.007 45.4773 129.15 45.2386C129.292 45 129.483 44.8111 129.725 44.6719C129.966 44.5327 130.236 44.4276 130.534 44.3565C130.833 44.2855 131.137 44.2315 131.446 44.1946C131.838 44.1491 132.157 44.1122 132.401 44.0838C132.645 44.0526 132.823 44.0028 132.934 43.9347C133.044 43.8665 133.1 43.7557 133.1 43.6023V43.5724C133.1 43.2003 132.995 42.9119 132.784 42.7074C132.577 42.5028 132.267 42.4006 131.855 42.4006C131.426 42.4006 131.088 42.4957 130.841 42.6861C130.597 42.8736 130.428 43.0824 130.334 43.3125L129.137 43.0398C129.279 42.642 129.486 42.321 129.759 42.0767C130.034 41.8295 130.351 41.6506 130.709 41.5398C131.067 41.4261 131.444 41.3693 131.838 41.3693C132.1 41.3693 132.377 41.4006 132.669 41.4631C132.965 41.5227 133.24 41.6335 133.496 41.7955C133.755 41.9574 133.966 42.1889 134.131 42.4901C134.296 42.7884 134.378 43.1761 134.378 43.6534V48H133.134V47.1051H133.083C133 47.2699 132.877 47.4318 132.712 47.5909C132.547 47.75 132.336 47.8821 132.077 47.9872C131.819 48.0923 131.509 48.1449 131.148 48.1449ZM131.425 47.1222C131.777 47.1222 132.078 47.0526 132.328 46.9134C132.581 46.7741 132.773 46.5923 132.904 46.3679C133.037 46.1406 133.104 45.8977 133.104 45.6392V44.7955C133.059 44.8409 132.971 44.8835 132.84 44.9233C132.712 44.9602 132.566 44.9929 132.401 45.0213C132.236 45.0469 132.076 45.071 131.919 45.0938C131.763 45.1136 131.632 45.1307 131.527 45.1449C131.28 45.1761 131.054 45.2287 130.85 45.3026C130.648 45.3764 130.486 45.483 130.364 45.6222C130.245 45.7585 130.185 45.9403 130.185 46.1676C130.185 46.483 130.301 46.7216 130.534 46.8835C130.767 47.0426 131.064 47.1222 131.425 47.1222ZM135.263 42.554V41.4545H140.786V42.554H138.651V48H137.407V42.554H135.263ZM143.093 43.7045H144.993C145.794 43.7045 146.411 43.9034 146.843 44.3011C147.275 44.6989 147.49 45.2116 147.49 45.8395C147.49 46.2486 147.394 46.6165 147.201 46.9432C147.007 47.2699 146.725 47.5284 146.353 47.7188C145.98 47.9062 145.527 48 144.993 48H142.134V41.4545H143.382V46.9006H144.993C145.36 46.9006 145.661 46.8054 145.897 46.6151C146.132 46.4219 146.25 46.1761 146.25 45.8778C146.25 45.5625 146.132 45.3054 145.897 45.1065C145.661 44.9048 145.36 44.804 144.993 44.804H143.093V43.7045ZM148.419 48V41.4545H149.694V48H148.419Z" fill="white"/>
<defs>
<clipPath id="clip0_988_61">
<rect width="41" height="50" fill="white"/>
</clipPath>
</defs>
</svg>
